version 1
nodes
0 "root" -1
end
skeleton
time 0
0 0 0 0 0 0 0
end
triangles
plains_grass_blades.bmp
0 7.237385 12.882661 0.000000 -0.932232 0.166570 0.321244 0.007500 0.007500
0 2.947033 -11.128821 0.000000 -0.932232 0.166570 0.321244 0.492500 0.007500
0 12.762615 -12.882661 29.393620 -0.932232 0.166570 0.321244 0.492500 0.492500
plains_grass_blades.bmp
0 7.237385 12.882661 0.000000 -0.932232 0.166570 0.321244 0.007500 0.007500
0 12.762615 -12.882661 29.393620 -0.932232 0.166570 0.321244 0.492500 0.492500
0 17.052967 11.128821 29.393620 -0.932232 0.166570 0.321244 0.007500 0.492500
plains_grass_blades.bmp
0 17.052967 11.128821 29.393620 0.932232 -0.166570 -0.321244 0.007500 0.492500
0 12.762615 -12.882661 29.393620 0.932232 -0.166570 -0.321244 0.492500 0.492500
0 2.947033 -11.128821 0.000000 0.932232 -0.166570 -0.321244 0.492500 0.007500
plains_grass_blades.bmp
0 17.052967 11.128821 29.393620 0.932232 -0.166570 -0.321244 0.007500 0.492500
0 2.947033 -11.128821 0.000000 0.932232 -0.166570 -0.321244 0.492500 0.007500
0 7.237385 12.882661 0.000000 0.932232 -0.166570 -0.321244 0.007500 0.007500
plains_grass_blades.bmp
0 -2.472537 -0.467302 0.000000 -0.173203 -0.969355 0.174218 0.007500 0.507500
0 21.538946 -4.757653 0.000000 -0.173203 -0.969355 0.174218 0.492500 0.507500
0 22.472536 0.467302 30.000000 -0.173203 -0.969355 0.174218 0.492500 0.992500
plains_grass_blades.bmp
0 -2.472537 -0.467302 0.000000 -0.173203 -0.969355 0.174218 0.007500 0.507500
0 22.472536 0.467302 30.000000 -0.173203 -0.969355 0.174218 0.492500 0.992500
0 -1.538946 4.757653 30.000000 -0.173203 -0.969355 0.174218 0.007500 0.992500
plains_grass_blades.bmp
0 -1.538946 4.757653 30.000000 0.173203 0.969355 -0.174218 0.007500 0.992500
0 22.472536 0.467302 30.000000 0.173203 0.969355 -0.174218 0.492500 0.992500
0 21.538946 -4.757653 0.000000 0.173203 0.969355 -0.174218 0.492500 0.507500
plains_grass_blades.bmp
0 -1.538946 4.757653 30.000000 0.173203 0.969355 -0.174218 0.007500 0.992500
0 21.538946 -4.757653 0.000000 0.173203 0.969355 -0.174218 0.492500 0.507500
0 -2.472537 -0.467302 0.000000 0.173203 0.969355 -0.174218 0.007500 0.507500
plains_grass_blades.bmp
0 -6.222554 -7.504248 1.262059 0.788099 0.437719 -0.432785 0.507500 0.507500
0 -18.873446 15.273283 1.262059 0.788099 0.437719 -0.432785 0.992500 0.507500
0 -8.511805 21.028254 25.951128 0.788099 0.437719 -0.432785 0.992500 0.992500
plains_grass_blades.bmp
0 -6.222554 -7.504248 1.262059 0.788099 0.437719 -0.432785 0.507500 0.507500
0 -8.511805 21.028254 25.951128 0.788099 0.437719 -0.432785 0.992500 0.992500
0 4.139088 -1.749278 25.951128 0.788099 0.437719 -0.432785 0.507500 0.992500
plains_grass_blades.bmp
0 4.139088 -1.749278 25.951128 -0.788099 -0.437719 0.432785 0.507500 0.992500
0 -8.511805 21.028254 25.951128 -0.788099 -0.437719 0.432785 0.992500 0.992500
0 -18.873446 15.273283 1.262059 -0.788099 -0.437719 0.432785 0.992500 0.507500
plains_grass_blades.bmp
0 4.139088 -1.749278 25.951128 -0.788099 -0.437719 0.432785 0.507500 0.992500
0 -18.873446 15.273283 1.262059 -0.788099 -0.437719 0.432785 0.992500 0.507500
0 -6.222554 -7.504248 1.262059 -0.788099 -0.437719 0.432785 0.507500 0.507500
plains_grass_blades.bmp
0 3.751513 13.573706 0.000000 -0.485147 0.873492 0.040553 0.007500 0.507500
0 -19.026016 0.922814 0.000000 -0.485147 0.873492 0.040553 0.492500 0.507500
0 -18.485870 -0.049701 27.409615 -0.485147 0.873492 0.040553 0.492500 0.992500
plains_grass_blades.bmp
0 3.751513 13.573706 0.000000 -0.485147 0.873492 0.040553 0.007500 0.507500
0 -18.485870 -0.049701 27.409615 -0.485147 0.873492 0.040553 0.492500 0.992500
0 4.291659 12.601191 27.409615 -0.485147 0.873492 0.040553 0.007500 0.992500
plains_grass_blades.bmp
0 4.291659 12.601191 27.409615 0.485147 -0.873492 -0.040553 0.007500 0.992500
0 -18.485870 -0.049701 27.409615 0.485147 -0.873492 -0.040553 0.492500 0.992500
0 -19.026016 0.922814 0.000000 0.485147 -0.873492 -0.040553 0.492500 0.507500
plains_grass_blades.bmp
0 4.291659 12.601191 27.409615 0.485147 -0.873492 -0.040553 0.007500 0.992500
0 -19.026016 0.922814 0.000000 0.485147 -0.873492 -0.040553 0.492500 0.507500
0 3.751513 13.573706 0.000000 0.485147 -0.873492 -0.040553 0.007500 0.507500
plains_grass_blades.bmp
0 -1.993463 3.127103 0.000000 -0.989273 -0.095792 0.110282 0.507500 0.507500
0 0.571040 -23.357185 0.000000 -0.989273 -0.095792 0.110282 0.992500 0.507500
0 3.703593 -23.053856 28.363806 -0.989273 -0.095792 0.110282 0.992500 0.992500
plains_grass_blades.bmp
0 -1.993463 3.127103 0.000000 -0.989273 -0.095792 0.110282 0.507500 0.507500
0 3.703593 -23.053856 28.363806 -0.989273 -0.095792 0.110282 0.992500 0.992500
0 1.139090 3.430432 28.363806 -0.989273 -0.095792 0.110282 0.507500 0.992500
plains_grass_blades.bmp
0 1.139090 3.430432 28.363806 0.989273 0.095792 -0.110282 0.507500 0.992500
0 3.703593 -23.053856 28.363806 0.989273 0.095792 -0.110282 0.992500 0.992500
0 0.571040 -23.357185 0.000000 0.989273 0.095792 -0.110282 0.992500 0.507500
plains_grass_blades.bmp
0 1.139090 3.430432 28.363806 0.989273 0.095792 -0.110282 0.507500 0.992500
0 0.571040 -23.357185 0.000000 0.989273 0.095792 -0.110282 0.992500 0.507500
0 -1.993463 3.127103 0.000000 0.989273 0.095792 -0.110282 0.507500 0.507500
plains_grass_blades.bmp
0 -12.371320 -11.408375 0.000000 0.096374 -0.995279 0.011492 0.507500 0.507500
0 14.112967 -8.843872 0.000000 0.096374 -0.995279 0.011492 0.992500 0.507500
0 14.081449 -8.518377 28.454445 0.096374 -0.995279 0.011492 0.992500 0.992500
plains_grass_blades.bmp
0 -12.371320 -11.408375 0.000000 0.096374 -0.995279 0.011492 0.507500 0.507500
0 14.081449 -8.518377 28.454445 0.096374 -0.995279 0.011492 0.992500 0.992500
0 -12.402839 -11.082880 28.454445 0.096374 -0.995279 0.011492 0.507500 0.992500
plains_grass_blades.bmp
0 -12.402839 -11.082880 28.454445 -0.096374 0.995279 -0.011492 0.507500 0.992500
0 14.081449 -8.518377 28.454445 -0.096374 0.995279 -0.011492 0.992500 0.992500
0 14.112967 -8.843872 0.000000 -0.096374 0.995279 -0.011492 0.992500 0.507500
plains_grass_blades.bmp
0 -12.402839 -11.082880 28.454445 -0.096374 0.995279 -0.011492 0.507500 0.992500
0 14.112967 -8.843872 0.000000 -0.096374 0.995279 -0.011492 0.992500 0.507500
0 -12.371320 -11.408375 0.000000 -0.096374 0.995279 -0.011492 0.507500 0.507500
plains_grass_blades.bmp
0 -1.576474 18.812311 0.827094 -0.486197 -0.787425 -0.378913 0.507500 0.507500
0 19.289082 5.928839 0.827094 -0.486197 -0.787425 -0.378913 0.992500 0.507500
0 13.791065 -2.975528 26.386091 -0.486197 -0.787425 -0.378913 0.992500 0.992500
plains_grass_blades.bmp
0 -1.576474 18.812311 0.827094 -0.486197 -0.787425 -0.378913 0.507500 0.507500
0 13.791065 -2.975528 26.386091 -0.486197 -0.787425 -0.378913 0.992500 0.992500
0 -7.074491 9.907946 26.386091 -0.486197 -0.787425 -0.378913 0.507500 0.992500
plains_grass_blades.bmp
0 -7.074491 9.907946 26.386091 0.486197 0.787425 0.378913 0.507500 0.992500
0 13.791065 -2.975528 26.386091 0.486197 0.787425 0.378913 0.992500 0.992500
0 19.289082 5.928839 0.827094 0.486197 0.787425 0.378913 0.992500 0.507500
plains_grass_blades.bmp
0 -7.074491 9.907946 26.386091 0.486197 0.787425 0.378913 0.507500 0.992500
0 19.289082 5.928839 0.827094 0.486197 0.787425 0.378913 0.992500 0.507500
0 -1.576474 18.812311 0.827094 0.486197 0.787425 0.378913 0.507500 0.507500
plains_grass_blades.bmp
0 -2.896799 -0.932253 0.065014 0.830582 -0.512844 -0.217082 0.507500 0.507500
0 9.986673 19.933302 0.065014 0.830582 -0.512844 -0.217082 0.992500 0.507500
0 15.111391 16.769037 27.148174 0.830582 -0.512844 -0.217082 0.992500 0.992500
plains_grass_blades.bmp
0 -2.896799 -0.932253 0.065014 0.830582 -0.512844 -0.217082 0.507500 0.507500
0 15.111391 16.769037 27.148174 0.830582 -0.512844 -0.217082 0.992500 0.992500
0 2.227918 -4.096519 27.148174 0.830582 -0.512844 -0.217082 0.507500 0.992500
plains_grass_blades.bmp
0 2.227918 -4.096519 27.148174 -0.830582 0.512844 0.217082 0.507500 0.992500
0 15.111391 16.769037 27.148174 -0.830582 0.512844 0.217082 0.992500 0.992500
0 9.986673 19.933302 0.065014 -0.830582 0.512844 0.217082 0.992500 0.507500
plains_grass_blades.bmp
0 2.227918 -4.096519 27.148174 -0.830582 0.512844 0.217082 0.507500 0.992500
0 9.986673 19.933302 0.065014 -0.830582 0.512844 0.217082 0.992500 0.507500
0 -2.896799 -0.932253 0.065014 -0.830582 0.512844 0.217082 0.507500 0.507500
plains_grass_blades.bmp
0 -23.580450 4.338375 0.000000 -0.529403 -0.832404 0.163818 0.007500 0.507500
0 1.438639 -11.573606 0.000000 -0.529403 -0.832404 0.163818 0.492500 0.507500
0 3.872904 -7.746108 27.315241 -0.529403 -0.832404 0.163818 0.492500 0.992500
plains_grass_blades.bmp
0 -23.580450 4.338375 0.000000 -0.529403 -0.832404 0.163818 0.007500 0.507500
0 3.872904 -7.746108 27.315241 -0.529403 -0.832404 0.163818 0.492500 0.992500
0 -21.146185 8.165874 27.315241 -0.529403 -0.832404 0.163818 0.007500 0.992500
plains_grass_blades.bmp
0 -21.146185 8.165874 27.315241 0.529403 0.832404 -0.163818 0.007500 0.992500
0 3.872904 -7.746108 27.315241 0.529403 0.832404 -0.163818 0.492500 0.992500
0 1.438639 -11.573606 0.000000 0.529403 0.832404 -0.163818 0.492500 0.507500
plains_grass_blades.bmp
0 -21.146185 8.165874 27.315241 0.529403 0.832404 -0.163818 0.007500 0.992500
0 1.438639 -11.573606 0.000000 0.529403 0.832404 -0.163818 0.492500 0.507500
0 -23.580450 4.338375 0.000000 0.529403 0.832404 -0.163818 0.007500 0.507500
plains_grass_blades.bmp
0 -19.658426 -13.037674 0.000000 0.833162 -0.529886 -0.158311 0.007500 0.007500
0 -3.746445 11.981415 0.000000 0.833162 -0.529886 -0.158311 0.492500 0.007500
0 -0.049120 9.629940 27.328976 0.833162 -0.529886 -0.158311 0.492500 0.492500
plains_grass_blades.bmp
0 -19.658426 -13.037674 0.000000 0.833162 -0.529886 -0.158311 0.007500 0.007500
0 -0.049120 9.629940 27.328976 0.833162 -0.529886 -0.158311 0.492500 0.492500
0 -15.961102 -15.389149 27.328976 0.833162 -0.529886 -0.158311 0.007500 0.492500
plains_grass_blades.bmp
0 -15.961102 -15.389149 27.328976 -0.833162 0.529886 0.158311 0.007500 0.492500
0 -0.049120 9.629940 27.328976 -0.833162 0.529886 0.158311 0.492500 0.492500
0 -3.746445 11.981415 0.000000 -0.833162 0.529886 0.158311 0.492500 0.007500
plains_grass_blades.bmp
0 -15.961102 -15.389149 27.328976 -0.833162 0.529886 0.158311 0.007500 0.492500
0 -3.746445 11.981415 0.000000 -0.833162 0.529886 0.158311 0.492500 0.007500
0 -19.658426 -13.037674 0.000000 -0.833162 0.529886 0.158311 0.007500 0.007500
plains_grass_blades.bmp
0 5.796203 -18.947296 0.000000 0.881182 0.239658 -0.407533 0.507500 0.007500
0 -0.701018 4.941874 0.000000 0.881182 0.239658 -0.407533 0.992500 0.007500
0 11.027008 8.131586 27.234512 0.881182 0.239658 -0.407533 0.992500 0.492500
plains_grass_blades.bmp
0 5.796203 -18.947296 0.000000 0.881182 0.239658 -0.407533 0.507500 0.007500
0 11.027008 8.131586 27.234512 0.881182 0.239658 -0.407533 0.992500 0.492500
0 17.524229 -15.757584 27.234512 0.881182 0.239658 -0.407533 0.507500 0.492500
plains_grass_blades.bmp
0 17.524229 -15.757584 27.234512 -0.881182 -0.239658 0.407533 0.507500 0.492500
0 11.027008 8.131586 27.234512 -0.881182 -0.239658 0.407533 0.992500 0.492500
0 -0.701018 4.941874 0.000000 -0.881182 -0.239658 0.407533 0.992500 0.007500
plains_grass_blades.bmp
0 17.524229 -15.757584 27.234512 -0.881182 -0.239658 0.407533 0.507500 0.492500
0 -0.701018 4.941874 0.000000 -0.881182 -0.239658 0.407533 0.992500 0.007500
0 5.796203 -18.947296 0.000000 -0.881182 -0.239658 0.407533 0.507500 0.007500
plains_grass_blades.bmp
0 18.615177 4.242165 0.266236 -0.234989 0.864013 0.445267 0.507500 0.507500
0 -5.273993 -2.255055 0.266236 -0.234989 0.864013 0.445267 0.992500 0.507500
0 -1.791965 -15.057874 26.946949 -0.234989 0.864013 0.445267 0.992500 0.992500
plains_grass_blades.bmp
0 18.615177 4.242165 0.266236 -0.234989 0.864013 0.445267 0.507500 0.507500
0 -1.791965 -15.057874 26.946949 -0.234989 0.864013 0.445267 0.992500 0.992500
0 22.097202 -8.560654 26.946949 -0.234989 0.864013 0.445267 0.507500 0.992500
plains_grass_blades.bmp
0 22.097202 -8.560654 26.946949 0.234989 -0.864013 -0.445267 0.507500 0.992500
0 -1.791965 -15.057874 26.946949 0.234989 -0.864013 -0.445267 0.992500 0.992500
0 -5.273993 -2.255055 0.266236 0.234989 -0.864013 -0.445267 0.992500 0.507500
plains_grass_blades.bmp
0 22.097202 -8.560654 26.946949 0.234989 -0.864013 -0.445267 0.507500 0.992500
0 -5.273993 -2.255055 0.266236 0.234989 -0.864013 -0.445267 0.992500 0.507500
0 18.615177 4.242165 0.266236 0.234989 -0.864013 -0.445267 0.507500 0.507500
end
