version 1
nodes
0 "root" -1
end
skeleton
time 0
0 0 0 0 0 0 0
end
triangles
plains_stone.bmp
0 0.000000 0.000000 0.000000 0.000000 0.000000 -1.000000 0.000000 0.000000
0 13.880199 -9.139021 0.000000 0.000000 0.000000 -1.000000 0.347005 0.771524
0 -4.688776 -13.077924 0.000000 0.000000 0.000000 -1.000000 0.882781 0.673052
plains_stone.bmp
0 22.407366 -14.753490 10.181119 0.709647 -0.164510 -0.685083 0.560184 0.831500
0 13.880199 -9.139021 0.000000 0.709647 -0.164510 -0.685083 0.347005 0.771524
0 24.587841 0.000000 8.897002 0.709647 -0.164510 -0.685083 0.614696 0.175069
plains_stone.bmp
0 0.000000 0.000000 0.000000 0.000000 0.000000 -1.000000 0.000000 0.000000
0 -4.688776 -13.077924 0.000000 0.000000 0.000000 -1.000000 0.882781 0.673052
0 -16.768929 0.000000 0.000000 0.000000 0.000000 -1.000000 0.580777 0.000000
plains_stone.bmp
0 0.000000 0.000000 0.000000 0.000000 -0.000000 -1.000000 0.000000 0.000000
0 -16.768929 0.000000 0.000000 0.000000 -0.000000 -1.000000 0.580777 0.000000
0 -5.034485 14.042175 0.000000 0.000000 -0.000000 -1.000000 0.874138 0.351054
plains_stone.bmp
0 0.000000 0.000000 0.000000 0.017813 0.006386 -0.999821 0.000000 0.000000
0 -5.034485 14.042175 0.000000 0.017813 0.006386 -0.999821 0.874138 0.351054
0 12.126417 7.984293 0.267041 0.017813 0.006386 -0.999821 0.303160 0.204862
plains_stone.bmp
0 22.407366 -14.753490 10.181119 0.914509 -0.167223 -0.368389 0.560184 0.831500
0 24.587841 0.000000 8.897002 0.914509 -0.167223 -0.368389 0.614696 0.175069
0 28.866604 -8.499884 23.377171 0.914509 -0.167223 -0.368389 0.721665 0.247503
plains_stone.bmp
0 -7.526093 -20.991760 11.773195 -0.339891 -0.856481 -0.388476 0.811848 0.706871
0 8.979082 -25.043535 6.265307 -0.339891 -0.856481 -0.388476 0.224477 0.497196
0 0.000000 -29.241699 23.377171 -0.339891 -0.856481 -0.388476 0.000000 0.728958
plains_stone.bmp
0 -25.104126 0.000000 11.416572 -0.893175 -0.329988 -0.305525 0.372397 0.224648
0 -19.564550 -12.881822 9.135361 -0.893175 -0.329988 -0.305525 0.510886 0.857714
0 -26.330969 -7.753256 23.377171 -0.893175 -0.329988 -0.305525 0.341726 0.266169
plains_stone.bmp
0 -9.048349 25.237635 9.426130 -0.570686 0.594686 -0.566274 0.773791 0.816422
0 -20.424322 13.447917 8.509499 -0.570686 0.594686 -0.566274 0.489392 0.503642
0 -21.389025 26.679493 23.377171 -0.570686 0.594686 -0.566274 0.465274 0.126987
plains_stone.bmp
0 21.916475 14.430277 10.470211 0.344830 0.785368 -0.514090 0.547912 0.566783
0 7.261936 20.254248 9.537753 0.344830 0.785368 -0.514090 0.181548 0.694034
0 19.272743 24.039759 23.377171 0.344830 0.785368 -0.514090 0.481819 0.060994
plains_stone.bmp
0 22.407366 -14.753490 10.181119 0.737748 -0.673780 -0.041811 0.560184 0.831500
0 28.866604 -8.499884 23.377171 0.737748 -0.673780 -0.041811 0.721665 0.247503
0 17.123060 -21.358362 23.377171 0.737748 -0.673780 -0.041811 0.428077 0.926041
plains_stone.bmp
0 -7.526093 -20.991760 11.773195 -0.441479 -0.841344 -0.311827 0.811848 0.706871
0 0.000000 -29.241699 23.377171 -0.441479 -0.841344 -0.311827 0.000000 0.728958
0 -16.501385 -20.582918 23.377171 -0.441479 -0.841344 -0.311827 0.587465 0.945427
plains_stone.bmp
0 -25.104126 0.000000 11.416572 -0.896731 -0.323700 -0.301814 0.372397 0.224648
0 -26.330969 -7.753256 23.377171 -0.896731 -0.323700 -0.301814 0.341726 0.266169
0 -32.594208 9.597491 23.377171 -0.896731 -0.323700 -0.301814 0.185145 0.699937
plains_stone.bmp
0 -9.048349 25.237635 9.426130 -0.116885 0.971999 -0.203851 0.773791 0.816422
0 -21.389025 26.679493 23.377171 -0.116885 0.971999 -0.203851 0.465274 0.126987
0 0.000000 29.251572 23.377171 -0.116885 0.971999 -0.203851 0.000000 0.191289
plains_stone.bmp
0 21.916475 14.430277 10.470211 0.674977 0.651326 -0.346670 0.547912 0.566783
0 19.272743 24.039759 23.377171 0.674977 0.651326 -0.346670 0.481819 0.060994
0 33.072945 9.738458 23.377171 0.674977 0.651326 -0.346670 0.826824 0.703461
plains_stone.bmp
0 8.533513 -23.801657 36.534420 0.259665 -0.809140 0.527131 0.213338 0.123858
0 24.155474 -15.904608 40.960896 0.259665 -0.809140 0.527131 0.603887 0.408385
0 5.520193 -15.396910 50.919975 0.259665 -0.809140 0.527131 0.138005 0.617046
plains_stone.bmp
0 -20.354170 -13.401622 35.364063 -0.498648 -0.763462 0.410458 0.491146 0.360829
0 -7.419202 -20.692879 37.516296 -0.498648 -0.763462 0.410458 0.814520 0.220898
0 -14.185804 -9.340238 50.412014 -0.498648 -0.763462 0.410458 0.645355 0.758467
plains_stone.bmp
0 -25.608109 16.860928 38.458187 -0.450883 0.210029 0.867521 0.359797 0.178277
0 -29.290108 0.000000 40.626579 -0.450883 0.210029 0.867521 0.267747 0.799422
0 -12.562364 8.271330 47.318111 -0.450883 0.210029 0.867521 0.685941 0.137877
plains_stone.bmp
0 9.230485 25.745649 37.609035 0.140100 0.555097 0.819902 0.230762 0.383686
0 -9.174185 25.587698 40.860847 0.140100 0.555097 0.819902 0.770645 0.443724
0 4.715711 13.153052 46.906044 0.140100 0.555097 0.819902 0.117893 0.251811
plains_stone.bmp
0 28.312414 0.000000 36.866325 0.634625 0.279969 0.720326 0.707810 0.725430
0 20.608940 13.569475 38.379234 0.634625 0.279969 0.720326 0.515224 0.094437
0 15.863008 0.000000 47.834557 0.634625 0.279969 0.720326 0.396575 0.941256
plains_stone.bmp
0 15.863008 0.000000 47.834557 0.339444 0.349333 0.873352 0.396575 0.941256
0 4.715711 13.153052 46.906044 0.339444 0.349333 0.873352 0.117893 0.251811
0 0.000000 0.000000 54.000000 0.339444 0.349333 0.873352 0.000000 0.062575
plains_stone.bmp
0 15.863008 0.000000 47.834557 0.421802 0.414409 0.806441 0.396575 0.941256
0 20.608940 13.569475 38.379234 0.421802 0.414409 0.806441 0.515224 0.094437
0 4.715711 13.153052 46.906044 0.421802 0.414409 0.806441 0.117893 0.251811
plains_stone.bmp
0 20.608940 13.569475 38.379234 0.415823 0.438962 0.796495 0.515224 0.094437
0 9.230485 25.745649 37.609035 0.415823 0.438962 0.796495 0.230762 0.383686
0 4.715711 13.153052 46.906044 0.415823 0.438962 0.796495 0.117893 0.251811
plains_stone.bmp
0 4.715711 13.153052 46.906044 -0.122225 0.504730 0.854581 0.117893 0.251811
0 -12.562364 8.271330 47.318111 -0.122225 0.504730 0.854581 0.685941 0.137877
0 0.000000 0.000000 54.000000 -0.122225 0.504730 0.854581 0.000000 0.062575
plains_stone.bmp
0 4.715711 13.153052 46.906044 -0.080130 0.362000 0.928728 0.117893 0.251811
0 -9.174185 25.587698 40.860847 -0.080130 0.362000 0.928728 0.770645 0.443724
0 -12.562364 8.271330 47.318111 -0.080130 0.362000 0.928728 0.685941 0.137877
plains_stone.bmp
0 -9.174185 25.587698 40.860847 -0.330814 0.385869 0.861201 0.770645 0.443724
0 -25.608109 16.860928 38.458187 -0.330814 0.385869 0.861201 0.359797 0.178277
0 -12.562364 8.271330 47.318111 -0.330814 0.385869 0.861201 0.685941 0.137877
plains_stone.bmp
0 -12.562364 8.271330 47.318111 -0.358391 0.193481 0.913302 0.685941 0.137877
0 -14.185804 -9.340238 50.412014 -0.358391 0.193481 0.913302 0.645355 0.758467
0 0.000000 0.000000 54.000000 -0.358391 0.193481 0.913302 0.000000 0.062575
plains_stone.bmp
0 -12.562364 8.271330 47.318111 -0.445742 0.194585 0.873757 0.685941 0.137877
0 -29.290108 0.000000 40.626579 -0.445742 0.194585 0.873757 0.267747 0.799422
0 -14.185804 -9.340238 50.412014 -0.445742 0.194585 0.873757 0.645355 0.758467
plains_stone.bmp
0 -29.290108 0.000000 40.626579 -0.660447 -0.611488 0.435765 0.267747 0.799422
0 -20.354170 -13.401622 35.364063 -0.660447 -0.611488 0.435765 0.491146 0.360829
0 -14.185804 -9.340238 50.412014 -0.660447 -0.611488 0.435765 0.645355 0.758467
plains_stone.bmp
0 -14.185804 -9.340238 50.412014 -0.095030 -0.227917 0.969032 0.645355 0.758467
0 5.520193 -15.396910 50.919975 -0.095030 -0.227917 0.969032 0.138005 0.617046
0 0.000000 0.000000 54.000000 -0.095030 -0.227917 0.969032 0.000000 0.062575
plains_stone.bmp
0 -14.185804 -9.340238 50.412014 -0.256689 -0.788259 0.559249 0.645355 0.758467
0 -7.419202 -20.692879 37.516296 -0.256689 -0.788259 0.559249 0.814520 0.220898
0 5.520193 -15.396910 50.919975 -0.256689 -0.788259 0.559249 0.138005 0.617046
plains_stone.bmp
0 -7.419202 -20.692879 37.516296 -0.139649 -0.867437 0.477547 0.814520 0.220898
0 8.533513 -23.801657 36.534420 -0.139649 -0.867437 0.477547 0.213338 0.123858
0 5.520193 -15.396910 50.919975 -0.139649 -0.867437 0.477547 0.138005 0.617046
plains_stone.bmp
0 5.520193 -15.396910 50.919975 0.361689 -0.056481 0.930586 0.138005 0.617046
0 15.863008 0.000000 47.834557 0.361689 -0.056481 0.930586 0.396575 0.941256
0 0.000000 0.000000 54.000000 0.361689 -0.056481 0.930586 0.000000 0.062575
plains_stone.bmp
0 5.520193 -15.396910 50.919975 0.464043 -0.136324 0.875260 0.138005 0.617046
0 24.155474 -15.904608 40.960896 0.464043 -0.136324 0.875260 0.603887 0.408385
0 15.863008 0.000000 47.834557 0.464043 -0.136324 0.875260 0.396575 0.941256
plains_stone.bmp
0 24.155474 -15.904608 40.960896 0.660924 0.020386 0.750176 0.603887 0.408385
0 28.312414 0.000000 36.866325 0.660924 0.020386 0.750176 0.707810 0.725430
0 15.863008 0.000000 47.834557 0.660924 0.020386 0.750176 0.396575 0.941256
plains_stone.bmp
0 33.072945 9.738458 23.377171 0.758648 0.370977 0.535564 0.826824 0.703461
0 20.608940 13.569475 38.379234 0.758648 0.370977 0.535564 0.515224 0.094437
0 28.312414 0.000000 36.866325 0.758648 0.370977 0.535564 0.707810 0.725430
plains_stone.bmp
0 33.072945 9.738458 23.377171 0.663333 0.640090 0.387652 0.826824 0.703461
0 19.272743 24.039759 23.377171 0.663333 0.640090 0.387652 0.481819 0.060994
0 20.608940 13.569475 38.379234 0.663333 0.640090 0.387652 0.515224 0.094437
plains_stone.bmp
0 19.272743 24.039759 23.377171 0.660619 0.641957 0.389197 0.481819 0.060994
0 9.230485 25.745649 37.609035 0.660619 0.641957 0.389197 0.230762 0.383686
0 20.608940 13.569475 38.379234 0.660619 0.641957 0.389197 0.515224 0.094437
plains_stone.bmp
0 0.000000 29.251572 23.377171 0.030565 0.974943 0.220347 0.000000 0.191289
0 -9.174185 25.587698 40.860847 0.030565 0.974943 0.220347 0.770645 0.443724
0 9.230485 25.745649 37.609035 0.030565 0.974943 0.220347 0.230762 0.383686
plains_stone.bmp
0 0.000000 29.251572 23.377171 -0.118150 0.982514 0.143899 0.000000 0.191289
0 -21.389025 26.679493 23.377171 -0.118150 0.982514 0.143899 0.465274 0.126987
0 -9.174185 25.587698 40.860847 -0.118150 0.982514 0.143899 0.770645 0.443724
plains_stone.bmp
0 -21.389025 26.679493 23.377171 -0.476356 0.791815 0.382249 0.465274 0.126987
0 -25.608109 16.860928 38.458187 -0.476356 0.791815 0.382249 0.359797 0.178277
0 -9.174185 25.587698 40.860847 -0.476356 0.791815 0.382249 0.770645 0.443724
plains_stone.bmp
0 -32.594208 9.597491 23.377171 -0.919719 0.240725 0.310109 0.185145 0.699937
0 -29.290108 0.000000 40.626579 -0.919719 0.240725 0.310109 0.267747 0.799422
0 -25.608109 16.860928 38.458187 -0.919719 0.240725 0.310109 0.359797 0.178277
plains_stone.bmp
0 -32.594208 9.597491 23.377171 -0.940558 -0.339521 -0.008745 0.185145 0.699937
0 -26.330969 -7.753256 23.377171 -0.940558 -0.339521 -0.008745 0.341726 0.266169
0 -29.290108 0.000000 40.626579 -0.940558 -0.339521 -0.008745 0.267747 0.799422
plains_stone.bmp
0 -26.330969 -7.753256 23.377171 -0.802174 -0.583894 0.124835 0.341726 0.266169
0 -20.354170 -13.401622 35.364063 -0.802174 -0.583894 0.124835 0.491146 0.360829
0 -29.290108 0.000000 40.626579 -0.802174 -0.583894 0.124835 0.267747 0.799422
plains_stone.bmp
0 -16.501385 -20.582918 23.377171 -0.505148 -0.802215 0.318240 0.587465 0.945427
0 -7.419202 -20.692879 37.516296 -0.505148 -0.802215 0.318240 0.814520 0.220898
0 -20.354170 -13.401622 35.364063 -0.505148 -0.802215 0.318240 0.491146 0.360829
plains_stone.bmp
0 -16.501385 -20.582918 23.377171 -0.446072 -0.850097 0.279920 0.587465 0.945427
0 0.000000 -29.241699 23.377171 -0.446072 -0.850097 0.279920 0.000000 0.728958
0 -7.419202 -20.692879 37.516296 -0.446072 -0.850097 0.279920 0.814520 0.220898
plains_stone.bmp
0 0.000000 -29.241699 23.377171 -0.143110 -0.878396 0.456003 0.000000 0.728958
0 8.533513 -23.801657 36.534420 -0.143110 -0.878396 0.456003 0.213338 0.123858
0 -7.419202 -20.692879 37.516296 -0.143110 -0.878396 0.456003 0.814520 0.220898
plains_stone.bmp
0 17.123060 -21.358362 23.377171 0.423540 -0.899233 0.109516 0.428077 0.926041
0 24.155474 -15.904608 40.960896 0.423540 -0.899233 0.109516 0.603887 0.408385
0 8.533513 -23.801657 36.534420 0.423540 -0.899233 0.109516 0.213338 0.123858
plains_stone.bmp
0 17.123060 -21.358362 23.377171 0.735669 -0.671881 -0.085833 0.428077 0.926041
0 28.866604 -8.499884 23.377171 0.735669 -0.671881 -0.085833 0.721665 0.247503
0 24.155474 -15.904608 40.960896 0.735669 -0.671881 -0.085833 0.603887 0.408385
plains_stone.bmp
0 28.866604 -8.499884 23.377171 0.963182 -0.207840 0.170537 0.721665 0.247503
0 28.312414 0.000000 36.866325 0.963182 -0.207840 0.170537 0.707810 0.725430
0 24.155474 -15.904608 40.960896 0.963182 -0.207840 0.170537 0.603887 0.408385
plains_stone.bmp
0 19.272743 24.039759 23.377171 0.260437 0.963070 0.068332 0.481819 0.060994
0 0.000000 29.251572 23.377171 0.260437 0.963070 0.068332 0.000000 0.191289
0 9.230485 25.745649 37.609035 0.260437 0.963070 0.068332 0.230762 0.383686
plains_stone.bmp
0 19.272743 24.039759 23.377171 0.234362 0.866647 -0.440451 0.481819 0.060994
0 7.261936 20.254248 9.537753 0.234362 0.866647 -0.440451 0.181548 0.694034
0 0.000000 29.251572 23.377171 0.234362 0.866647 -0.440451 0.000000 0.191289
plains_stone.bmp
0 7.261936 20.254248 9.537753 0.267469 0.865941 -0.422619 0.181548 0.694034
0 -9.048349 25.237635 9.426130 0.267469 0.865941 -0.422619 0.773791 0.816422
0 0.000000 29.251572 23.377171 0.267469 0.865941 -0.422619 0.000000 0.191289
plains_stone.bmp
0 -21.389025 26.679493 23.377171 -0.829886 0.544376 0.122248 0.465274 0.126987
0 -32.594208 9.597491 23.377171 -0.829886 0.544376 0.122248 0.185145 0.699937
0 -25.608109 16.860928 38.458187 -0.829886 0.544376 0.122248 0.359797 0.178277
plains_stone.bmp
0 -21.389025 26.679493 23.377171 -0.735005 0.482137 -0.476772 0.465274 0.126987
0 -20.424322 13.447917 8.509499 -0.735005 0.482137 -0.476772 0.489392 0.503642
0 -32.594208 9.597491 23.377171 -0.735005 0.482137 -0.476772 0.185145 0.699937
plains_stone.bmp
0 -20.424322 13.447917 8.509499 -0.783686 0.141997 -0.604709 0.489392 0.503642
0 -25.104126 0.000000 11.416572 -0.783686 0.141997 -0.604709 0.372397 0.224648
0 -32.594208 9.597491 23.377171 -0.783686 0.141997 -0.604709 0.185145 0.699937
plains_stone.bmp
0 -26.330969 -7.753256 23.377171 -0.789108 -0.604584 0.108571 0.341726 0.266169
0 -16.501385 -20.582918 23.377171 -0.789108 -0.604584 0.108571 0.587465 0.945427
0 -20.354170 -13.401622 35.364063 -0.789108 -0.604584 0.108571 0.491146 0.360829
plains_stone.bmp
0 -26.330969 -7.753256 23.377171 -0.784058 -0.600714 -0.156192 0.341726 0.266169
0 -19.564550 -12.881822 9.135361 -0.784058 -0.600714 -0.156192 0.510886 0.857714
0 -16.501385 -20.582918 23.377171 -0.784058 -0.600714 -0.156192 0.587465 0.945427
plains_stone.bmp
0 -19.564550 -12.881822 9.135361 -0.473827 -0.813237 -0.337837 0.510886 0.857714
0 -7.526093 -20.991760 11.773195 -0.473827 -0.813237 -0.337837 0.811848 0.706871
0 -16.501385 -20.582918 23.377171 -0.473827 -0.813237 -0.337837 0.587465 0.945427
plains_stone.bmp
0 0.000000 -29.241699 23.377171 0.415942 -0.903451 0.103772 0.000000 0.728958
0 17.123060 -21.358362 23.377171 0.415942 -0.903451 0.103772 0.428077 0.926041
0 8.533513 -23.801657 36.534420 0.415942 -0.903451 0.103772 0.213338 0.123858
plains_stone.bmp
0 0.000000 -29.241699 23.377171 0.418198 -0.908350 -0.003411 0.000000 0.728958
0 8.979082 -25.043535 6.265307 0.418198 -0.908350 -0.003411 0.224477 0.497196
0 17.123060 -21.358362 23.377171 0.418198 -0.908350 -0.003411 0.428077 0.926041
plains_stone.bmp
0 8.979082 -25.043535 6.265307 0.626997 -0.767566 -0.133103 0.224477 0.497196
0 22.407366 -14.753490 10.181119 0.626997 -0.767566 -0.133103 0.560184 0.831500
0 17.123060 -21.358362 23.377171 0.626997 -0.767566 -0.133103 0.428077 0.926041
plains_stone.bmp
0 28.866604 -8.499884 23.377171 0.958733 -0.221114 0.178719 0.721665 0.247503
0 33.072945 9.738458 23.377171 0.958733 -0.221114 0.178719 0.826824 0.703461
0 28.312414 0.000000 36.866325 0.958733 -0.221114 0.178719 0.707810 0.725430
plains_stone.bmp
0 28.866604 -8.499884 23.377171 0.898446 -0.207210 -0.387116 0.721665 0.247503
0 24.587841 0.000000 8.897002 0.898446 -0.207210 -0.387116 0.614696 0.175069
0 33.072945 9.738458 23.377171 0.898446 -0.207210 -0.387116 0.826824 0.703461
plains_stone.bmp
0 24.587841 0.000000 8.897002 0.776144 0.208557 -0.595068 0.614696 0.175069
0 21.916475 14.430277 10.470211 0.776144 0.208557 -0.595068 0.547912 0.566783
0 33.072945 9.738458 23.377171 0.776144 0.208557 -0.595068 0.826824 0.703461
plains_stone.bmp
0 12.126417 7.984293 0.267041 0.302021 0.648015 -0.699185 0.303160 0.204862
0 7.261936 20.254248 9.537753 0.302021 0.648015 -0.699185 0.181548 0.694034
0 21.916475 14.430277 10.470211 0.302021 0.648015 -0.699185 0.547912 0.566783
plains_stone.bmp
0 12.126417 7.984293 0.267041 0.238603 0.643872 -0.726978 0.303160 0.204862
0 -5.034485 14.042175 0.000000 0.238603 0.643872 -0.726978 0.874138 0.351054
0 7.261936 20.254248 9.537753 0.238603 0.643872 -0.726978 0.181548 0.694034
plains_stone.bmp
0 -5.034485 14.042175 0.000000 0.210388 0.672697 -0.709377 0.874138 0.351054
0 -9.048349 25.237635 9.426130 0.210388 0.672697 -0.709377 0.773791 0.816422
0 7.261936 20.254248 9.537753 0.210388 0.672697 -0.709377 0.181548 0.694034
plains_stone.bmp
0 -5.034485 14.042175 0.000000 -0.438192 0.481813 -0.758844 0.874138 0.351054
0 -20.424322 13.447917 8.509499 -0.438192 0.481813 -0.758844 0.489392 0.503642
0 -9.048349 25.237635 9.426130 -0.438192 0.481813 -0.758844 0.773791 0.816422
plains_stone.bmp
0 -5.034485 14.042175 0.000000 -0.458278 0.382963 -0.802073 0.874138 0.351054
0 -16.768929 0.000000 0.000000 -0.458278 0.382963 -0.802073 0.580777 0.000000
0 -20.424322 13.447917 8.509499 -0.458278 0.382963 -0.802073 0.489392 0.503642
plains_stone.bmp
0 -16.768929 0.000000 0.000000 -0.798289 0.151809 -0.582828 0.580777 0.000000
0 -25.104126 0.000000 11.416572 -0.798289 0.151809 -0.582828 0.372397 0.224648
0 -20.424322 13.447917 8.509499 -0.798289 0.151809 -0.582828 0.489392 0.503642
plains_stone.bmp
0 -16.768929 0.000000 0.000000 -0.784831 -0.236029 -0.573002 0.580777 0.000000
0 -19.564550 -12.881822 9.135361 -0.784831 -0.236029 -0.573002 0.510886 0.857714
0 -25.104126 0.000000 11.416572 -0.784831 -0.236029 -0.573002 0.372397 0.224648
plains_stone.bmp
0 -16.768929 0.000000 0.000000 -0.474544 -0.438339 -0.763326 0.580777 0.000000
0 -4.688776 -13.077924 0.000000 -0.474544 -0.438339 -0.763326 0.882781 0.673052
0 -19.564550 -12.881822 9.135361 -0.474544 -0.438339 -0.763326 0.510886 0.857714
plains_stone.bmp
0 -4.688776 -13.077924 0.000000 -0.364809 -0.729650 -0.578382 0.882781 0.673052
0 -7.526093 -20.991760 11.773195 -0.364809 -0.729650 -0.578382 0.811848 0.706871
0 -19.564550 -12.881822 9.135361 -0.364809 -0.729650 -0.578382 0.510886 0.857714
plains_stone.bmp
0 24.587841 0.000000 8.897002 0.641056 0.199472 -0.741120 0.614696 0.175069
0 12.126417 7.984293 0.267041 0.641056 0.199472 -0.741120 0.303160 0.204862
0 21.916475 14.430277 10.470211 0.641056 0.199472 -0.741120 0.547912 0.566783
plains_stone.bmp
0 24.587841 0.000000 8.897002 0.599315 0.073813 -0.797103 0.614696 0.175069
0 13.880199 -9.139021 0.000000 0.599315 0.073813 -0.797103 0.347005 0.771524
0 12.126417 7.984293 0.267041 0.599315 0.073813 -0.797103 0.303160 0.204862
plains_stone.bmp
0 13.880199 -9.139021 0.000000 0.011009 0.016720 -0.999800 0.347005 0.771524
0 0.000000 0.000000 0.000000 0.011009 0.016720 -0.999800 0.000000 0.000000
0 12.126417 7.984293 0.267041 0.011009 0.016720 -0.999800 0.303160 0.204862
plains_stone.bmp
0 -4.688776 -13.077924 0.000000 -0.371269 -0.726715 -0.577966 0.882781 0.673052
0 8.979082 -25.043535 6.265307 -0.371269 -0.726715 -0.577966 0.224477 0.497196
0 -7.526093 -20.991760 11.773195 -0.371269 -0.726715 -0.577966 0.811848 0.706871
plains_stone.bmp
0 -4.688776 -13.077924 0.000000 0.082109 -0.387083 -0.918382 0.882781 0.673052
0 13.880199 -9.139021 0.000000 0.082109 -0.387083 -0.918382 0.347005 0.771524
0 8.979082 -25.043535 6.265307 0.082109 -0.387083 -0.918382 0.224477 0.497196
plains_stone.bmp
0 13.880199 -9.139021 0.000000 0.548729 -0.447315 -0.706262 0.347005 0.771524
0 22.407366 -14.753490 10.181119 0.548729 -0.447315 -0.706262 0.560184 0.831500
0 8.979082 -25.043535 6.265307 0.548729 -0.447315 -0.706262 0.224477 0.497196
plains_stone.bmp
0 29.000000 8.000000 0.000000 0.000000 0.000000 -1.000000 0.725000 0.200000
0 39.575211 1.015226 0.000000 0.000000 0.000000 -1.000000 0.989380 0.025381
0 25.429447 -1.990199 0.000000 0.000000 0.000000 -1.000000 0.635736 0.950245
plains_stone.bmp
0 43.509235 -1.583140 5.153865 0.513032 -0.542568 -0.665145 0.087731 0.061836
0 39.575211 1.015226 0.000000 0.513032 -0.542568 -0.665145 0.989380 0.025381
0 49.729485 8.000000 2.134497 0.513032 -0.542568 -0.665145 0.243237 0.242001
plains_stone.bmp
0 29.000000 8.000000 0.000000 0.000000 0.000000 -1.000000 0.725000 0.200000
0 25.429447 -1.990199 0.000000 0.000000 0.000000 -1.000000 0.635736 0.950245
0 16.903515 8.000000 0.000000 0.000000 0.000000 -1.000000 0.422588 0.200000
plains_stone.bmp
0 29.000000 8.000000 0.000000 0.000000 -0.000000 -1.000000 0.725000 0.200000
0 16.903515 8.000000 0.000000 0.000000 -0.000000 -1.000000 0.422588 0.200000
0 25.372622 18.149191 0.000000 0.000000 -0.000000 -1.000000 0.634316 0.453730
plains_stone.bmp
0 29.000000 8.000000 0.000000 -0.000000 -0.000000 -1.000000 0.725000 0.200000
0 25.372622 18.149191 0.000000 -0.000000 -0.000000 -1.000000 0.634316 0.453730
0 39.521637 14.949388 0.000000 -0.000000 -0.000000 -1.000000 0.988041 0.373735
plains_stone.bmp
0 43.509235 -1.583140 5.153865 0.733123 -0.585091 -0.346696 0.087731 0.061836
0 49.729485 8.000000 2.134497 0.733123 -0.585091 -0.346696 0.243237 0.242001
0 49.625763 1.907625 12.196784 0.733123 -0.585091 -0.346696 0.240644 0.287691
plains_stone.bmp
0 23.408974 -7.643364 5.091463 -0.190423 -0.964816 -0.181297 0.585224 0.909102
0 35.244560 -9.471281 2.387845 -0.190423 -0.964816 -0.181297 0.881114 0.810204
0 29.000000 -10.081998 12.196784 -0.190423 -0.964816 -0.181297 0.725000 0.987950
plains_stone.bmp
0 10.800156 8.000000 5.049675 -0.861391 -0.150812 -0.485038 0.270004 0.299364
0 13.709706 -2.099097 3.022629 -0.861391 -0.150812 -0.485038 0.342743 0.007000
0 7.868518 1.758247 12.196784 -0.861391 -0.150812 -0.485038 0.196713 0.283956
plains_stone.bmp
0 22.938892 24.958626 4.494062 -0.607104 0.680663 -0.410027 0.573472 0.712397
0 14.889858 17.319616 3.730719 -0.607104 0.680663 -0.410027 0.372246 0.506401
0 16.399698 23.766191 12.196784 -0.607104 0.680663 -0.410027 0.409992 0.834155
plains_stone.bmp
0 43.441101 17.538136 5.186940 0.753653 0.582921 -0.303661 0.086027 0.540518
0 35.490219 26.158606 2.001958 0.753653 0.582921 -0.303661 0.887256 0.693358
0 41.523079 23.669567 12.196784 0.753653 0.582921 -0.303661 0.038077 0.831739
plains_stone.bmp
0 43.509235 -1.583140 5.153865 0.642605 -0.742213 -0.190208 0.087731 0.061836
0 49.625763 1.907625 12.196784 0.642605 -0.742213 -0.190208 0.240644 0.287691
0 40.312943 -6.155379 12.196784 0.642605 -0.742213 -0.190208 0.007824 0.086116
plains_stone.bmp
0 23.408974 -7.643364 5.091463 0.017583 -0.941368 -0.336925 0.585224 0.909102
0 29.000000 -10.081998 12.196784 0.017583 -0.941368 -0.336925 0.725000 0.987950
0 14.329924 -10.356009 12.196784 0.017583 -0.941368 -0.336925 0.358248 0.981100
plains_stone.bmp
0 10.800156 8.000000 5.049675 -0.953390 0.144433 -0.264929 0.270004 0.299364
0 7.868518 1.758247 12.196784 -0.953390 0.144433 -0.264929 0.196713 0.283956
0 9.678698 13.707067 12.196784 -0.953390 0.144433 -0.264929 0.241967 0.582677
plains_stone.bmp
0 22.938892 24.958626 4.494062 -0.464466 0.845507 -0.263416 0.573472 0.712397
0 16.399698 23.766191 12.196784 -0.464466 0.845507 -0.263416 0.409992 0.834155
0 29.000000 30.687969 12.196784 -0.464466 0.845507 -0.263416 0.725000 0.007199
plains_stone.bmp
0 43.441101 17.538136 5.186940 0.631088 0.661189 -0.405657 0.086027 0.540518
0 41.523079 23.669567 12.196784 0.631088 0.661189 -0.405657 0.038077 0.831739
0 51.100651 14.528024 12.196784 0.631088 0.661189 -0.405657 0.277516 0.603201
plains_stone.bmp
0 34.243984 -6.672361 18.861069 0.311490 -0.684617 0.658995 0.856100 0.204326
0 42.864685 -1.157496 20.515577 0.311490 -0.684617 0.658995 0.071617 0.374754
0 32.254944 -1.107144 25.582834 0.311490 -0.684617 0.658995 0.806374 0.475723
plains_stone.bmp
0 13.832820 -2.017702 19.559076 -0.375538 -0.424938 0.823650 0.345820 0.334428
0 23.396294 -7.678279 20.999077 -0.375538 -0.424938 0.823650 0.584907 0.221248
0 20.786322 2.574985 25.098948 -0.375538 -0.424938 0.823650 0.519658 0.558255
plains_stone.bmp
0 13.357571 18.331596 19.789766 -0.419980 0.324376 0.847583 0.333939 0.847699
0 9.326657 8.000000 21.746408 -0.419980 0.324376 0.847583 0.233166 0.627911
0 20.678707 13.496093 25.267990 -0.419980 0.324376 0.847583 0.516968 0.834609
plains_stone.bmp
0 34.188206 22.516296 18.790184 0.126315 0.825179 0.550567 0.854705 0.932648
0 23.662701 22.932915 20.580605 0.126315 0.825179 0.550567 0.591568 0.978294
0 32.460911 17.683428 26.429880 0.126315 0.825179 0.550567 0.811523 0.962155
plains_stone.bmp
0 51.351681 8.000000 20.974327 0.544226 0.395071 0.740093 0.283792 0.612718
0 43.937756 17.866249 21.159418 0.544226 0.395071 0.740093 0.098444 0.863017
0 41.568226 8.000000 28.168571 0.544226 0.395071 0.740093 0.039206 0.754282
plains_stone.bmp
0 41.568226 8.000000 28.168571 -0.056369 0.124846 0.990574 0.039206 0.754282
0 32.460911 17.683428 26.429880 -0.056369 0.124846 0.990574 0.811523 0.962155
0 29.000000 8.000000 27.453377 -0.056369 0.124846 0.990574 0.725000 0.740209
plains_stone.bmp
0 41.568226 8.000000 28.168571 0.359406 0.481547 0.799338 0.039206 0.754282
0 43.937756 17.866249 21.159418 0.359406 0.481547 0.799338 0.098444 0.863017
0 32.460911 17.683428 26.429880 0.359406 0.481547 0.799338 0.811523 0.962155
plains_stone.bmp
0 43.937756 17.866249 21.159418 0.243250 0.793926 0.557235 0.098444 0.863017
0 34.188206 22.516296 18.790184 0.243250 0.793926 0.557235 0.854705 0.932648
0 32.460911 17.683428 26.429880 0.243250 0.793926 0.557235 0.811523 0.962155
plains_stone.bmp
0 32.460911 17.683428 26.429880 -0.152203 0.157527 0.975715 0.811523 0.962155
0 20.678707 13.496093 25.267990 -0.152203 0.157527 0.975715 0.516968 0.834609
0 29.000000 8.000000 27.453377 -0.152203 0.157527 0.975715 0.725000 0.740209
plains_stone.bmp
0 32.460911 17.683428 26.429880 -0.257441 0.493932 0.830515 0.811523 0.962155
0 23.662701 22.932915 20.580605 -0.257441 0.493932 0.830515 0.591568 0.978294
0 20.678707 13.496093 25.267990 -0.257441 0.493932 0.830515 0.516968 0.834609
plains_stone.bmp
0 23.662701 22.932915 20.580605 -0.284882 0.497165 0.819554 0.591568 0.978294
0 13.357571 18.331596 19.789766 -0.284882 0.497165 0.819554 0.333939 0.847699
0 20.678707 13.496093 25.267990 -0.284882 0.497165 0.819554 0.516968 0.834609
plains_stone.bmp
0 20.678707 13.496093 25.267990 -0.264790 -0.017533 0.964147 0.516968 0.834609
0 20.786322 2.574985 25.098948 -0.264790 -0.017533 0.964147 0.519658 0.558255
0 29.000000 8.000000 27.453377 -0.264790 -0.017533 0.964147 0.725000 0.740209
plains_stone.bmp
0 20.678707 13.496093 25.267990 -0.288431 -0.017660 0.957338 0.516968 0.834609
0 9.326657 8.000000 21.746408 -0.288431 -0.017660 0.957338 0.233166 0.627911
0 20.786322 2.574985 25.098948 -0.288431 -0.017660 0.957338 0.519658 0.558255
plains_stone.bmp
0 9.326657 8.000000 21.746408 -0.417643 -0.369145 0.830245 0.233166 0.627911
0 13.832820 -2.017702 19.559076 -0.417643 -0.369145 0.830245 0.345820 0.334428
0 20.786322 2.574985 25.098948 -0.417643 -0.369145 0.830245 0.519658 0.558255
plains_stone.bmp
0 20.786322 2.574985 25.098948 -0.117708 -0.239989 0.963613 0.519658 0.558255
0 32.254944 -1.107144 25.582834 -0.117708 -0.239989 0.963613 0.806374 0.475723
0 29.000000 8.000000 27.453377 -0.117708 -0.239989 0.963613 0.725000 0.740209
plains_stone.bmp
0 20.786322 2.574985 25.098948 -0.167186 -0.402450 0.900046 0.519658 0.558255
0 23.396294 -7.678279 20.999077 -0.167186 -0.402450 0.900046 0.584907 0.221248
0 32.254944 -1.107144 25.582834 -0.167186 -0.402450 0.900046 0.806374 0.475723
plains_stone.bmp
0 23.396294 -7.678279 20.999077 0.197211 -0.725673 0.659171 0.584907 0.221248
0 34.243984 -6.672361 18.861069 0.197211 -0.725673 0.659171 0.856100 0.204326
0 32.254944 -1.107144 25.582834 0.197211 -0.725673 0.659171 0.806374 0.475723
plains_stone.bmp
0 32.254944 -1.107144 25.582834 -0.055423 -0.219852 0.973957 0.806374 0.475723
0 41.568226 8.000000 28.168571 -0.055423 -0.219852 0.973957 0.039206 0.754282
0 29.000000 8.000000 27.453377 -0.055423 -0.219852 0.973957 0.725000 0.740209
plains_stone.bmp
0 32.254944 -1.107144 25.582834 0.351765 -0.570453 0.742189 0.806374 0.475723
0 42.864685 -1.157496 20.515577 0.351765 -0.570453 0.742189 0.071617 0.374754
0 41.568226 8.000000 28.168571 0.351765 -0.570453 0.742189 0.039206 0.754282
plains_stone.bmp
0 42.864685 -1.157496 20.515577 0.510366 -0.507766 0.694046 0.071617 0.374754
0 51.351681 8.000000 20.974327 0.510366 -0.507766 0.694046 0.283792 0.612718
0 41.568226 8.000000 28.168571 0.510366 -0.507766 0.694046 0.039206 0.754282
plains_stone.bmp
0 51.100651 14.528024 12.196784 0.740535 0.549205 0.387275 0.277516 0.603201
0 43.937756 17.866249 21.159418 0.740535 0.549205 0.387275 0.098444 0.863017
0 51.351681 8.000000 20.974327 0.740535 0.549205 0.387275 0.283792 0.612718
plains_stone.bmp
0 51.100651 14.528024 12.196784 0.664466 0.696160 0.271747 0.277516 0.603201
0 41.523079 23.669567 12.196784 0.664466 0.696160 0.271747 0.038077 0.831739
0 43.937756 17.866249 21.159418 0.664466 0.696160 0.271747 0.098444 0.863017
plains_stone.bmp
0 41.523079 23.669567 12.196784 0.286450 0.837594 0.465169 0.038077 0.831739
0 34.188206 22.516296 18.790184 0.286450 0.837594 0.465169 0.854705 0.932648
0 43.937756 17.866249 21.159418 0.286450 0.837594 0.465169 0.098444 0.863017
plains_stone.bmp
0 29.000000 30.687969 12.196784 0.149428 0.676624 0.721007 0.725000 0.007199
0 23.662701 22.932915 20.580605 0.149428 0.676624 0.721007 0.591568 0.978294
0 34.188206 22.516296 18.790184 0.149428 0.676624 0.721007 0.854705 0.932648
plains_stone.bmp
0 29.000000 30.687969 12.196784 -0.429913 0.782607 0.450223 0.725000 0.007199
0 16.399698 23.766191 12.196784 -0.429913 0.782607 0.450223 0.409992 0.834155
0 23.662701 22.932915 20.580605 -0.429913 0.782607 0.450223 0.591568 0.978294
plains_stone.bmp
0 16.399698 23.766191 12.196784 -0.396162 0.814348 0.424139 0.409992 0.834155
0 13.357571 18.331596 19.789766 -0.396162 0.814348 0.424139 0.333939 0.847699
0 23.662701 22.932915 20.580605 -0.396162 0.814348 0.424139 0.591568 0.978294
plains_stone.bmp
0 9.678698 13.707067 12.196784 -0.899593 0.388691 0.199128 0.241967 0.582677
0 9.326657 8.000000 21.746408 -0.899593 0.388691 0.199128 0.233166 0.627911
0 13.357571 18.331596 19.789766 -0.899593 0.388691 0.199128 0.333939 0.847699
plains_stone.bmp
0 9.678698 13.707067 12.196784 -0.987329 0.149575 0.052992 0.241967 0.582677
0 7.868518 1.758247 12.196784 -0.987329 0.149575 0.052992 0.196713 0.283956
0 9.326657 8.000000 21.746408 -0.987329 0.149575 0.052992 0.233166 0.627911
plains_stone.bmp
0 7.868518 1.758247 12.196784 -0.793266 -0.447078 0.413340 0.196713 0.283956
0 13.832820 -2.017702 19.559076 -0.793266 -0.447078 0.413340 0.345820 0.334428
0 9.326657 8.000000 21.746408 -0.793266 -0.447078 0.413340 0.233166 0.627911
plains_stone.bmp
0 14.329924 -10.356009 12.196784 -0.456004 -0.604174 0.653479 0.358248 0.981100
0 23.396294 -7.678279 20.999077 -0.456004 -0.604174 0.653479 0.584907 0.221248
0 13.832820 -2.017702 19.559076 -0.456004 -0.604174 0.653479 0.345820 0.334428
plains_stone.bmp
0 14.329924 -10.356009 12.196784 0.017960 -0.961558 0.274015 0.358248 0.981100
0 29.000000 -10.081998 12.196784 0.017960 -0.961558 0.274015 0.725000 0.987950
0 23.396294 -7.678279 20.999077 0.017960 -0.961558 0.274015 0.584907 0.221248
plains_stone.bmp
0 29.000000 -10.081998 12.196784 0.154775 -0.923592 0.350746 0.725000 0.987950
0 34.243984 -6.672361 18.861069 0.154775 -0.923592 0.350746 0.856100 0.204326
0 23.396294 -7.678279 20.999077 0.154775 -0.923592 0.350746 0.584907 0.221248
plains_stone.bmp
0 40.312943 -6.155379 12.196784 0.455687 -0.817783 0.351540 0.007824 0.086116
0 42.864685 -1.157496 20.515577 0.455687 -0.817783 0.351540 0.071617 0.374754
0 34.243984 -6.672361 18.861069 0.455687 -0.817783 0.351540 0.856100 0.204326
plains_stone.bmp
0 40.312943 -6.155379 12.196784 0.634496 -0.732847 0.245662 0.007824 0.086116
0 49.625763 1.907625 12.196784 0.634496 -0.732847 0.245662 0.240644 0.287691
0 42.864685 -1.157496 20.515577 0.634496 -0.732847 0.245662 0.071617 0.374754
plains_stone.bmp
0 49.625763 1.907625 12.196784 0.687363 -0.652969 0.318062 0.240644 0.287691
0 51.351681 8.000000 20.974327 0.687363 -0.652969 0.318062 0.283792 0.612718
0 42.864685 -1.157496 20.515577 0.687363 -0.652969 0.318062 0.071617 0.374754
plains_stone.bmp
0 41.523079 23.669567 12.196784 0.401184 0.715841 0.571510 0.038077 0.831739
0 29.000000 30.687969 12.196784 0.401184 0.715841 0.571510 0.725000 0.007199
0 34.188206 22.516296 18.790184 0.401184 0.715841 0.571510 0.854705 0.932648
plains_stone.bmp
0 41.523079 23.669567 12.196784 0.487476 0.869813 -0.076105 0.038077 0.831739
0 35.490219 26.158606 2.001958 0.487476 0.869813 -0.076105 0.887256 0.693358
0 29.000000 30.687969 12.196784 0.487476 0.869813 -0.076105 0.725000 0.007199
plains_stone.bmp
0 35.490219 26.158606 2.001958 -0.179207 0.851679 -0.492471 0.887256 0.693358
0 22.938892 24.958626 4.494062 -0.179207 0.851679 -0.492471 0.573472 0.712397
0 29.000000 30.687969 12.196784 -0.179207 0.851679 -0.492471 0.725000 0.007199
plains_stone.bmp
0 16.399698 23.766191 12.196784 -0.829757 0.554402 0.064365 0.409992 0.834155
0 9.678698 13.707067 12.196784 -0.829757 0.554402 0.064365 0.241967 0.582677
0 13.357571 18.331596 19.789766 -0.829757 0.554402 0.064365 0.333939 0.847699
plains_stone.bmp
0 16.399698 23.766191 12.196784 -0.801770 0.535703 -0.264929 0.409992 0.834155
0 14.889858 17.319616 3.730719 -0.801770 0.535703 -0.264929 0.372246 0.506401
0 9.678698 13.707067 12.196784 -0.801770 0.535703 -0.264929 0.241967 0.582677
plains_stone.bmp
0 14.889858 17.319616 3.730719 -0.861340 0.322416 -0.392607 0.372246 0.506401
0 10.800156 8.000000 5.049675 -0.861340 0.322416 -0.392607 0.270004 0.299364
0 9.678698 13.707067 12.196784 -0.861340 0.322416 -0.392607 0.241967 0.582677
plains_stone.bmp
0 7.868518 1.758247 12.196784 -0.797482 -0.425355 0.427897 0.196713 0.283956
0 14.329924 -10.356009 12.196784 -0.797482 -0.425355 0.427897 0.358248 0.981100
0 13.832820 -2.017702 19.559076 -0.797482 -0.425355 0.427897 0.345820 0.334428
plains_stone.bmp
0 7.868518 1.758247 12.196784 -0.829143 -0.442242 -0.341972 0.196713 0.283956
0 13.709706 -2.099097 3.022629 -0.829143 -0.442242 -0.341972 0.342743 0.007000
0 14.329924 -10.356009 12.196784 -0.829143 -0.442242 -0.341972 0.358248 0.981100
plains_stone.bmp
0 13.709706 -2.099097 3.022629 -0.278559 -0.723155 -0.632021 0.342743 0.007000
0 23.408974 -7.643364 5.091463 -0.278559 -0.723155 -0.632021 0.585224 0.909102
0 14.329924 -10.356009 12.196784 -0.278559 -0.723155 -0.632021 0.358248 0.981100
plains_stone.bmp
0 29.000000 -10.081998 12.196784 0.319881 -0.921607 0.219812 0.725000 0.987950
0 40.312943 -6.155379 12.196784 0.319881 -0.921607 0.219812 0.007824 0.086116
0 34.243984 -6.672361 18.861069 0.319881 -0.921607 0.219812 0.856100 0.204326
plains_stone.bmp
0 29.000000 -10.081998 12.196784 0.324276 -0.934270 0.148272 0.725000 0.987950
0 35.244560 -9.471281 2.387845 0.324276 -0.934270 0.148272 0.881114 0.810204
0 40.312943 -6.155379 12.196784 0.324276 -0.934270 0.148272 0.007824 0.086116
plains_stone.bmp
0 35.244560 -9.471281 2.387845 0.707029 -0.695065 -0.130363 0.881114 0.810204
0 43.509235 -1.583140 5.153865 0.707029 -0.695065 -0.130363 0.087731 0.061836
0 40.312943 -6.155379 12.196784 0.707029 -0.695065 -0.130363 0.007824 0.086116
plains_stone.bmp
0 49.625763 1.907625 12.196784 0.986767 -0.115319 -0.113985 0.240644 0.287691
0 51.100651 14.528024 12.196784 0.986767 -0.115319 -0.113985 0.277516 0.603201
0 51.351681 8.000000 20.974327 0.986767 -0.115319 -0.113985 0.283792 0.612718
plains_stone.bmp
0 49.625763 1.907625 12.196784 0.991455 -0.115867 -0.059934 0.240644 0.287691
0 49.729485 8.000000 2.134497 0.991455 -0.115867 -0.059934 0.243237 0.242001
0 51.100651 14.528024 12.196784 0.991455 -0.115867 -0.059934 0.277516 0.603201
plains_stone.bmp
0 49.729485 8.000000 2.134497 0.660313 0.585745 -0.469988 0.243237 0.242001
0 43.441101 17.538136 5.186940 0.660313 0.585745 -0.469988 0.086027 0.540518
0 51.100651 14.528024 12.196784 0.660313 0.585745 -0.469988 0.277516 0.603201
plains_stone.bmp
0 39.521637 14.949388 0.000000 0.652484 0.354306 -0.669874 0.988041 0.373735
0 35.490219 26.158606 2.001958 0.652484 0.354306 -0.669874 0.887256 0.693358
0 43.441101 17.538136 5.186940 0.652484 0.354306 -0.669874 0.086027 0.540518
plains_stone.bmp
0 39.521637 14.949388 0.000000 0.043118 0.190661 -0.980708 0.988041 0.373735
0 25.372622 18.149191 0.000000 0.043118 0.190661 -0.980708 0.634316 0.453730
0 35.490219 26.158606 2.001958 0.043118 0.190661 -0.980708 0.887256 0.693358
plains_stone.bmp
0 25.372622 18.149191 0.000000 -0.214720 0.483365 -0.848678 0.634316 0.453730
0 22.938892 24.958626 4.494062 -0.214720 0.483365 -0.848678 0.573472 0.712397
0 35.490219 26.158606 2.001958 -0.214720 0.483365 -0.848678 0.887256 0.693358
plains_stone.bmp
0 25.372622 18.149191 0.000000 -0.332367 0.433888 -0.837421 0.634316 0.453730
0 14.889858 17.319616 3.730719 -0.332367 0.433888 -0.837421 0.372246 0.506401
0 22.938892 24.958626 4.494062 -0.332367 0.433888 -0.837421 0.573472 0.712397
plains_stone.bmp
0 25.372622 18.149191 0.000000 -0.341329 0.284826 -0.895750 0.634316 0.453730
0 16.903515 8.000000 0.000000 -0.341329 0.284826 -0.895750 0.422588 0.200000
0 14.889858 17.319616 3.730719 -0.341329 0.284826 -0.895750 0.372246 0.506401
plains_stone.bmp
0 16.903515 8.000000 0.000000 -0.628376 0.168261 -0.759495 0.422588 0.200000
0 10.800156 8.000000 5.049675 -0.628376 0.168261 -0.759495 0.270004 0.299364
0 14.889858 17.319616 3.730719 -0.628376 0.168261 -0.759495 0.372246 0.506401
plains_stone.bmp
0 16.903515 8.000000 0.000000 -0.637196 -0.028994 -0.770156 0.422588 0.200000
0 13.709706 -2.099097 3.022629 -0.637196 -0.028994 -0.770156 0.342743 0.007000
0 10.800156 8.000000 5.049675 -0.637196 -0.028994 -0.770156 0.270004 0.299364
plains_stone.bmp
0 16.903515 8.000000 0.000000 -0.242525 -0.206978 -0.947809 0.422588 0.200000
0 25.429447 -1.990199 0.000000 -0.242525 -0.206978 -0.947809 0.635736 0.950245
0 13.709706 -2.099097 3.022629 -0.242525 -0.206978 -0.947809 0.342743 0.007000
plains_stone.bmp
0 25.429447 -1.990199 0.000000 -0.190870 -0.618381 -0.762347 0.635736 0.950245
0 23.408974 -7.643364 5.091463 -0.190870 -0.618381 -0.762347 0.585224 0.909102
0 13.709706 -2.099097 3.022629 -0.190870 -0.618381 -0.762347 0.342743 0.007000
plains_stone.bmp
0 49.729485 8.000000 2.134497 0.511888 0.548947 -0.660778 0.243237 0.242001
0 39.521637 14.949388 0.000000 0.511888 0.548947 -0.660778 0.988041 0.373735
0 43.441101 17.538136 5.186940 0.511888 0.548947 -0.660778 0.086027 0.540518
plains_stone.bmp
0 49.729485 8.000000 2.134497 0.205191 0.000789 -0.978722 0.243237 0.242001
0 39.575211 1.015226 0.000000 0.205191 0.000789 -0.978722 0.989380 0.025381
0 39.521637 14.949388 0.000000 0.205191 0.000789 -0.978722 0.988041 0.373735
plains_stone.bmp
0 39.575211 1.015226 0.000000 0.000000 -0.000000 -1.000000 0.989380 0.025381
0 29.000000 8.000000 0.000000 0.000000 -0.000000 -1.000000 0.725000 0.200000
0 39.521637 14.949388 0.000000 0.000000 -0.000000 -1.000000 0.988041 0.373735
plains_stone.bmp
0 25.429447 -1.990199 0.000000 -0.265291 -0.591171 -0.761667 0.635736 0.950245
0 35.244560 -9.471281 2.387845 -0.265291 -0.591171 -0.761667 0.881114 0.810204
0 23.408974 -7.643364 5.091463 -0.265291 -0.591171 -0.761667 0.585224 0.909102
plains_stone.bmp
0 25.429447 -1.990199 0.000000 0.051385 -0.241857 -0.968950 0.635736 0.950245
0 39.575211 1.015226 0.000000 0.051385 -0.241857 -0.968950 0.989380 0.025381
0 35.244560 -9.471281 2.387845 0.051385 -0.241857 -0.968950 0.881114 0.810204
plains_stone.bmp
0 39.575211 1.015226 0.000000 0.614997 -0.407672 -0.674968 0.989380 0.025381
0 43.509235 -1.583140 5.153865 0.614997 -0.407672 -0.674968 0.087731 0.061836
0 35.244560 -9.471281 2.387845 0.614997 -0.407672 -0.674968 0.881114 0.810204
plains_stone.bmp
0 -28.000000 -8.000000 0.000000 0.000000 0.000000 -1.000000 0.300000 0.800000
0 -17.342030 -13.884968 0.000000 0.000000 0.000000 -1.000000 0.566449 0.652876
0 -31.910425 -17.146795 0.000000 0.000000 0.000000 -1.000000 0.202239 0.571330
plains_stone.bmp
0 -8.464403 -18.786890 2.310029 0.130511 -0.219286 -0.966892 0.788390 0.575783
0 -17.342030 -13.884968 0.000000 0.130511 -0.219286 -0.966892 0.566449 0.652876
0 -3.908829 -8.000000 0.478537 0.130511 -0.219286 -0.966892 0.902279 0.809416
plains_stone.bmp
0 -28.000000 -8.000000 0.000000 0.000000 0.000000 -1.000000 0.300000 0.800000
0 -31.910425 -17.146795 0.000000 0.000000 0.000000 -1.000000 0.202239 0.571330
0 -40.559902 -8.000000 0.000000 0.000000 0.000000 -1.000000 0.986002 0.800000
plains_stone.bmp
0 -28.000000 -8.000000 0.000000 0.000000 -0.000000 -1.000000 0.300000 0.800000
0 -40.559902 -8.000000 0.000000 0.000000 -0.000000 -1.000000 0.986002 0.800000
0 -31.885534 1.088570 0.000000 0.000000 -0.000000 -1.000000 0.202862 0.027214
plains_stone.bmp
0 -28.000000 -8.000000 0.000000 -0.000000 -0.000000 -1.000000 0.300000 0.800000
0 -31.885534 1.088570 0.000000 -0.000000 -0.000000 -1.000000 0.202862 0.027214
0 -16.142601 -1.452749 0.000000 -0.000000 -0.000000 -1.000000 0.596435 0.963681
plains_stone.bmp
0 -8.464403 -18.786890 2.310029 0.868313 -0.413281 -0.274282 0.788390 0.575783
0 -3.908829 -8.000000 0.478537 0.868313 -0.413281 -0.274282 0.902279 0.809416
0 -3.704824 -13.999332 10.163987 0.868313 -0.413281 -0.274282 0.907379 0.850017
plains_stone.bmp
0 -35.736427 -26.096115 2.020951 0.184369 -0.943061 -0.276849 0.106589 0.387364
0 -21.494028 -23.217438 1.699779 0.184369 -0.943061 -0.276849 0.462649 0.453011
0 -28.000000 -26.974144 10.163987 0.184369 -0.943061 -0.276849 0.300000 0.525646
plains_stone.bmp
0 -49.800159 -8.000000 3.073498 -0.676556 -0.265012 -0.687052 0.754996 0.860478
0 -44.851646 -17.304977 1.789729 -0.676556 -0.265012 -0.687052 0.878709 0.602593
0 -54.442921 -14.529686 10.163987 -0.676556 -0.265012 -0.687052 0.638927 0.836758
plains_stone.bmp
0 -34.092884 6.251737 3.750875 -0.480484 0.807234 -0.342795 0.147678 0.230101
0 -43.165936 0.374178 2.627426 -0.480484 0.807234 -0.342795 0.920852 0.061055
0 -40.552288 5.130312 10.163987 -0.480484 0.807234 -0.342795 0.986193 0.328258
plains_stone.bmp
0 -9.923809 1.981055 2.896759 0.372398 0.764998 -0.525450 0.751905 0.106527
0 -21.608618 6.949411 1.848860 0.372398 0.764998 -0.525450 0.459785 0.210116
0 -12.491540 8.222612 10.163987 0.372398 0.764998 -0.525450 0.687711 0.405565
plains_stone.bmp
0 -8.464403 -18.786890 2.310029 0.562684 -0.812184 0.154093 0.788390 0.575783
0 -3.704824 -13.999332 10.163987 0.562684 -0.812184 0.154093 0.907379 0.850017
0 -14.870011 -21.734615 10.163987 0.562684 -0.812184 0.154093 0.628250 0.656635
plains_stone.bmp
0 -35.736427 -26.096115 2.020951 -0.177146 -0.982205 0.062394 0.106589 0.387364
0 -28.000000 -26.974144 10.163987 -0.177146 -0.982205 0.062394 0.300000 0.525646
0 -43.471352 -24.183796 10.163987 -0.177146 -0.982205 0.062394 0.913216 0.595405
plains_stone.bmp
0 -49.800159 -8.000000 3.073498 -0.900754 0.308784 -0.305441 0.754996 0.860478
0 -54.442921 -14.529686 10.163987 -0.900754 0.308784 -0.305441 0.638927 0.836758
0 -50.315487 -2.489522 10.163987 -0.900754 0.308784 -0.305441 0.742113 0.137762
plains_stone.bmp
0 -34.092884 6.251737 3.750875 -0.496623 0.788743 -0.362285 0.147678 0.230101
0 -40.552288 5.130312 10.163987 -0.496623 0.788743 -0.362285 0.986193 0.328258
0 -28.000000 13.033728 10.163987 -0.496623 0.788743 -0.362285 0.300000 0.525843
plains_stone.bmp
0 -9.923809 1.981055 2.896759 0.812971 0.551623 -0.186522 0.751905 0.106527
0 -12.491540 8.222612 10.163987 0.812971 0.551623 -0.186522 0.687711 0.405565
0 -5.289282 -2.391926 10.163987 0.812971 0.551623 -0.186522 0.867768 0.140202
plains_stone.bmp
0 -20.627369 -25.245165 17.924107 0.229054 -0.419772 0.878252 0.484316 0.721569
0 -10.454591 -17.688051 18.883003 0.229054 -0.419772 0.878252 0.738635 0.929366
0 -24.253767 -16.762735 22.924187 0.229054 -0.419772 0.878252 0.393656 0.032018
plains_stone.bmp
0 -45.822720 -17.841097 17.329311 -0.208082 -0.644129 0.736071 0.854432 0.894967
0 -33.733490 -21.410606 17.623201 -0.208082 -0.644129 0.736071 0.156663 0.811512
0 -38.070934 -13.560825 23.266310 -0.208082 -0.644129 0.736071 0.048227 0.118798
plains_stone.bmp
0 -46.938789 2.457353 17.778009 -0.356376 0.165962 0.919485 0.826530 0.411257
0 -49.329189 -8.000000 18.739029 -0.356376 0.165962 0.919485 0.766770 0.168734
0 -37.418072 -2.799663 22.416931 -0.356376 0.165962 0.919485 0.064548 0.371114
plains_stone.bmp
0 -21.185112 7.940561 17.337049 -0.150206 0.731985 0.664557 0.470372 0.539661
0 -33.651669 5.219225 17.516754 -0.150206 0.731985 0.664557 0.158708 0.475163
0 -23.971413 1.423186 23.885925 -0.150206 0.731985 0.664557 0.400715 0.505591
plains_stone.bmp
0 -5.590019 -8.000000 17.452820 0.557571 0.438710 0.704732 0.860250 0.143425
0 -12.668283 0.465717 17.782930 0.557571 0.438710 0.704732 0.683293 0.361563
0 -14.429962 -8.000000 24.446819 0.557571 0.438710 0.704732 0.639251 0.281048
plains_stone.bmp
0 -14.429962 -8.000000 24.446819 0.258773 0.316345 0.912668 0.639251 0.281048
0 -23.971413 1.423186 23.885925 0.258773 0.316345 0.912668 0.400715 0.505591
0 -28.000000 -8.000000 28.294397 0.258773 0.316345 0.912668 0.300000 0.356758
plains_stone.bmp
0 -14.429962 -8.000000 24.446819 0.444924 0.494935 0.746379 0.639251 0.281048
0 -12.668283 0.465717 17.782930 0.444924 0.494935 0.746379 0.683293 0.361563
0 -23.971413 1.423186 23.885925 0.444924 0.494935 0.746379 0.400715 0.505591
plains_stone.bmp
0 -12.668283 0.465717 17.782930 0.435127 0.538812 0.721350 0.683293 0.361563
0 -21.185112 7.940561 17.337049 0.435127 0.538812 0.721350 0.470372 0.539661
0 -23.971413 1.423186 23.885925 0.435127 0.538812 0.721350 0.400715 0.505591
plains_stone.bmp
0 -23.971413 1.423186 23.885925 -0.246510 0.495142 0.833107 0.400715 0.505591
0 -37.418072 -2.799663 22.416931 -0.246510 0.495142 0.833107 0.064548 0.371114
0 -28.000000 -8.000000 28.294397 -0.246510 0.495142 0.833107 0.300000 0.356758
plains_stone.bmp
0 -23.971413 1.423186 23.885925 -0.268693 0.590996 0.760610 0.400715 0.505591
0 -33.651669 5.219225 17.516754 -0.268693 0.590996 0.760610 0.158708 0.475163
0 -37.418072 -2.799663 22.416931 -0.268693 0.590996 0.760610 0.064548 0.371114
plains_stone.bmp
0 -33.651669 5.219225 17.516754 -0.098496 0.552171 0.827892 0.158708 0.475163
0 -46.938789 2.457353 17.778009 -0.098496 0.552171 0.827892 0.826530 0.411257
0 -37.418072 -2.799663 22.416931 -0.098496 0.552171 0.827892 0.064548 0.371114
plains_stone.bmp
0 -37.418072 -2.799663 22.416931 -0.487348 0.098053 0.867685 0.064548 0.371114
0 -38.070934 -13.560825 23.266310 -0.487348 0.098053 0.867685 0.048227 0.118798
0 -28.000000 -8.000000 28.294397 -0.487348 0.098053 0.867685 0.300000 0.356758
plains_stone.bmp
0 -37.418072 -2.799663 22.416931 -0.331037 0.094191 0.938905 0.064548 0.371114
0 -49.329189 -8.000000 18.739029 -0.331037 0.094191 0.938905 0.766770 0.168734
0 -38.070934 -13.560825 23.266310 -0.331037 0.094191 0.938905 0.048227 0.118798
plains_stone.bmp
0 -49.329189 -8.000000 18.739029 -0.476543 -0.288747 0.830381 0.766770 0.168734
0 -45.822720 -17.841097 17.329311 -0.476543 -0.288747 0.830381 0.854432 0.894967
0 -38.070934 -13.560825 23.266310 -0.476543 -0.288747 0.830381 0.048227 0.118798
plains_stone.bmp
0 -38.070934 -13.560825 23.266310 -0.107573 -0.552523 0.826527 0.048227 0.118798
0 -24.253767 -16.762735 22.924187 -0.107573 -0.552523 0.826527 0.393656 0.032018
0 -28.000000 -8.000000 28.294397 -0.107573 -0.552523 0.826527 0.300000 0.356758
plains_stone.bmp
0 -38.070934 -13.560825 23.266310 -0.125472 -0.623872 0.771389 0.048227 0.118798
0 -33.733490 -21.410606 17.623201 -0.125472 -0.623872 0.771389 0.156663 0.811512
0 -24.253767 -16.762735 22.924187 -0.125472 -0.623872 0.771389 0.393656 0.032018
plains_stone.bmp
0 -33.733490 -21.410606 17.623201 -0.181227 -0.555745 0.811360 0.156663 0.811512
0 -20.627369 -25.245165 17.924107 -0.181227 -0.555745 0.811360 0.484316 0.721569
0 -24.253767 -16.762735 22.924187 -0.181227 -0.555745 0.811360 0.393656 0.032018
plains_stone.bmp
0 -24.253767 -16.762735 22.924187 0.246590 -0.427570 0.869699 0.393656 0.032018
0 -14.429962 -8.000000 24.446819 0.246590 -0.427570 0.869699 0.639251 0.281048
0 -28.000000 -8.000000 28.294397 0.246590 -0.427570 0.869699 0.300000 0.356758
plains_stone.bmp
0 -24.253767 -16.762735 22.924187 0.230592 -0.411713 0.881658 0.393656 0.032018
0 -10.454591 -17.688051 18.883003 0.230592 -0.411713 0.881658 0.738635 0.929366
0 -14.429962 -8.000000 24.446819 0.230592 -0.411713 0.881658 0.639251 0.281048
plains_stone.bmp
0 -10.454591 -17.688051 18.883003 0.608909 -0.192132 0.769620 0.738635 0.929366
0 -5.590019 -8.000000 17.452820 0.608909 -0.192132 0.769620 0.860250 0.143425
0 -14.429962 -8.000000 24.446819 0.608909 -0.192132 0.769620 0.639251 0.281048
plains_stone.bmp
0 -5.289282 -2.391926 10.163987 0.690371 0.559334 0.458840 0.867768 0.140202
0 -12.668283 0.465717 17.782930 0.690371 0.559334 0.458840 0.683293 0.361563
0 -5.590019 -8.000000 17.452820 0.690371 0.559334 0.458840 0.860250 0.143425
plains_stone.bmp
0 -5.289282 -2.391926 10.163987 0.712432 0.483405 0.508685 0.867768 0.140202
0 -12.491540 8.222612 10.163987 0.712432 0.483405 0.508685 0.687711 0.405565
0 -12.668283 0.465717 17.782930 0.712432 0.483405 0.508685 0.683293 0.361563
plains_stone.bmp
0 -12.491540 8.222612 10.163987 0.496167 0.602616 0.625037 0.687711 0.405565
0 -21.185112 7.940561 17.337049 0.496167 0.602616 0.625037 0.470372 0.539661
0 -12.668283 0.465717 17.782930 0.496167 0.602616 0.625037 0.683293 0.361563
plains_stone.bmp
0 -28.000000 13.033728 10.163987 -0.150444 0.732996 0.663388 0.300000 0.525843
0 -33.651669 5.219225 17.516754 -0.150444 0.732996 0.663388 0.158708 0.475163
0 -21.185112 7.940561 17.337049 -0.150444 0.732996 0.663388 0.470372 0.539661
plains_stone.bmp
0 -28.000000 13.033728 10.163987 -0.478500 0.759959 0.439886 0.300000 0.525843
0 -40.552288 5.130312 10.163987 -0.478500 0.759959 0.439886 0.986193 0.328258
0 -33.651669 5.219225 17.516754 -0.478500 0.759959 0.439886 0.158708 0.475163
plains_stone.bmp
0 -40.552288 5.130312 10.163987 -0.197160 0.964920 0.173368 0.986193 0.328258
0 -46.938789 2.457353 17.778009 -0.197160 0.964920 0.173368 0.826530 0.411257
0 -33.651669 5.219225 17.516754 -0.197160 0.964920 0.173368 0.158708 0.475163
plains_stone.bmp
0 -50.315487 -2.489522 10.163987 -0.935733 0.237831 0.260462 0.742113 0.137762
0 -49.329189 -8.000000 18.739029 -0.935733 0.237831 0.260462 0.766770 0.168734
0 -46.938789 2.457353 17.778009 -0.935733 0.237831 0.260462 0.826530 0.411257
plains_stone.bmp
0 -50.315487 -2.489522 10.163987 -0.901688 0.309104 0.302347 0.742113 0.137762
0 -54.442921 -14.529686 10.163987 -0.901688 0.309104 0.302347 0.638927 0.836758
0 -49.329189 -8.000000 18.739029 -0.901688 0.309104 0.302347 0.766770 0.168734
plains_stone.bmp
0 -54.442921 -14.529686 10.163987 -0.675071 -0.334713 0.657455 0.638927 0.836758
0 -45.822720 -17.841097 17.329311 -0.675071 -0.334713 0.657455 0.854432 0.894967
0 -49.329189 -8.000000 18.739029 -0.675071 -0.334713 0.657455 0.766770 0.168734
plains_stone.bmp
0 -43.471352 -24.183796 10.163987 -0.240305 -0.764632 0.597989 0.913216 0.595405
0 -33.733490 -21.410606 17.623201 -0.240305 -0.764632 0.597989 0.156663 0.811512
0 -45.822720 -17.841097 17.329311 -0.240305 -0.764632 0.597989 0.854432 0.894967
plains_stone.bmp
0 -43.471352 -24.183796 10.163987 -0.152360 -0.844775 0.512974 0.913216 0.595405
0 -28.000000 -26.974144 10.163987 -0.152360 -0.844775 0.512974 0.300000 0.525646
0 -33.733490 -21.410606 17.623201 -0.152360 -0.844775 0.512974 0.156663 0.811512
plains_stone.bmp
0 -28.000000 -26.974144 10.163987 -0.261472 -0.859169 0.439842 0.300000 0.525646
0 -20.627369 -25.245165 17.924107 -0.261472 -0.859169 0.439842 0.484316 0.721569
0 -33.733490 -21.410606 17.623201 -0.261472 -0.859169 0.439842 0.156663 0.811512
plains_stone.bmp
0 -14.870011 -21.734615 10.163987 0.590173 -0.803859 0.074206 0.628250 0.656635
0 -10.454591 -17.688051 18.883003 0.590173 -0.803859 0.074206 0.738635 0.929366
0 -20.627369 -25.245165 17.924107 0.590173 -0.803859 0.074206 0.484316 0.721569
plains_stone.bmp
0 -14.870011 -21.734615 10.163987 0.567033 -0.818462 0.092702 0.628250 0.656635
0 -3.704824 -13.999332 10.163987 0.567033 -0.818462 0.092702 0.907379 0.850017
0 -10.454591 -17.688051 18.883003 0.567033 -0.818462 0.092702 0.738635 0.929366
plains_stone.bmp
0 -3.704824 -13.999332 10.163987 0.808429 -0.334427 0.484355 0.907379 0.850017
0 -5.590019 -8.000000 17.452820 0.808429 -0.334427 0.484355 0.860250 0.143425
0 -10.454591 -17.688051 18.883003 0.808429 -0.334427 0.484355 0.738635 0.929366
plains_stone.bmp
0 -12.491540 8.222612 10.163987 0.275419 0.887804 0.368711 0.687711 0.405565
0 -28.000000 13.033728 10.163987 0.275419 0.887804 0.368711 0.300000 0.525843
0 -21.185112 7.940561 17.337049 0.275419 0.887804 0.368711 0.470372 0.539661
plains_stone.bmp
0 -12.491540 8.222612 10.163987 0.268039 0.864014 -0.426187 0.687711 0.405565
0 -21.608618 6.949411 1.848860 0.268039 0.864014 -0.426187 0.459785 0.210116
0 -28.000000 13.033728 10.163987 0.268039 0.864014 -0.426187 0.300000 0.525843
plains_stone.bmp
0 -21.608618 6.949411 1.848860 -0.141064 0.744157 -0.652940 0.459785 0.210116
0 -34.092884 6.251737 3.750875 -0.141064 0.744157 -0.652940 0.147678 0.230101
0 -28.000000 13.033728 10.163987 -0.141064 0.744157 -0.652940 0.300000 0.525843
plains_stone.bmp
0 -40.552288 5.130312 10.163987 -0.598363 0.766675 -0.232749 0.986193 0.328258
0 -50.315487 -2.489522 10.163987 -0.598363 0.766675 -0.232749 0.742113 0.137762
0 -46.938789 2.457353 17.778009 -0.598363 0.766675 -0.232749 0.826530 0.411257
plains_stone.bmp
0 -40.552288 5.130312 10.163987 -0.591835 0.758311 -0.273305 0.986193 0.328258
0 -43.165936 0.374178 2.627426 -0.591835 0.758311 -0.273305 0.920852 0.061055
0 -50.315487 -2.489522 10.163987 -0.591835 0.758311 -0.273305 0.742113 0.137762
plains_stone.bmp
0 -43.165936 0.374178 2.627426 -0.705346 0.533957 -0.466236 0.920852 0.061055
0 -49.800159 -8.000000 3.073498 -0.705346 0.533957 -0.466236 0.754996 0.860478
0 -50.315487 -2.489522 10.163987 -0.705346 0.533957 -0.466236 0.742113 0.137762
plains_stone.bmp
0 -54.442921 -14.529686 10.163987 -0.602912 -0.685189 0.408674 0.638927 0.836758
0 -43.471352 -24.183796 10.163987 -0.602912 -0.685189 0.408674 0.913216 0.595405
0 -45.822720 -17.841097 17.329311 -0.602912 -0.685189 0.408674 0.854432 0.894967
plains_stone.bmp
0 -54.442921 -14.529686 10.163987 -0.589005 -0.669385 -0.452765 0.638927 0.836758
0 -44.851646 -17.304977 1.789729 -0.589005 -0.669385 -0.452765 0.878709 0.602593
0 -43.471352 -24.183796 10.163987 -0.589005 -0.669385 -0.452765 0.913216 0.595405
plains_stone.bmp
0 -44.851646 -17.304977 1.789729 -0.619389 -0.653660 -0.434841 0.878709 0.602593
0 -35.736427 -26.096115 2.020951 -0.619389 -0.653660 -0.434841 0.106589 0.387364
0 -43.471352 -24.183796 10.163987 -0.619389 -0.653660 -0.434841 0.913216 0.595405
plains_stone.bmp
0 -28.000000 -26.974144 10.163987 0.366785 -0.919143 -0.143682 0.300000 0.525646
0 -14.870011 -21.734615 10.163987 0.366785 -0.919143 -0.143682 0.628250 0.656635
0 -20.627369 -25.245165 17.924107 0.366785 -0.919143 -0.143682 0.484316 0.721569
plains_stone.bmp
0 -28.000000 -26.974144 10.163987 0.367661 -0.921340 -0.126321 0.300000 0.525646
0 -21.494028 -23.217438 1.699779 0.367661 -0.921340 -0.126321 0.462649 0.453011
0 -14.870011 -21.734615 10.163987 0.367661 -0.921340 -0.126321 0.628250 0.656635
plains_stone.bmp
0 -21.494028 -23.217438 1.699779 0.324388 -0.941739 -0.088883 0.462649 0.453011
0 -8.464403 -18.786890 2.310029 0.324388 -0.941739 -0.088883 0.788390 0.575783
0 -14.870011 -21.734615 10.163987 0.324388 -0.941739 -0.088883 0.628250 0.656635
plains_stone.bmp
0 -3.704824 -13.999332 10.163987 0.980565 0.133851 0.143444 0.907379 0.850017
0 -5.289282 -2.391926 10.163987 0.980565 0.133851 0.143444 0.867768 0.140202
0 -5.590019 -8.000000 17.452820 0.980565 0.133851 0.143444 0.860250 0.143425
plains_stone.bmp
0 -3.704824 -13.999332 10.163987 0.988857 0.134983 0.062782 0.907379 0.850017
0 -3.908829 -8.000000 0.478537 0.988857 0.134983 0.062782 0.902279 0.809416
0 -5.289282 -2.391926 10.163987 0.988857 0.134983 0.062782 0.867768 0.140202
plains_stone.bmp
0 -3.908829 -8.000000 0.478537 0.818048 0.540574 -0.196408 0.902279 0.809416
0 -9.923809 1.981055 2.896759 0.818048 0.540574 -0.196408 0.751905 0.106527
0 -5.289282 -2.391926 10.163987 0.818048 0.540574 -0.196408 0.867768 0.140202
plains_stone.bmp
0 -16.142601 -1.452749 0.000000 0.230069 0.349526 -0.908240 0.596435 0.963681
0 -21.608618 6.949411 1.848860 0.230069 0.349526 -0.908240 0.459785 0.210116
0 -9.923809 1.981055 2.896759 0.230069 0.349526 -0.908240 0.751905 0.106527
plains_stone.bmp
0 -16.142601 -1.452749 0.000000 0.038513 0.238578 -0.970359 0.596435 0.963681
0 -31.885534 1.088570 0.000000 0.038513 0.238578 -0.970359 0.202862 0.027214
0 -21.608618 6.949411 1.848860 0.038513 0.238578 -0.970359 0.459785 0.210116
plains_stone.bmp
0 -31.885534 1.088570 0.000000 -0.156352 0.535894 -0.829682 0.202862 0.027214
0 -34.092884 6.251737 3.750875 -0.156352 0.535894 -0.829682 0.147678 0.230101
0 -21.608618 6.949411 1.848860 -0.156352 0.535894 -0.829682 0.459785 0.210116
plains_stone.bmp
0 -31.885534 1.088570 0.000000 -0.225819 0.507529 -0.831517 0.202862 0.027214
0 -43.165936 0.374178 2.627426 -0.225819 0.507529 -0.831517 0.920852 0.061055
0 -34.092884 6.251737 3.750875 -0.225819 0.507529 -0.831517 0.147678 0.230101
plains_stone.bmp
0 -31.885534 1.088570 0.000000 -0.234515 0.223828 -0.945993 0.202862 0.027214
0 -40.559902 -8.000000 0.000000 -0.234515 0.223828 -0.945993 0.986002 0.800000
0 -43.165936 0.374178 2.627426 -0.234515 0.223828 -0.945993 0.920852 0.061055
plains_stone.bmp
0 -40.559902 -8.000000 0.000000 -0.309520 0.195641 -0.930549 0.986002 0.800000
0 -49.800159 -8.000000 3.073498 -0.309520 0.195641 -0.930549 0.754996 0.860478
0 -43.165936 0.374178 2.627426 -0.309520 0.195641 -0.930549 0.920852 0.061055
plains_stone.bmp
0 -40.559902 -8.000000 0.000000 -0.315404 -0.036911 -0.948239 0.986002 0.800000
0 -44.851646 -17.304977 1.789729 -0.315404 -0.036911 -0.948239 0.878709 0.602593
0 -49.800159 -8.000000 3.073498 -0.315404 -0.036911 -0.948239 0.754996 0.860478
plains_stone.bmp
0 -40.559902 -8.000000 0.000000 -0.134359 -0.127053 -0.982754 0.986002 0.800000
0 -31.910425 -17.146795 0.000000 -0.134359 -0.127053 -0.982754 0.202239 0.571330
0 -44.851646 -17.304977 1.789729 -0.134359 -0.127053 -0.982754 0.878709 0.602593
plains_stone.bmp
0 -31.910425 -17.146795 0.000000 -0.133178 -0.163796 -0.977463 0.202239 0.571330
0 -35.736427 -26.096115 2.020951 -0.133178 -0.163796 -0.977463 0.106589 0.387364
0 -44.851646 -17.304977 1.789729 -0.133178 -0.163796 -0.977463 0.878709 0.602593
plains_stone.bmp
0 -3.908829 -8.000000 0.478537 0.225916 0.355853 -0.906825 0.902279 0.809416
0 -16.142601 -1.452749 0.000000 0.225916 0.355853 -0.906825 0.596435 0.963681
0 -9.923809 1.981055 2.896759 0.225916 0.355853 -0.906825 0.751905 0.106527
plains_stone.bmp
0 -3.908829 -8.000000 0.478537 0.037170 -0.003586 -0.999303 0.902279 0.809416
0 -17.342030 -13.884968 0.000000 0.037170 -0.003586 -0.999303 0.566449 0.652876
0 -16.142601 -1.452749 0.000000 0.037170 -0.003586 -0.999303 0.596435 0.963681
plains_stone.bmp
0 -17.342030 -13.884968 0.000000 0.000000 -0.000000 -1.000000 0.566449 0.652876
0 -28.000000 -8.000000 0.000000 0.000000 -0.000000 -1.000000 0.300000 0.800000
0 -16.142601 -1.452749 0.000000 0.000000 -0.000000 -1.000000 0.596435 0.963681
plains_stone.bmp
0 -31.910425 -17.146795 0.000000 0.024590 -0.230200 -0.972833 0.202239 0.571330
0 -21.494028 -23.217438 1.699779 0.024590 -0.230200 -0.972833 0.462649 0.453011
0 -35.736427 -26.096115 2.020951 0.024590 -0.230200 -0.972833 0.106589 0.387364
plains_stone.bmp
0 -31.910425 -17.146795 0.000000 0.044349 -0.198075 -0.979183 0.202239 0.571330
0 -17.342030 -13.884968 0.000000 0.044349 -0.198075 -0.979183 0.566449 0.652876
0 -21.494028 -23.217438 1.699779 0.044349 -0.198075 -0.979183 0.462649 0.453011
plains_stone.bmp
0 -17.342030 -13.884968 0.000000 0.123684 -0.230808 -0.965106 0.566449 0.652876
0 -8.464403 -18.786890 2.310029 0.123684 -0.230808 -0.965106 0.788390 0.575783
0 -21.494028 -23.217438 1.699779 0.123684 -0.230808 -0.965106 0.462649 0.453011
plains_stone.bmp
0 7.000000 -25.000000 0.000000 0.000000 0.000000 -1.000000 0.175000 0.375000
0 16.114902 -31.622288 0.000000 0.000000 0.000000 -1.000000 0.402873 0.209443
0 4.249866 -33.464188 0.000000 0.000000 0.000000 -1.000000 0.106247 0.163395
plains_stone.bmp
0 19.666418 -34.202583 3.703496 0.473995 -0.441264 -0.761981 0.491660 0.217810
0 16.114902 -31.622288 0.000000 0.473995 -0.441264 -0.761981 0.402873 0.209443
0 24.732893 -25.000000 1.525899 0.473995 -0.441264 -0.761981 0.618322 0.405026
plains_stone.bmp
0 7.000000 -25.000000 0.000000 0.000000 0.000000 -1.000000 0.175000 0.375000
0 4.249866 -33.464188 0.000000 0.000000 0.000000 -1.000000 0.106247 0.163395
0 -2.249816 -25.000000 0.000000 0.000000 0.000000 -1.000000 0.943755 0.375000
plains_stone.bmp
0 7.000000 -25.000000 0.000000 0.000000 -0.000000 -1.000000 0.175000 0.375000
0 -2.249816 -25.000000 0.000000 0.000000 -0.000000 -1.000000 0.943755 0.375000
0 3.897143 -15.450227 0.000000 0.000000 -0.000000 -1.000000 0.097429 0.613744
plains_stone.bmp
0 7.000000 -25.000000 0.000000 -0.000000 -0.000000 -1.000000 0.175000 0.375000
0 3.897143 -15.450227 0.000000 -0.000000 -0.000000 -1.000000 0.097429 0.613744
0 15.999247 -18.461742 0.000000 -0.000000 -0.000000 -1.000000 0.399981 0.538456
plains_stone.bmp
0 19.666418 -34.202583 3.703496 0.773970 -0.513715 -0.370227 0.491660 0.217810
0 24.732893 -25.000000 1.525899 0.773970 -0.513715 -0.370227 0.618322 0.405026
0 24.586113 -30.713985 9.147589 0.773970 -0.513715 -0.370227 0.614653 0.412150
plains_stone.bmp
0 1.330861 -42.448112 2.768291 0.156170 -0.855616 -0.493490 0.033272 0.993270
0 11.946084 -40.222191 2.268271 0.156170 -0.855616 -0.493490 0.298652 0.039079
0 7.000000 -45.092728 9.147589 0.156170 -0.855616 -0.493490 0.175000 0.052682
plains_stone.bmp
0 -7.467369 -25.000000 4.117034 -0.875867 0.040614 -0.480841 0.813316 0.456012
0 -6.695936 -34.950642 1.871374 -0.875867 0.040614 -0.480841 0.832602 0.163058
0 -10.492638 -30.683615 9.147589 -0.875867 0.040614 -0.480841 0.737684 0.412910
plains_stone.bmp
0 1.778326 -8.929069 3.271809 -0.536081 0.747671 -0.391926 0.044458 0.841154
0 -6.295322 -15.340421 2.084207 -0.536081 0.747671 -0.391926 0.842617 0.657501
0 -3.936820 -9.946774 9.147589 -0.536081 0.747671 -0.391926 0.901579 0.931331
plains_stone.bmp
0 18.743687 -16.467813 4.100091 0.568513 0.480264 -0.667937 0.468592 0.668983
0 11.753859 -10.369408 2.535630 0.568513 0.480264 -0.667937 0.293846 0.790659
0 18.504761 -9.165071 9.147589 0.568513 0.480264 -0.667937 0.462619 0.950873
plains_stone.bmp
0 19.666418 -34.202583 3.703496 0.772849 -0.518143 -0.366377 0.491660 0.217810
0 24.586113 -30.713985 9.147589 0.772849 -0.518143 -0.366377 0.614653 0.412150
0 18.138594 -40.330944 9.147589 0.772849 -0.518143 -0.366377 0.453465 0.171726
plains_stone.bmp
0 1.330861 -42.448112 2.768291 -0.433190 -0.901231 0.011350 0.033272 0.993270
0 7.000000 -45.092728 9.147589 -0.433190 -0.901231 0.011350 0.175000 0.052682
0 -3.819728 -39.892063 9.147589 -0.433190 -0.901231 0.011350 0.904507 0.182698
plains_stone.bmp
0 -7.467369 -25.000000 4.117034 -0.801745 -0.095452 -0.589996 0.813316 0.456012
0 -10.492638 -30.683615 9.147589 -0.801745 -0.095452 -0.589996 0.737684 0.412910
0 -11.900425 -18.858974 9.147589 -0.801745 -0.095452 -0.589996 0.702489 0.708526
plains_stone.bmp
0 1.778326 -8.929069 3.271809 -0.418872 0.871050 -0.256552 0.044458 0.841154
0 -3.936820 -9.946774 9.147589 -0.418872 0.871050 -0.256552 0.901579 0.931331
0 7.000000 -4.687456 9.147589 -0.418872 0.871050 -0.256552 0.175000 0.062814
plains_stone.bmp
0 18.743687 -16.467813 4.100091 0.510604 0.500118 -0.699403 0.468592 0.668983
0 18.504761 -9.165071 9.147589 0.510604 0.500118 -0.699403 0.462619 0.950873
0 27.492815 -18.341585 9.147589 0.510604 0.500118 -0.699403 0.687320 0.721460
plains_stone.bmp
0 12.546264 -42.069935 15.388618 0.320313 -0.553799 0.768574 0.313657 0.251058
0 21.170380 -35.295345 16.675859 0.320313 -0.553799 0.768574 0.529260 0.445753
0 10.322617 -35.226135 21.246677 0.320313 -0.553799 0.768574 0.258065 0.537424
plains_stone.bmp
0 -5.586623 -34.144608 14.557384 -0.429001 -0.638497 0.638967 0.860334 0.432835
0 2.523549 -38.776836 15.373712 -0.429001 -0.638497 0.638967 0.063089 0.333092
0 -1.248227 -30.992617 20.619848 -0.429001 -0.638497 0.638967 0.968794 0.630928
plains_stone.bmp
0 -8.302538 -13.882186 15.724699 -0.362727 0.133113 0.922340 0.792437 0.962365
0 -10.251977 -25.000000 16.562578 -0.362727 0.133113 0.922340 0.743701 0.700907
0 -0.517024 -19.538626 19.602835 -0.362727 0.133113 0.922340 0.987074 0.897266
plains_stone.bmp
0 12.699620 -7.458077 15.561185 -0.000038 0.348798 0.937198 0.317490 0.119750
0 1.897314 -9.295846 16.244717 -0.000038 0.348798 0.937198 0.047433 0.087256
0 9.703656 -16.678860 18.992773 -0.000038 0.348798 0.937198 0.242591 0.956755
plains_stone.bmp
0 23.388950 -25.000000 14.846311 0.792286 0.227871 0.566001 0.584724 0.667136
0 19.880163 -15.642050 15.990408 0.792286 0.227871 0.566001 0.497004 0.923597
0 18.342400 -25.000000 21.910448 0.792286 0.227871 0.566001 0.458560 0.806139
plains_stone.bmp
0 18.342400 -25.000000 21.910448 -0.125360 0.209852 0.969663 0.458560 0.806139
0 9.703656 -16.678860 18.992773 -0.125360 0.209852 0.969663 0.242591 0.956755
0 7.000000 -25.000000 20.444075 -0.125360 0.209852 0.969663 0.175000 0.777285
plains_stone.bmp
0 18.342400 -25.000000 21.910448 0.197631 0.500679 0.842771 0.458560 0.806139
0 19.880163 -15.642050 15.990408 0.197631 0.500679 0.842771 0.497004 0.923597
0 9.703656 -16.678860 18.992773 0.197631 0.500679 0.842771 0.242591 0.956755
plains_stone.bmp
0 19.880163 -15.642050 15.990408 0.247712 0.266197 0.931546 0.497004 0.923597
0 12.699620 -7.458077 15.561185 0.247712 0.266197 0.931546 0.317490 0.119750
0 9.703656 -16.678860 18.992773 0.247712 0.266197 0.931546 0.242591 0.956755
plains_stone.bmp
0 9.703656 -16.678860 18.992773 0.011806 0.168082 0.985702 0.242591 0.956755
0 -0.517024 -19.538626 19.602835 0.011806 0.168082 0.985702 0.987074 0.897266
0 7.000000 -25.000000 20.444075 0.011806 0.168082 0.985702 0.175000 0.777285
plains_stone.bmp
0 9.703656 -16.678860 18.992773 -0.032504 0.318282 0.947439 0.242591 0.956755
0 1.897314 -9.295846 16.244717 -0.032504 0.318282 0.947439 0.047433 0.087256
0 -0.517024 -19.538626 19.602835 -0.032504 0.318282 0.947439 0.987074 0.897266
plains_stone.bmp
0 1.897314 -9.295846 16.244717 -0.203114 0.347943 0.915249 0.047433 0.087256
0 -8.302538 -13.882186 15.724699 -0.203114 0.347943 0.915249 0.792437 0.962365
0 -0.517024 -19.538626 19.602835 -0.203114 0.347943 0.915249 0.987074 0.897266
plains_stone.bmp
0 -0.517024 -19.538626 19.602835 -0.045065 0.091207 0.994812 0.987074 0.897266
0 -1.248227 -30.992617 20.619848 -0.045065 0.091207 0.994812 0.968794 0.630928
0 7.000000 -25.000000 20.444075 -0.045065 0.091207 0.994812 0.175000 0.777285
plains_stone.bmp
0 -0.517024 -19.538626 19.602835 -0.349645 0.104984 0.930982 0.987074 0.897266
0 -10.251977 -25.000000 16.562578 -0.349645 0.104984 0.930982 0.743701 0.700907
0 -1.248227 -30.992617 20.619848 -0.349645 0.104984 0.930982 0.968794 0.630928
plains_stone.bmp
0 -10.251977 -25.000000 16.562578 -0.598413 -0.450564 0.662491 0.743701 0.700907
0 -5.586623 -34.144608 14.557384 -0.598413 -0.450564 0.662491 0.860334 0.432835
0 -1.248227 -30.992617 20.619848 -0.598413 -0.450564 0.662491 0.968794 0.630928
plains_stone.bmp
0 -1.248227 -30.992617 20.619848 -0.028811 0.068905 0.997207 0.968794 0.630928
0 10.322617 -35.226135 21.246677 -0.028811 0.068905 0.997207 0.258065 0.537424
0 7.000000 -25.000000 20.444075 -0.028811 0.068905 0.997207 0.175000 0.777285
plains_stone.bmp
0 -1.248227 -30.992617 20.619848 -0.268191 -0.624380 0.733637 0.968794 0.630928
0 2.523549 -38.776836 15.373712 -0.268191 -0.624380 0.733637 0.063089 0.333092
0 10.322617 -35.226135 21.246677 -0.268191 -0.624380 0.733637 0.258065 0.537424
plains_stone.bmp
0 2.523549 -38.776836 15.373712 -0.222728 -0.674699 0.703686 0.063089 0.333092
0 12.546264 -42.069935 15.388618 -0.222728 -0.674699 0.703686 0.313657 0.251058
0 10.322617 -35.226135 21.246677 -0.222728 -0.674699 0.703686 0.258065 0.537424
plains_stone.bmp
0 10.322617 -35.226135 21.246677 -0.128132 0.036155 0.991098 0.258065 0.537424
0 18.342400 -25.000000 21.910448 -0.128132 0.036155 0.991098 0.458560 0.806139
0 7.000000 -25.000000 20.444075 -0.128132 0.036155 0.991098 0.175000 0.777285
plains_stone.bmp
0 10.322617 -35.226135 21.246677 0.363163 -0.341088 0.867048 0.258065 0.537424
0 21.170380 -35.295345 16.675859 0.363163 -0.341088 0.867048 0.529260 0.445753
0 18.342400 -25.000000 21.910448 0.363163 -0.341088 0.867048 0.458560 0.806139
plains_stone.bmp
0 21.170380 -35.295345 16.675859 0.811590 -0.071859 0.579792 0.529260 0.445753
0 23.388950 -25.000000 14.846311 0.811590 -0.071859 0.579792 0.584724 0.667136
0 18.342400 -25.000000 21.910448 0.811590 -0.071859 0.579792 0.458560 0.806139
plains_stone.bmp
0 27.492815 -18.341585 9.147589 0.691693 0.173648 0.701005 0.687320 0.721460
0 19.880163 -15.642050 15.990408 0.691693 0.173648 0.701005 0.497004 0.923597
0 23.388950 -25.000000 14.846311 0.691693 0.173648 0.701005 0.584724 0.667136
plains_stone.bmp
0 27.492815 -18.341585 9.147589 0.634162 0.621138 0.460464 0.687320 0.721460
0 18.504761 -9.165071 9.147589 0.634162 0.621138 0.460464 0.462619 0.950873
0 19.880163 -15.642050 15.990408 0.634162 0.621138 0.460464 0.497004 0.923597
plains_stone.bmp
0 18.504761 -9.165071 9.147589 0.663620 0.605307 0.439558 0.462619 0.950873
0 12.699620 -7.458077 15.561185 0.663620 0.605307 0.439558 0.317490 0.119750
0 19.880163 -15.642050 15.990408 0.663620 0.605307 0.439558 0.497004 0.923597
plains_stone.bmp
0 7.000000 -4.687456 9.147589 -0.117529 0.869359 0.480002 0.175000 0.062814
0 1.897314 -9.295846 16.244717 -0.117529 0.869359 0.480002 0.047433 0.087256
0 12.699620 -7.458077 15.561185 -0.117529 0.869359 0.480002 0.317490 0.119750
plains_stone.bmp
0 7.000000 -4.687456 9.147589 -0.418014 0.869265 0.263898 0.175000 0.062814
0 -3.936820 -9.946774 9.147589 -0.418014 0.869265 0.263898 0.901579 0.931331
0 1.897314 -9.295846 16.244717 -0.418014 0.869265 0.263898 0.047433 0.087256
plains_stone.bmp
0 -3.936820 -9.946774 9.147589 -0.407362 0.877112 0.254423 0.901579 0.931331
0 -8.302538 -13.882186 15.724699 -0.407362 0.877112 0.254423 0.792437 0.962365
0 1.897314 -9.295846 16.244717 -0.407362 0.877112 0.254423 0.047433 0.087256
plains_stone.bmp
0 -11.900425 -18.858974 9.147589 -0.914534 0.187375 0.358495 0.702489 0.708526
0 -10.251977 -25.000000 16.562578 -0.914534 0.187375 0.358495 0.743701 0.700907
0 -8.302538 -13.882186 15.724699 -0.914534 0.187375 0.358495 0.792437 0.962365
plains_stone.bmp
0 -11.900425 -18.858974 9.147589 -0.985579 -0.117338 0.121928 0.702489 0.708526
0 -10.492638 -30.683615 9.147589 -0.985579 -0.117338 0.121928 0.737684 0.412910
0 -10.251977 -25.000000 16.562578 -0.985579 -0.117338 0.121928 0.743701 0.700907
plains_stone.bmp
0 -10.492638 -30.683615 9.147589 -0.779494 -0.484691 0.396817 0.737684 0.412910
0 -5.586623 -34.144608 14.557384 -0.779494 -0.484691 0.396817 0.860334 0.432835
0 -10.251977 -25.000000 16.562578 -0.779494 -0.484691 0.396817 0.743701 0.700907
plains_stone.bmp
0 -3.819728 -39.892063 9.147589 -0.447730 -0.681978 0.578311 0.904507 0.182698
0 2.523549 -38.776836 15.373712 -0.447730 -0.681978 0.578311 0.063089 0.333092
0 -5.586623 -34.144608 14.557384 -0.447730 -0.681978 0.578311 0.860334 0.432835
plains_stone.bmp
0 -3.819728 -39.892063 9.147589 -0.371021 -0.771891 0.516264 0.904507 0.182698
0 7.000000 -45.092728 9.147589 -0.371021 -0.771891 0.516264 0.175000 0.052682
0 2.523549 -38.776836 15.373712 -0.371021 -0.771891 0.516264 0.063089 0.333092
plains_stone.bmp
0 7.000000 -45.092728 9.147589 -0.251922 -0.764050 0.593939 0.175000 0.052682
0 12.546264 -42.069935 15.388618 -0.251922 -0.764050 0.593939 0.313657 0.251058
0 2.523549 -38.776836 15.373712 -0.251922 -0.764050 0.593939 0.063089 0.333092
plains_stone.bmp
0 18.138594 -40.330944 9.147589 0.564050 -0.773143 0.289995 0.453465 0.171726
0 21.170380 -35.295345 16.675859 0.564050 -0.773143 0.289995 0.529260 0.445753
0 12.546264 -42.069935 15.388618 0.564050 -0.773143 0.289995 0.313657 0.251058
plains_stone.bmp
0 18.138594 -40.330944 9.147589 0.830006 -0.556462 0.037953 0.453465 0.171726
0 24.586113 -30.713985 9.147589 0.830006 -0.556462 0.037953 0.614653 0.412150
0 21.170380 -35.295345 16.675859 0.830006 -0.556462 0.037953 0.529260 0.445753
plains_stone.bmp
0 24.586113 -30.713985 9.147589 0.931012 -0.140784 0.336744 0.614653 0.412150
0 23.388950 -25.000000 14.846311 0.931012 -0.140784 0.336744 0.584724 0.667136
0 21.170380 -35.295345 16.675859 0.931012 -0.140784 0.336744 0.529260 0.445753
plains_stone.bmp
0 18.504761 -9.165071 9.147589 0.361533 0.928921 0.080000 0.462619 0.950873
0 7.000000 -4.687456 9.147589 0.361533 0.928921 0.080000 0.175000 0.062814
0 12.699620 -7.458077 15.561185 0.361533 0.928921 0.080000 0.317490 0.119750
plains_stone.bmp
0 18.504761 -9.165071 9.147589 0.319130 0.819970 -0.475190 0.462619 0.950873
0 11.753859 -10.369408 2.535630 0.319130 0.819970 -0.475190 0.293846 0.790659
0 7.000000 -4.687456 9.147589 0.319130 0.819970 -0.475190 0.175000 0.062814
plains_stone.bmp
0 11.753859 -10.369408 2.535630 0.066689 0.779941 -0.622290 0.293846 0.790659
0 1.778326 -8.929069 3.271809 0.066689 0.779941 -0.622290 0.044458 0.841154
0 7.000000 -4.687456 9.147589 0.066689 0.779941 -0.622290 0.175000 0.062814
plains_stone.bmp
0 -3.936820 -9.946774 9.147589 -0.742244 0.663242 -0.095833 0.901579 0.931331
0 -11.900425 -18.858974 9.147589 -0.742244 0.663242 -0.095833 0.702489 0.708526
0 -8.302538 -13.882186 15.724699 -0.742244 0.663242 -0.095833 0.792437 0.962365
plains_stone.bmp
0 -3.936820 -9.946774 9.147589 -0.721716 0.644898 -0.251464 0.901579 0.931331
0 -6.295322 -15.340421 2.084207 -0.721716 0.644898 -0.251464 0.842617 0.657501
0 -11.900425 -18.858974 9.147589 -0.721716 0.644898 -0.251464 0.702489 0.708526
plains_stone.bmp
0 -6.295322 -15.340421 2.084207 -0.773062 -0.039435 -0.633103 0.842617 0.657501
0 -7.467369 -25.000000 4.117034 -0.773062 -0.039435 -0.633103 0.813316 0.456012
0 -11.900425 -18.858974 9.147589 -0.773062 -0.039435 -0.633103 0.702489 0.708526
plains_stone.bmp
0 -10.492638 -30.683615 9.147589 -0.762137 -0.552283 0.337833 0.737684 0.412910
0 -3.819728 -39.892063 9.147589 -0.762137 -0.552283 0.337833 0.904507 0.182698
0 -5.586623 -34.144608 14.557384 -0.762137 -0.552283 0.337833 0.860334 0.432835
plains_stone.bmp
0 -10.492638 -30.683615 9.147589 -0.807267 -0.584987 -0.078172 0.737684 0.412910
0 -6.695936 -34.950642 1.871374 -0.807267 -0.584987 -0.078172 0.832602 0.163058
0 -3.819728 -39.892063 9.147589 -0.807267 -0.584987 -0.078172 0.904507 0.182698
plains_stone.bmp
0 -6.695936 -34.950642 1.871374 -0.649439 -0.723345 -0.234522 0.832602 0.163058
0 1.330861 -42.448112 2.768291 -0.649439 -0.723345 -0.234522 0.033272 0.993270
0 -3.819728 -39.892063 9.147589 -0.649439 -0.723345 -0.234522 0.904507 0.182698
plains_stone.bmp
0 7.000000 -45.092728 9.147589 0.391289 -0.915290 0.095583 0.175000 0.052682
0 18.138594 -40.330944 9.147589 0.391289 -0.915290 0.095583 0.453465 0.171726
0 12.546264 -42.069935 15.388618 0.391289 -0.915290 0.095583 0.313657 0.251058
plains_stone.bmp
0 7.000000 -45.092728 9.147589 0.368857 -0.862818 -0.345672 0.175000 0.052682
0 11.946084 -40.222191 2.268271 0.368857 -0.862818 -0.345672 0.298652 0.039079
0 18.138594 -40.330944 9.147589 0.368857 -0.862818 -0.345672 0.453465 0.171726
plains_stone.bmp
0 11.946084 -40.222191 2.268271 0.579991 -0.617053 -0.531842 0.298652 0.039079
0 19.666418 -34.202583 3.703496 0.579991 -0.617053 -0.531842 0.491660 0.217810
0 18.138594 -40.330944 9.147589 0.579991 -0.617053 -0.531842 0.453465 0.171726
plains_stone.bmp
0 24.586113 -30.713985 9.147589 0.893075 -0.209814 0.397989 0.614653 0.412150
0 27.492815 -18.341585 9.147589 0.893075 -0.209814 0.397989 0.687320 0.721460
0 23.388950 -25.000000 14.846311 0.893075 -0.209814 0.397989 0.584724 0.667136
plains_stone.bmp
0 24.586113 -30.713985 9.147589 0.962338 -0.226086 -0.150964 0.614653 0.412150
0 24.732893 -25.000000 1.525899 0.962338 -0.226086 -0.150964 0.618322 0.405026
0 27.492815 -18.341585 9.147589 0.962338 -0.226086 -0.150964 0.687320 0.721460
plains_stone.bmp
0 24.732893 -25.000000 1.525899 0.502042 0.553020 -0.664923 0.618322 0.405026
0 18.743687 -16.467813 4.100091 0.502042 0.553020 -0.664923 0.468592 0.668983
0 27.492815 -18.341585 9.147589 0.502042 0.553020 -0.664923 0.687320 0.721460
plains_stone.bmp
0 15.999247 -18.461742 0.000000 0.583192 0.505261 -0.636081 0.399981 0.538456
0 11.753859 -10.369408 2.535630 0.583192 0.505261 -0.636081 0.293846 0.790659
0 18.743687 -16.467813 4.100091 0.583192 0.505261 -0.636081 0.468592 0.668983
plains_stone.bmp
0 15.999247 -18.461742 0.000000 0.084069 0.337839 -0.937442 0.399981 0.538456
0 3.897143 -15.450227 0.000000 0.084069 0.337839 -0.937442 0.097429 0.613744
0 11.753859 -10.369408 2.535630 0.084069 0.337839 -0.937442 0.293846 0.790659
plains_stone.bmp
0 3.897143 -15.450227 0.000000 -0.001272 0.448114 -0.893975 0.097429 0.613744
0 1.778326 -8.929069 3.271809 -0.001272 0.448114 -0.893975 0.044458 0.841154
0 11.753859 -10.369408 2.535630 -0.001272 0.448114 -0.893975 0.293846 0.790659
plains_stone.bmp
0 3.897143 -15.450227 0.000000 -0.180082 0.393745 -0.901407 0.097429 0.613744
0 -6.295322 -15.340421 2.084207 -0.180082 0.393745 -0.901407 0.842617 0.657501
0 1.778326 -8.929069 3.271809 -0.180082 0.393745 -0.901407 0.044458 0.841154
plains_stone.bmp
0 3.897143 -15.450227 0.000000 -0.197402 0.127063 -0.972053 0.097429 0.613744
0 -2.249816 -25.000000 0.000000 -0.197402 0.127063 -0.972053 0.943755 0.375000
0 -6.295322 -15.340421 2.084207 -0.197402 0.127063 -0.972053 0.842617 0.657501
plains_stone.bmp
0 -2.249816 -25.000000 0.000000 -0.616955 -0.089684 -0.781872 0.943755 0.375000
0 -7.467369 -25.000000 4.117034 -0.616955 -0.089684 -0.781872 0.813316 0.456012
0 -6.295322 -15.340421 2.084207 -0.616955 -0.089684 -0.781872 0.842617 0.657501
plains_stone.bmp
0 -2.249816 -25.000000 0.000000 -0.614349 0.128080 -0.778570 0.943755 0.375000
0 -6.695936 -34.950642 1.871374 -0.614349 0.128080 -0.778570 0.832602 0.163058
0 -7.467369 -25.000000 4.117034 -0.614349 0.128080 -0.778570 0.813316 0.456012
plains_stone.bmp
0 -2.249816 -25.000000 0.000000 -0.151954 -0.116686 -0.981476 0.943755 0.375000
0 4.249866 -33.464188 0.000000 -0.151954 -0.116686 -0.981476 0.106247 0.163395
0 -6.695936 -34.950642 1.871374 -0.151954 -0.116686 -0.981476 0.832602 0.163058
plains_stone.bmp
0 4.249866 -33.464188 0.000000 -0.129500 -0.253328 -0.958674 0.106247 0.163395
0 1.330861 -42.448112 2.768291 -0.129500 -0.253328 -0.958674 0.033272 0.993270
0 -6.695936 -34.950642 1.871374 -0.129500 -0.253328 -0.958674 0.832602 0.163058
plains_stone.bmp
0 24.732893 -25.000000 1.525899 0.532602 0.564202 -0.630882 0.618322 0.405026
0 15.999247 -18.461742 0.000000 0.532602 0.564202 -0.630882 0.399981 0.538456
0 18.743687 -16.467813 4.100091 0.532602 0.564202 -0.630882 0.468592 0.668983
plains_stone.bmp
0 24.732893 -25.000000 1.525899 0.173213 0.001522 -0.984883 0.618322 0.405026
0 16.114902 -31.622288 0.000000 0.173213 0.001522 -0.984883 0.402873 0.209443
0 15.999247 -18.461742 0.000000 0.173213 0.001522 -0.984883 0.399981 0.538456
plains_stone.bmp
0 16.114902 -31.622288 0.000000 0.000000 -0.000000 -1.000000 0.402873 0.209443
0 7.000000 -25.000000 0.000000 0.000000 -0.000000 -1.000000 0.175000 0.375000
0 15.999247 -18.461742 0.000000 0.000000 -0.000000 -1.000000 0.399981 0.538456
plains_stone.bmp
0 4.249866 -33.464188 0.000000 0.017923 -0.299742 -0.953852 0.106247 0.163395
0 11.946084 -40.222191 2.268271 0.017923 -0.299742 -0.953852 0.298652 0.039079
0 1.330861 -42.448112 2.768291 0.017923 -0.299742 -0.953852 0.033272 0.993270
plains_stone.bmp
0 4.249866 -33.464188 0.000000 0.042540 -0.274032 -0.960779 0.106247 0.163395
0 16.114902 -31.622288 0.000000 0.042540 -0.274032 -0.960779 0.402873 0.209443
0 11.946084 -40.222191 2.268271 0.042540 -0.274032 -0.960779 0.298652 0.039079
plains_stone.bmp
0 16.114902 -31.622288 0.000000 0.479986 -0.433793 -0.762520 0.402873 0.209443
0 19.666418 -34.202583 3.703496 0.479986 -0.433793 -0.762520 0.491660 0.217810
0 11.946084 -40.222191 2.268271 0.479986 -0.433793 -0.762520 0.298652 0.039079
end
