version 1
nodes
0 "root" -1
1 "canopy" 0
end
skeleton
time 0
0 0 0 0 0 0 0
1 0 0 161.625935 0.000000 0.000000 0
time 1
0 0 0 0 0 0 0
1 0 0 161.625935 0.001553 0.000621 0
time 2
0 0 0 0 0 0 0
1 0 0 161.625935 0.003000 0.001200 0
time 3
0 0 0 0 0 0 0
1 0 0 161.625935 0.004243 0.001697 0
time 4
0 0 0 0 0 0 0
1 0 0 161.625935 0.005196 0.002078 0
time 5
0 0 0 0 0 0 0
1 0 0 161.625935 0.005796 0.002318 0
time 6
0 0 0 0 0 0 0
1 0 0 161.625935 0.006000 0.002400 0
time 7
0 0 0 0 0 0 0
1 0 0 161.625935 0.005796 0.002318 0
time 8
0 0 0 0 0 0 0
1 0 0 161.625935 0.005196 0.002078 0
time 9
0 0 0 0 0 0 0
1 0 0 161.625935 0.004243 0.001697 0
time 10
0 0 0 0 0 0 0
1 0 0 161.625935 0.003000 0.001200 0
time 11
0 0 0 0 0 0 0
1 0 0 161.625935 0.001553 0.000621 0
time 12
0 0 0 0 0 0 0
1 0 0 161.625935 0.000000 0.000000 0
time 13
0 0 0 0 0 0 0
1 0 0 161.625935 -0.001553 -0.000621 0
time 14
0 0 0 0 0 0 0
1 0 0 161.625935 -0.003000 -0.001200 0
time 15
0 0 0 0 0 0 0
1 0 0 161.625935 -0.004243 -0.001697 0
time 16
0 0 0 0 0 0 0
1 0 0 161.625935 -0.005196 -0.002078 0
time 17
0 0 0 0 0 0 0
1 0 0 161.625935 -0.005796 -0.002318 0
time 18
0 0 0 0 0 0 0
1 0 0 161.625935 -0.006000 -0.002400 0
time 19
0 0 0 0 0 0 0
1 0 0 161.625935 -0.005796 -0.002318 0
time 20
0 0 0 0 0 0 0
1 0 0 161.625935 -0.005196 -0.002078 0
time 21
0 0 0 0 0 0 0
1 0 0 161.625935 -0.004243 -0.001697 0
time 22
0 0 0 0 0 0 0
1 0 0 161.625935 -0.003000 -0.001200 0
time 23
0 0 0 0 0 0 0
1 0 0 161.625935 -0.001553 -0.000621 0
time 24
0 0 0 0 0 0 0
1 0 0 161.625935 -0.000000 -0.000000 0
end
