version 1
nodes
0 "root" -1
1 "canopy" 0
end
skeleton
time 0
0 0 0 0 0 0 0
1 0 0 11.026117 0.000000 0.000000 0
time 1
0 0 0 0 0 0 0
1 0 0 11.026117 0.004659 0.001863 0
time 2
0 0 0 0 0 0 0
1 0 0 11.026117 0.009000 0.003600 0
time 3
0 0 0 0 0 0 0
1 0 0 11.026117 0.012728 0.005091 0
time 4
0 0 0 0 0 0 0
1 0 0 11.026117 0.015588 0.006235 0
time 5
0 0 0 0 0 0 0
1 0 0 11.026117 0.017387 0.006955 0
time 6
0 0 0 0 0 0 0
1 0 0 11.026117 0.018000 0.007200 0
time 7
0 0 0 0 0 0 0
1 0 0 11.026117 0.017387 0.006955 0
time 8
0 0 0 0 0 0 0
1 0 0 11.026117 0.015588 0.006235 0
time 9
0 0 0 0 0 0 0
1 0 0 11.026117 0.012728 0.005091 0
time 10
0 0 0 0 0 0 0
1 0 0 11.026117 0.009000 0.003600 0
time 11
0 0 0 0 0 0 0
1 0 0 11.026117 0.004659 0.001863 0
time 12
0 0 0 0 0 0 0
1 0 0 11.026117 0.000000 0.000000 0
time 13
0 0 0 0 0 0 0
1 0 0 11.026117 -0.004659 -0.001863 0
time 14
0 0 0 0 0 0 0
1 0 0 11.026117 -0.009000 -0.003600 0
time 15
0 0 0 0 0 0 0
1 0 0 11.026117 -0.012728 -0.005091 0
time 16
0 0 0 0 0 0 0
1 0 0 11.026117 -0.015588 -0.006235 0
time 17
0 0 0 0 0 0 0
1 0 0 11.026117 -0.017387 -0.006955 0
time 18
0 0 0 0 0 0 0
1 0 0 11.026117 -0.018000 -0.007200 0
time 19
0 0 0 0 0 0 0
1 0 0 11.026117 -0.017387 -0.006955 0
time 20
0 0 0 0 0 0 0
1 0 0 11.026117 -0.015588 -0.006235 0
time 21
0 0 0 0 0 0 0
1 0 0 11.026117 -0.012728 -0.005091 0
time 22
0 0 0 0 0 0 0
1 0 0 11.026117 -0.009000 -0.003600 0
time 23
0 0 0 0 0 0 0
1 0 0 11.026117 -0.004659 -0.001863 0
time 24
0 0 0 0 0 0 0
1 0 0 11.026117 -0.000000 -0.000000 0
end
