version 1
nodes
0 "root" -1
1 "body" 0
2 "neck" 1
3 "head" 2
4 "tail" 1
5 "tail_tip" 4
6 "front_L_upper" 1
7 "front_L_lower" 6
8 "front_L_cannon" 7
9 "front_L_hoof" 8
10 "hind_L_upper" 1
11 "hind_L_lower" 10
12 "hind_L_cannon" 11
13 "hind_L_hoof" 12
14 "front_R_upper" 1
15 "front_R_lower" 14
16 "front_R_cannon" 15
17 "front_R_hoof" 16
18 "hind_R_upper" 1
19 "hind_R_lower" 18
20 "hind_R_cannon" 19
21 "hind_R_hoof" 20
end
skeleton
time 0
0 0.000000 0.000000 0.000000 0.000000 0.000000 0.000000
1 0.000000 0.000000 49.379562 0.000000 0.000000 0.000000
2 24.299999 0.000000 6.840000 0.000000 0.000000 0.000000
3 18.900002 0.000000 16.719997 0.000000 -0.000000 0.000000
4 -35.099998 0.000000 5.320000 0.000000 0.000000 0.000000
5 -11.700001 0.000000 -14.440002 0.000000 0.000000 0.000000
6 21.600000 -13.000000 -2.280003 0.000000 0.000000 0.000000
7 -0.900000 0.000000 -16.719999 0.000000 -0.280000 0.000000
8 1.799999 0.000000 -11.400000 0.000000 0.320000 0.000000
9 0.900000 0.000000 -13.680000 0.000000 -0.120000 0.000000
10 -26.100000 -13.000000 -0.760002 0.000000 -0.290000 0.000000
11 10.800000 0.000000 -15.959999 0.000000 -0.000000 0.000000
12 -12.599999 0.000000 -13.680000 0.000000 0.000000 0.000000
13 2.699999 0.000000 -13.680000 0.000000 -0.000000 0.000000
14 21.600000 13.000000 -2.280003 0.000000 0.000000 0.000000
15 -0.900000 0.000000 -16.719999 0.000000 -0.000000 0.000000
16 1.799999 0.000000 -11.400000 0.000000 0.000000 0.000000
17 0.900000 0.000000 -13.680000 0.000000 -0.000000 0.000000
18 -26.100000 13.000000 -0.760002 0.000000 0.290000 0.000000
19 10.800000 0.000000 -15.959999 0.000000 -0.000000 0.000000
20 -12.599999 0.000000 -13.680000 0.000000 0.000000 0.000000
21 2.699999 0.000000 -13.680000 0.000000 -0.000000 0.000000
time 1
0 0.000000 0.000000 0.000000 0.000000 0.000000 0.000000
1 0.000000 0.000000 49.436298 0.000000 0.000000 0.000000
2 24.299999 0.000000 6.840000 0.000000 0.009059 0.000000
3 18.900002 0.000000 16.719997 0.000000 -0.007247 0.000000
4 -35.099998 0.000000 5.320000 0.010353 0.000000 0.000000
5 -11.700001 0.000000 -14.440002 0.000000 0.000000 0.000000
6 21.600000 -13.000000 -2.280003 0.000000 0.075058 0.000000
7 -0.900000 0.000000 -16.719999 0.000000 -0.270459 0.000000
8 1.799999 0.000000 -11.400000 0.000000 0.309096 0.000000
9 0.900000 0.000000 -13.680000 0.000000 -0.115911 0.000000
10 -26.100000 -13.000000 -0.760002 0.000000 -0.280118 0.000000
11 10.800000 0.000000 -15.959999 0.000000 -0.072469 0.000000
12 -12.599999 0.000000 -13.680000 0.000000 0.082822 0.000000
13 2.699999 0.000000 -13.680000 0.000000 -0.031058 0.000000
14 21.600000 13.000000 -2.280003 0.000000 -0.075058 0.000000
15 -0.900000 0.000000 -16.719999 0.000000 -0.000000 0.000000
16 1.799999 0.000000 -11.400000 0.000000 0.000000 0.000000
17 0.900000 0.000000 -13.680000 0.000000 -0.000000 0.000000
18 -26.100000 13.000000 -0.760002 0.000000 0.280118 0.000000
19 10.800000 0.000000 -15.959999 0.000000 -0.000000 0.000000
20 -12.599999 0.000000 -13.680000 0.000000 0.000000 0.000000
21 2.699999 0.000000 -13.680000 0.000000 -0.000000 0.000000
time 2
0 0.000000 0.000000 0.000000 0.000000 0.000000 0.000000
1 0.000000 0.000000 49.575336 0.000000 0.000000 0.000000
2 24.299999 0.000000 6.840000 0.000000 0.017500 0.000000
3 18.900002 0.000000 16.719997 0.000000 -0.014000 0.000000
4 -35.099998 0.000000 5.320000 0.020000 0.000000 0.000000
5 -11.700001 0.000000 -14.440002 0.000000 0.000000 0.000000
6 21.600000 -13.000000 -2.280003 0.000000 0.145000 0.000000
7 -0.900000 0.000000 -16.719999 0.000000 -0.242487 0.000000
8 1.799999 0.000000 -11.400000 0.000000 0.277128 0.000000
9 0.900000 0.000000 -13.680000 0.000000 -0.103923 0.000000
10 -26.100000 -13.000000 -0.760002 0.000000 -0.251147 0.000000
11 10.800000 0.000000 -15.959999 0.000000 -0.140000 0.000000
12 -12.599999 0.000000 -13.680000 0.000000 0.160000 0.000000
13 2.699999 0.000000 -13.680000 0.000000 -0.060000 0.000000
14 21.600000 13.000000 -2.280003 0.000000 -0.145000 0.000000
15 -0.900000 0.000000 -16.719999 0.000000 -0.000000 0.000000
16 1.799999 0.000000 -11.400000 0.000000 0.000000 0.000000
17 0.900000 0.000000 -13.680000 0.000000 -0.000000 0.000000
18 -26.100000 13.000000 -0.760002 0.000000 0.251147 0.000000
19 10.800000 0.000000 -15.959999 0.000000 -0.000000 0.000000
20 -12.599999 0.000000 -13.680000 0.000000 0.000000 0.000000
21 2.699999 0.000000 -13.680000 0.000000 -0.000000 0.000000
time 3
0 0.000000 0.000000 0.000000 0.000000 0.000000 0.000000
1 0.000000 0.000000 50.231483 0.000000 0.000000 0.000000
2 24.299999 0.000000 6.840000 0.000000 0.024749 0.000000
3 18.900002 0.000000 16.719997 0.000000 -0.019799 0.000000
4 -35.099998 0.000000 5.320000 0.028284 0.000000 0.000000
5 -11.700001 0.000000 -14.440002 0.000000 0.000000 0.000000
6 21.600000 -13.000000 -2.280003 0.000000 0.205061 0.000000
7 -0.900000 0.000000 -16.719999 0.000000 -0.197990 0.000000
8 1.799999 0.000000 -11.400000 0.000000 0.226274 0.000000
9 0.900000 0.000000 -13.680000 0.000000 -0.084853 0.000000
10 -26.100000 -13.000000 -0.760002 0.000000 -0.205061 0.000000
11 10.800000 0.000000 -15.959999 0.000000 -0.197990 0.000000
12 -12.599999 0.000000 -13.680000 0.000000 0.226274 0.000000
13 2.699999 0.000000 -13.680000 0.000000 -0.084853 0.000000
14 21.600000 13.000000 -2.280003 0.000000 -0.205061 0.000000
15 -0.900000 0.000000 -16.719999 0.000000 -0.000000 0.000000
16 1.799999 0.000000 -11.400000 0.000000 0.000000 0.000000
17 0.900000 0.000000 -13.680000 0.000000 -0.000000 0.000000
18 -26.100000 13.000000 -0.760002 0.000000 0.205061 0.000000
19 10.800000 0.000000 -15.959999 0.000000 -0.000000 0.000000
20 -12.599999 0.000000 -13.680000 0.000000 0.000000 0.000000
21 2.699999 0.000000 -13.680000 0.000000 -0.000000 0.000000
time 4
0 0.000000 0.000000 0.000000 0.000000 0.000000 0.000000
1 0.000000 0.000000 51.174000 0.000000 0.000000 0.000000
2 24.299999 0.000000 6.840000 0.000000 0.030311 0.000000
3 18.900002 0.000000 16.719997 0.000000 -0.024249 0.000000
4 -35.099998 0.000000 5.320000 0.034641 0.000000 0.000000
5 -11.700001 0.000000 -14.440002 0.000000 0.000000 0.000000
6 21.600000 -13.000000 -2.280003 0.000000 0.251147 0.000000
7 -0.900000 0.000000 -16.719999 0.000000 -0.140000 0.000000
8 1.799999 0.000000 -11.400000 0.000000 0.160000 0.000000
9 0.900000 0.000000 -13.680000 0.000000 -0.060000 0.000000
10 -26.100000 -13.000000 -0.760002 0.000000 -0.145000 0.000000
11 10.800000 0.000000 -15.959999 0.000000 -0.242487 0.000000
12 -12.599999 0.000000 -13.680000 0.000000 0.277128 0.000000
13 2.699999 0.000000 -13.680000 0.000000 -0.103923 0.000000
14 21.600000 13.000000 -2.280003 0.000000 -0.251147 0.000000
15 -0.900000 0.000000 -16.719999 0.000000 -0.000000 0.000000
16 1.799999 0.000000 -11.400000 0.000000 0.000000 0.000000
17 0.900000 0.000000 -13.680000 0.000000 -0.000000 0.000000
18 -26.100000 13.000000 -0.760002 0.000000 0.145000 0.000000
19 10.800000 0.000000 -15.959999 0.000000 -0.000000 0.000000
20 -12.599999 0.000000 -13.680000 0.000000 0.000000 0.000000
21 2.699999 0.000000 -13.680000 0.000000 -0.000000 0.000000
time 5
0 0.000000 0.000000 0.000000 0.000000 0.000000 0.000000
1 0.000000 0.000000 51.921211 0.000000 0.000000 0.000000
2 24.299999 0.000000 6.840000 0.000000 0.033807 0.000000
3 18.900002 0.000000 16.719997 0.000000 -0.027046 0.000000
4 -35.099998 0.000000 5.320000 0.038637 0.000000 0.000000
5 -11.700001 0.000000 -14.440002 0.000000 0.000000 0.000000
6 21.600000 -13.000000 -2.280003 0.000000 0.280118 0.000000
7 -0.900000 0.000000 -16.719999 0.000000 -0.072469 0.000000
8 1.799999 0.000000 -11.400000 0.000000 0.082822 0.000000
9 0.900000 0.000000 -13.680000 0.000000 -0.031058 0.000000
10 -26.100000 -13.000000 -0.760002 0.000000 -0.075058 0.000000
11 10.800000 0.000000 -15.959999 0.000000 -0.270459 0.000000
12 -12.599999 0.000000 -13.680000 0.000000 0.309096 0.000000
13 2.699999 0.000000 -13.680000 0.000000 -0.115911 0.000000
14 21.600000 13.000000 -2.280003 0.000000 -0.280118 0.000000
15 -0.900000 0.000000 -16.719999 0.000000 -0.000000 0.000000
16 1.799999 0.000000 -11.400000 0.000000 0.000000 0.000000
17 0.900000 0.000000 -13.680000 0.000000 -0.000000 0.000000
18 -26.100000 13.000000 -0.760002 0.000000 0.075058 0.000000
19 10.800000 0.000000 -15.959999 0.000000 -0.000000 0.000000
20 -12.599999 0.000000 -13.680000 0.000000 0.000000 0.000000
21 2.699999 0.000000 -13.680000 0.000000 -0.000000 0.000000
time 6
0 0.000000 0.000000 0.000000 0.000000 0.000000 0.000000
1 0.000000 0.000000 52.315968 0.000000 0.000000 0.000000
2 24.299999 0.000000 6.840000 0.000000 0.035000 0.000000
3 18.900002 0.000000 16.719997 0.000000 -0.028000 0.000000
4 -35.099998 0.000000 5.320000 0.040000 0.000000 0.000000
5 -11.700001 0.000000 -14.440002 0.000000 0.000000 0.000000
6 21.600000 -13.000000 -2.280003 0.000000 0.290000 0.000000
7 -0.900000 0.000000 -16.719999 0.000000 -0.000000 0.000000
8 1.799999 0.000000 -11.400000 0.000000 0.000000 0.000000
9 0.900000 0.000000 -13.680000 0.000000 -0.000000 0.000000
10 -26.100000 -13.000000 -0.760002 0.000000 -0.000000 0.000000
11 10.800000 0.000000 -15.959999 0.000000 -0.280000 0.000000
12 -12.599999 0.000000 -13.680000 0.000000 0.320000 0.000000
13 2.699999 0.000000 -13.680000 0.000000 -0.120000 0.000000
14 21.600000 13.000000 -2.280003 0.000000 -0.290000 0.000000
15 -0.900000 0.000000 -16.719999 0.000000 -0.000000 0.000000
16 1.799999 0.000000 -11.400000 0.000000 0.000000 0.000000
17 0.900000 0.000000 -13.680000 0.000000 -0.000000 0.000000
18 -26.100000 13.000000 -0.760002 0.000000 0.000000 0.000000
19 10.800000 0.000000 -15.959999 0.000000 -0.000000 0.000000
20 -12.599999 0.000000 -13.680000 0.000000 0.000000 0.000000
21 2.699999 0.000000 -13.680000 0.000000 -0.000000 0.000000
time 7
0 0.000000 0.000000 0.000000 0.000000 0.000000 0.000000
1 0.000000 0.000000 52.243015 0.000000 0.000000 0.000000
2 24.299999 0.000000 6.840000 0.000000 0.033807 0.000000
3 18.900002 0.000000 16.719997 0.000000 -0.027046 0.000000
4 -35.099998 0.000000 5.320000 0.038637 0.000000 0.000000
5 -11.700001 0.000000 -14.440002 0.000000 0.000000 0.000000
6 21.600000 -13.000000 -2.280003 0.000000 0.280118 0.000000
7 -0.900000 0.000000 -16.719999 0.000000 -0.000000 0.000000
8 1.799999 0.000000 -11.400000 0.000000 0.000000 0.000000
9 0.900000 0.000000 -13.680000 0.000000 -0.000000 0.000000
10 -26.100000 -13.000000 -0.760002 0.000000 0.075058 0.000000
11 10.800000 0.000000 -15.959999 0.000000 -0.270459 0.000000
12 -12.599999 0.000000 -13.680000 0.000000 0.309096 0.000000
13 2.699999 0.000000 -13.680000 0.000000 -0.115911 0.000000
14 21.600000 13.000000 -2.280003 0.000000 -0.280118 0.000000
15 -0.900000 0.000000 -16.719999 0.000000 -0.072469 0.000000
16 1.799999 0.000000 -11.400000 0.000000 0.082822 0.000000
17 0.900000 0.000000 -13.680000 0.000000 -0.031058 0.000000
18 -26.100000 13.000000 -0.760002 0.000000 -0.075058 0.000000
19 10.800000 0.000000 -15.959999 0.000000 -0.000000 0.000000
20 -12.599999 0.000000 -13.680000 0.000000 0.000000 0.000000
21 2.699999 0.000000 -13.680000 0.000000 -0.000000 0.000000
time 8
0 0.000000 0.000000 0.000000 0.000000 0.000000 0.000000
1 0.000000 0.000000 52.416786 0.000000 0.000000 0.000000
2 24.299999 0.000000 6.840000 0.000000 0.030311 0.000000
3 18.900002 0.000000 16.719997 0.000000 -0.024249 0.000000
4 -35.099998 0.000000 5.320000 0.034641 0.000000 0.000000
5 -11.700001 0.000000 -14.440002 0.000000 0.000000 0.000000
6 21.600000 -13.000000 -2.280003 0.000000 0.251147 0.000000
7 -0.900000 0.000000 -16.719999 0.000000 -0.000000 0.000000
8 1.799999 0.000000 -11.400000 0.000000 0.000000 0.000000
9 0.900000 0.000000 -13.680000 0.000000 -0.000000 0.000000
10 -26.100000 -13.000000 -0.760002 0.000000 0.145000 0.000000
11 10.800000 0.000000 -15.959999 0.000000 -0.242487 0.000000
12 -12.599999 0.000000 -13.680000 0.000000 0.277128 0.000000
13 2.699999 0.000000 -13.680000 0.000000 -0.103923 0.000000
14 21.600000 13.000000 -2.280003 0.000000 -0.251147 0.000000
15 -0.900000 0.000000 -16.719999 0.000000 -0.140000 0.000000
16 1.799999 0.000000 -11.400000 0.000000 0.160000 0.000000
17 0.900000 0.000000 -13.680000 0.000000 -0.060000 0.000000
18 -26.100000 13.000000 -0.760002 0.000000 -0.145000 0.000000
19 10.800000 0.000000 -15.959999 0.000000 -0.000000 0.000000
20 -12.599999 0.000000 -13.680000 0.000000 0.000000 0.000000
21 2.699999 0.000000 -13.680000 0.000000 -0.000000 0.000000
time 9
0 0.000000 0.000000 0.000000 0.000000 0.000000 0.000000
1 0.000000 0.000000 52.111603 0.000000 0.000000 0.000000
2 24.299999 0.000000 6.840000 0.000000 0.024749 0.000000
3 18.900002 0.000000 16.719997 0.000000 -0.019799 0.000000
4 -35.099998 0.000000 5.320000 0.028284 0.000000 0.000000
5 -11.700001 0.000000 -14.440002 0.000000 0.000000 0.000000
6 21.600000 -13.000000 -2.280003 0.000000 0.205061 0.000000
7 -0.900000 0.000000 -16.719999 0.000000 -0.000000 0.000000
8 1.799999 0.000000 -11.400000 0.000000 0.000000 0.000000
9 0.900000 0.000000 -13.680000 0.000000 -0.000000 0.000000
10 -26.100000 -13.000000 -0.760002 0.000000 0.205061 0.000000
11 10.800000 0.000000 -15.959999 0.000000 -0.197990 0.000000
12 -12.599999 0.000000 -13.680000 0.000000 0.226274 0.000000
13 2.699999 0.000000 -13.680000 0.000000 -0.084853 0.000000
14 21.600000 13.000000 -2.280003 0.000000 -0.205061 0.000000
15 -0.900000 0.000000 -16.719999 0.000000 -0.197990 0.000000
16 1.799999 0.000000 -11.400000 0.000000 0.226274 0.000000
17 0.900000 0.000000 -13.680000 0.000000 -0.084853 0.000000
18 -26.100000 13.000000 -0.760002 0.000000 -0.205061 0.000000
19 10.800000 0.000000 -15.959999 0.000000 -0.000000 0.000000
20 -12.599999 0.000000 -13.680000 0.000000 0.000000 0.000000
21 2.699999 0.000000 -13.680000 0.000000 -0.000000 0.000000
time 10
0 0.000000 0.000000 0.000000 0.000000 0.000000 0.000000
1 0.000000 0.000000 51.398327 0.000000 0.000000 0.000000
2 24.299999 0.000000 6.840000 0.000000 0.017500 0.000000
3 18.900002 0.000000 16.719997 0.000000 -0.014000 0.000000
4 -35.099998 0.000000 5.320000 0.020000 0.000000 0.000000
5 -11.700001 0.000000 -14.440002 0.000000 0.000000 0.000000
6 21.600000 -13.000000 -2.280003 0.000000 0.145000 0.000000
7 -0.900000 0.000000 -16.719999 0.000000 -0.000000 0.000000
8 1.799999 0.000000 -11.400000 0.000000 0.000000 0.000000
9 0.900000 0.000000 -13.680000 0.000000 -0.000000 0.000000
10 -26.100000 -13.000000 -0.760002 0.000000 0.251147 0.000000
11 10.800000 0.000000 -15.959999 0.000000 -0.140000 0.000000
12 -12.599999 0.000000 -13.680000 0.000000 0.160000 0.000000
13 2.699999 0.000000 -13.680000 0.000000 -0.060000 0.000000
14 21.600000 13.000000 -2.280003 0.000000 -0.145000 0.000000
15 -0.900000 0.000000 -16.719999 0.000000 -0.242487 0.000000
16 1.799999 0.000000 -11.400000 0.000000 0.277128 0.000000
17 0.900000 0.000000 -13.680000 0.000000 -0.103923 0.000000
18 -26.100000 13.000000 -0.760002 0.000000 -0.251147 0.000000
19 10.800000 0.000000 -15.959999 0.000000 -0.000000 0.000000
20 -12.599999 0.000000 -13.680000 0.000000 0.000000 0.000000
21 2.699999 0.000000 -13.680000 0.000000 -0.000000 0.000000
time 11
0 0.000000 0.000000 0.000000 0.000000 0.000000 0.000000
1 0.000000 0.000000 50.430939 0.000000 0.000000 0.000000
2 24.299999 0.000000 6.840000 0.000000 0.009059 0.000000
3 18.900002 0.000000 16.719997 0.000000 -0.007247 0.000000
4 -35.099998 0.000000 5.320000 0.010353 0.000000 0.000000
5 -11.700001 0.000000 -14.440002 0.000000 0.000000 0.000000
6 21.600000 -13.000000 -2.280003 0.000000 0.075058 0.000000
7 -0.900000 0.000000 -16.719999 0.000000 -0.000000 0.000000
8 1.799999 0.000000 -11.400000 0.000000 0.000000 0.000000
9 0.900000 0.000000 -13.680000 0.000000 -0.000000 0.000000
10 -26.100000 -13.000000 -0.760002 0.000000 0.280118 0.000000
11 10.800000 0.000000 -15.959999 0.000000 -0.072469 0.000000
12 -12.599999 0.000000 -13.680000 0.000000 0.082822 0.000000
13 2.699999 0.000000 -13.680000 0.000000 -0.031058 0.000000
14 21.600000 13.000000 -2.280003 0.000000 -0.075058 0.000000
15 -0.900000 0.000000 -16.719999 0.000000 -0.270459 0.000000
16 1.799999 0.000000 -11.400000 0.000000 0.309096 0.000000
17 0.900000 0.000000 -13.680000 0.000000 -0.115911 0.000000
18 -26.100000 13.000000 -0.760002 0.000000 -0.280118 0.000000
19 10.800000 0.000000 -15.959999 0.000000 -0.000000 0.000000
20 -12.599999 0.000000 -13.680000 0.000000 0.000000 0.000000
21 2.699999 0.000000 -13.680000 0.000000 -0.000000 0.000000
time 12
0 0.000000 0.000000 0.000000 0.000000 0.000000 0.000000
1 0.000000 0.000000 49.379562 0.000000 0.000000 0.000000
2 24.299999 0.000000 6.840000 0.000000 0.000000 0.000000
3 18.900002 0.000000 16.719997 0.000000 -0.000000 0.000000
4 -35.099998 0.000000 5.320000 0.000000 0.000000 0.000000
5 -11.700001 0.000000 -14.440002 0.000000 0.000000 0.000000
6 21.600000 -13.000000 -2.280003 0.000000 0.000000 0.000000
7 -0.900000 0.000000 -16.719999 0.000000 -0.000000 0.000000
8 1.799999 0.000000 -11.400000 0.000000 0.000000 0.000000
9 0.900000 0.000000 -13.680000 0.000000 -0.000000 0.000000
10 -26.100000 -13.000000 -0.760002 0.000000 0.290000 0.000000
11 10.800000 0.000000 -15.959999 0.000000 -0.000000 0.000000
12 -12.599999 0.000000 -13.680000 0.000000 0.000000 0.000000
13 2.699999 0.000000 -13.680000 0.000000 -0.000000 0.000000
14 21.600000 13.000000 -2.280003 0.000000 -0.000000 0.000000
15 -0.900000 0.000000 -16.719999 0.000000 -0.280000 0.000000
16 1.799999 0.000000 -11.400000 0.000000 0.320000 0.000000
17 0.900000 0.000000 -13.680000 0.000000 -0.120000 0.000000
18 -26.100000 13.000000 -0.760002 0.000000 -0.290000 0.000000
19 10.800000 0.000000 -15.959999 0.000000 -0.000000 0.000000
20 -12.599999 0.000000 -13.680000 0.000000 0.000000 0.000000
21 2.699999 0.000000 -13.680000 0.000000 -0.000000 0.000000
time 13
0 0.000000 0.000000 0.000000 0.000000 0.000000 0.000000
1 0.000000 0.000000 49.436298 0.000000 0.000000 0.000000
2 24.299999 0.000000 6.840000 0.000000 -0.009059 0.000000
3 18.900002 0.000000 16.719997 0.000000 0.007247 0.000000
4 -35.099998 0.000000 5.320000 -0.010353 0.000000 0.000000
5 -11.700001 0.000000 -14.440002 0.000000 0.000000 0.000000
6 21.600000 -13.000000 -2.280003 0.000000 -0.075058 0.000000
7 -0.900000 0.000000 -16.719999 0.000000 -0.000000 0.000000
8 1.799999 0.000000 -11.400000 0.000000 0.000000 0.000000
9 0.900000 0.000000 -13.680000 0.000000 -0.000000 0.000000
10 -26.100000 -13.000000 -0.760002 0.000000 0.280118 0.000000
11 10.800000 0.000000 -15.959999 0.000000 -0.000000 0.000000
12 -12.599999 0.000000 -13.680000 0.000000 0.000000 0.000000
13 2.699999 0.000000 -13.680000 0.000000 -0.000000 0.000000
14 21.600000 13.000000 -2.280003 0.000000 0.075058 0.000000
15 -0.900000 0.000000 -16.719999 0.000000 -0.270459 0.000000
16 1.799999 0.000000 -11.400000 0.000000 0.309096 0.000000
17 0.900000 0.000000 -13.680000 0.000000 -0.115911 0.000000
18 -26.100000 13.000000 -0.760002 0.000000 -0.280118 0.000000
19 10.800000 0.000000 -15.959999 0.000000 -0.072469 0.000000
20 -12.599999 0.000000 -13.680000 0.000000 0.082822 0.000000
21 2.699999 0.000000 -13.680000 0.000000 -0.031058 0.000000
time 14
0 0.000000 0.000000 0.000000 0.000000 0.000000 0.000000
1 0.000000 0.000000 49.575336 0.000000 0.000000 0.000000
2 24.299999 0.000000 6.840000 0.000000 -0.017500 0.000000
3 18.900002 0.000000 16.719997 0.000000 0.014000 0.000000
4 -35.099998 0.000000 5.320000 -0.020000 0.000000 0.000000
5 -11.700001 0.000000 -14.440002 0.000000 0.000000 0.000000
6 21.600000 -13.000000 -2.280003 0.000000 -0.145000 0.000000
7 -0.900000 0.000000 -16.719999 0.000000 -0.000000 0.000000
8 1.799999 0.000000 -11.400000 0.000000 0.000000 0.000000
9 0.900000 0.000000 -13.680000 0.000000 -0.000000 0.000000
10 -26.100000 -13.000000 -0.760002 0.000000 0.251147 0.000000
11 10.800000 0.000000 -15.959999 0.000000 -0.000000 0.000000
12 -12.599999 0.000000 -13.680000 0.000000 0.000000 0.000000
13 2.699999 0.000000 -13.680000 0.000000 -0.000000 0.000000
14 21.600000 13.000000 -2.280003 0.000000 0.145000 0.000000
15 -0.900000 0.000000 -16.719999 0.000000 -0.242487 0.000000
16 1.799999 0.000000 -11.400000 0.000000 0.277128 0.000000
17 0.900000 0.000000 -13.680000 0.000000 -0.103923 0.000000
18 -26.100000 13.000000 -0.760002 0.000000 -0.251147 0.000000
19 10.800000 0.000000 -15.959999 0.000000 -0.140000 0.000000
20 -12.599999 0.000000 -13.680000 0.000000 0.160000 0.000000
21 2.699999 0.000000 -13.680000 0.000000 -0.060000 0.000000
time 15
0 0.000000 0.000000 0.000000 0.000000 0.000000 0.000000
1 0.000000 0.000000 50.231483 0.000000 0.000000 0.000000
2 24.299999 0.000000 6.840000 0.000000 -0.024749 0.000000
3 18.900002 0.000000 16.719997 0.000000 0.019799 0.000000
4 -35.099998 0.000000 5.320000 -0.028284 0.000000 0.000000
5 -11.700001 0.000000 -14.440002 0.000000 0.000000 0.000000
6 21.600000 -13.000000 -2.280003 0.000000 -0.205061 0.000000
7 -0.900000 0.000000 -16.719999 0.000000 -0.000000 0.000000
8 1.799999 0.000000 -11.400000 0.000000 0.000000 0.000000
9 0.900000 0.000000 -13.680000 0.000000 -0.000000 0.000000
10 -26.100000 -13.000000 -0.760002 0.000000 0.205061 0.000000
11 10.800000 0.000000 -15.959999 0.000000 -0.000000 0.000000
12 -12.599999 0.000000 -13.680000 0.000000 0.000000 0.000000
13 2.699999 0.000000 -13.680000 0.000000 -0.000000 0.000000
14 21.600000 13.000000 -2.280003 0.000000 0.205061 0.000000
15 -0.900000 0.000000 -16.719999 0.000000 -0.197990 0.000000
16 1.799999 0.000000 -11.400000 0.000000 0.226274 0.000000
17 0.900000 0.000000 -13.680000 0.000000 -0.084853 0.000000
18 -26.100000 13.000000 -0.760002 0.000000 -0.205061 0.000000
19 10.800000 0.000000 -15.959999 0.000000 -0.197990 0.000000
20 -12.599999 0.000000 -13.680000 0.000000 0.226274 0.000000
21 2.699999 0.000000 -13.680000 0.000000 -0.084853 0.000000
time 16
0 0.000000 0.000000 0.000000 0.000000 0.000000 0.000000
1 0.000000 0.000000 51.174000 0.000000 0.000000 0.000000
2 24.299999 0.000000 6.840000 0.000000 -0.030311 0.000000
3 18.900002 0.000000 16.719997 0.000000 0.024249 0.000000
4 -35.099998 0.000000 5.320000 -0.034641 0.000000 0.000000
5 -11.700001 0.000000 -14.440002 0.000000 0.000000 0.000000
6 21.600000 -13.000000 -2.280003 0.000000 -0.251147 0.000000
7 -0.900000 0.000000 -16.719999 0.000000 -0.000000 0.000000
8 1.799999 0.000000 -11.400000 0.000000 0.000000 0.000000
9 0.900000 0.000000 -13.680000 0.000000 -0.000000 0.000000
10 -26.100000 -13.000000 -0.760002 0.000000 0.145000 0.000000
11 10.800000 0.000000 -15.959999 0.000000 -0.000000 0.000000
12 -12.599999 0.000000 -13.680000 0.000000 0.000000 0.000000
13 2.699999 0.000000 -13.680000 0.000000 -0.000000 0.000000
14 21.600000 13.000000 -2.280003 0.000000 0.251147 0.000000
15 -0.900000 0.000000 -16.719999 0.000000 -0.140000 0.000000
16 1.799999 0.000000 -11.400000 0.000000 0.160000 0.000000
17 0.900000 0.000000 -13.680000 0.000000 -0.060000 0.000000
18 -26.100000 13.000000 -0.760002 0.000000 -0.145000 0.000000
19 10.800000 0.000000 -15.959999 0.000000 -0.242487 0.000000
20 -12.599999 0.000000 -13.680000 0.000000 0.277128 0.000000
21 2.699999 0.000000 -13.680000 0.000000 -0.103923 0.000000
time 17
0 0.000000 0.000000 0.000000 0.000000 0.000000 0.000000
1 0.000000 0.000000 51.921211 0.000000 0.000000 0.000000
2 24.299999 0.000000 6.840000 0.000000 -0.033807 0.000000
3 18.900002 0.000000 16.719997 0.000000 0.027046 0.000000
4 -35.099998 0.000000 5.320000 -0.038637 0.000000 0.000000
5 -11.700001 0.000000 -14.440002 0.000000 0.000000 0.000000
6 21.600000 -13.000000 -2.280003 0.000000 -0.280118 0.000000
7 -0.900000 0.000000 -16.719999 0.000000 -0.000000 0.000000
8 1.799999 0.000000 -11.400000 0.000000 0.000000 0.000000
9 0.900000 0.000000 -13.680000 0.000000 -0.000000 0.000000
10 -26.100000 -13.000000 -0.760002 0.000000 0.075058 0.000000
11 10.800000 0.000000 -15.959999 0.000000 -0.000000 0.000000
12 -12.599999 0.000000 -13.680000 0.000000 0.000000 0.000000
13 2.699999 0.000000 -13.680000 0.000000 -0.000000 0.000000
14 21.600000 13.000000 -2.280003 0.000000 0.280118 0.000000
15 -0.900000 0.000000 -16.719999 0.000000 -0.072469 0.000000
16 1.799999 0.000000 -11.400000 0.000000 0.082822 0.000000
17 0.900000 0.000000 -13.680000 0.000000 -0.031058 0.000000
18 -26.100000 13.000000 -0.760002 0.000000 -0.075058 0.000000
19 10.800000 0.000000 -15.959999 0.000000 -0.270459 0.000000
20 -12.599999 0.000000 -13.680000 0.000000 0.309096 0.000000
21 2.699999 0.000000 -13.680000 0.000000 -0.115911 0.000000
time 18
0 0.000000 0.000000 0.000000 0.000000 0.000000 0.000000
1 0.000000 0.000000 52.315968 0.000000 0.000000 0.000000
2 24.299999 0.000000 6.840000 0.000000 -0.035000 0.000000
3 18.900002 0.000000 16.719997 0.000000 0.028000 0.000000
4 -35.099998 0.000000 5.320000 -0.040000 0.000000 0.000000
5 -11.700001 0.000000 -14.440002 0.000000 0.000000 0.000000
6 21.600000 -13.000000 -2.280003 0.000000 -0.290000 0.000000
7 -0.900000 0.000000 -16.719999 0.000000 -0.000000 0.000000
8 1.799999 0.000000 -11.400000 0.000000 0.000000 0.000000
9 0.900000 0.000000 -13.680000 0.000000 -0.000000 0.000000
10 -26.100000 -13.000000 -0.760002 0.000000 0.000000 0.000000
11 10.800000 0.000000 -15.959999 0.000000 -0.000000 0.000000
12 -12.599999 0.000000 -13.680000 0.000000 0.000000 0.000000
13 2.699999 0.000000 -13.680000 0.000000 -0.000000 0.000000
14 21.600000 13.000000 -2.280003 0.000000 0.290000 0.000000
15 -0.900000 0.000000 -16.719999 0.000000 -0.000000 0.000000
16 1.799999 0.000000 -11.400000 0.000000 0.000000 0.000000
17 0.900000 0.000000 -13.680000 0.000000 -0.000000 0.000000
18 -26.100000 13.000000 -0.760002 0.000000 -0.000000 0.000000
19 10.800000 0.000000 -15.959999 0.000000 -0.280000 0.000000
20 -12.599999 0.000000 -13.680000 0.000000 0.320000 0.000000
21 2.699999 0.000000 -13.680000 0.000000 -0.120000 0.000000
time 19
0 0.000000 0.000000 0.000000 0.000000 0.000000 0.000000
1 0.000000 0.000000 52.243015 0.000000 0.000000 0.000000
2 24.299999 0.000000 6.840000 0.000000 -0.033807 0.000000
3 18.900002 0.000000 16.719997 0.000000 0.027046 0.000000
4 -35.099998 0.000000 5.320000 -0.038637 0.000000 0.000000
5 -11.700001 0.000000 -14.440002 0.000000 0.000000 0.000000
6 21.600000 -13.000000 -2.280003 0.000000 -0.280118 0.000000
7 -0.900000 0.000000 -16.719999 0.000000 -0.072469 0.000000
8 1.799999 0.000000 -11.400000 0.000000 0.082822 0.000000
9 0.900000 0.000000 -13.680000 0.000000 -0.031058 0.000000
10 -26.100000 -13.000000 -0.760002 0.000000 -0.075058 0.000000
11 10.800000 0.000000 -15.959999 0.000000 -0.000000 0.000000
12 -12.599999 0.000000 -13.680000 0.000000 0.000000 0.000000
13 2.699999 0.000000 -13.680000 0.000000 -0.000000 0.000000
14 21.600000 13.000000 -2.280003 0.000000 0.280118 0.000000
15 -0.900000 0.000000 -16.719999 0.000000 -0.000000 0.000000
16 1.799999 0.000000 -11.400000 0.000000 0.000000 0.000000
17 0.900000 0.000000 -13.680000 0.000000 -0.000000 0.000000
18 -26.100000 13.000000 -0.760002 0.000000 0.075058 0.000000
19 10.800000 0.000000 -15.959999 0.000000 -0.270459 0.000000
20 -12.599999 0.000000 -13.680000 0.000000 0.309096 0.000000
21 2.699999 0.000000 -13.680000 0.000000 -0.115911 0.000000
time 20
0 0.000000 0.000000 0.000000 0.000000 0.000000 0.000000
1 0.000000 0.000000 52.416786 0.000000 0.000000 0.000000
2 24.299999 0.000000 6.840000 0.000000 -0.030311 0.000000
3 18.900002 0.000000 16.719997 0.000000 0.024249 0.000000
4 -35.099998 0.000000 5.320000 -0.034641 0.000000 0.000000
5 -11.700001 0.000000 -14.440002 0.000000 0.000000 0.000000
6 21.600000 -13.000000 -2.280003 0.000000 -0.251147 0.000000
7 -0.900000 0.000000 -16.719999 0.000000 -0.140000 0.000000
8 1.799999 0.000000 -11.400000 0.000000 0.160000 0.000000
9 0.900000 0.000000 -13.680000 0.000000 -0.060000 0.000000
10 -26.100000 -13.000000 -0.760002 0.000000 -0.145000 0.000000
11 10.800000 0.000000 -15.959999 0.000000 -0.000000 0.000000
12 -12.599999 0.000000 -13.680000 0.000000 0.000000 0.000000
13 2.699999 0.000000 -13.680000 0.000000 -0.000000 0.000000
14 21.600000 13.000000 -2.280003 0.000000 0.251147 0.000000
15 -0.900000 0.000000 -16.719999 0.000000 -0.000000 0.000000
16 1.799999 0.000000 -11.400000 0.000000 0.000000 0.000000
17 0.900000 0.000000 -13.680000 0.000000 -0.000000 0.000000
18 -26.100000 13.000000 -0.760002 0.000000 0.145000 0.000000
19 10.800000 0.000000 -15.959999 0.000000 -0.242487 0.000000
20 -12.599999 0.000000 -13.680000 0.000000 0.277128 0.000000
21 2.699999 0.000000 -13.680000 0.000000 -0.103923 0.000000
time 21
0 0.000000 0.000000 0.000000 0.000000 0.000000 0.000000
1 0.000000 0.000000 52.111603 0.000000 0.000000 0.000000
2 24.299999 0.000000 6.840000 0.000000 -0.024749 0.000000
3 18.900002 0.000000 16.719997 0.000000 0.019799 0.000000
4 -35.099998 0.000000 5.320000 -0.028284 0.000000 0.000000
5 -11.700001 0.000000 -14.440002 0.000000 0.000000 0.000000
6 21.600000 -13.000000 -2.280003 0.000000 -0.205061 0.000000
7 -0.900000 0.000000 -16.719999 0.000000 -0.197990 0.000000
8 1.799999 0.000000 -11.400000 0.000000 0.226274 0.000000
9 0.900000 0.000000 -13.680000 0.000000 -0.084853 0.000000
10 -26.100000 -13.000000 -0.760002 0.000000 -0.205061 0.000000
11 10.800000 0.000000 -15.959999 0.000000 -0.000000 0.000000
12 -12.599999 0.000000 -13.680000 0.000000 0.000000 0.000000
13 2.699999 0.000000 -13.680000 0.000000 -0.000000 0.000000
14 21.600000 13.000000 -2.280003 0.000000 0.205061 0.000000
15 -0.900000 0.000000 -16.719999 0.000000 -0.000000 0.000000
16 1.799999 0.000000 -11.400000 0.000000 0.000000 0.000000
17 0.900000 0.000000 -13.680000 0.000000 -0.000000 0.000000
18 -26.100000 13.000000 -0.760002 0.000000 0.205061 0.000000
19 10.800000 0.000000 -15.959999 0.000000 -0.197990 0.000000
20 -12.599999 0.000000 -13.680000 0.000000 0.226274 0.000000
21 2.699999 0.000000 -13.680000 0.000000 -0.084853 0.000000
time 22
0 0.000000 0.000000 0.000000 0.000000 0.000000 0.000000
1 0.000000 0.000000 51.398327 0.000000 0.000000 0.000000
2 24.299999 0.000000 6.840000 0.000000 -0.017500 0.000000
3 18.900002 0.000000 16.719997 0.000000 0.014000 0.000000
4 -35.099998 0.000000 5.320000 -0.020000 0.000000 0.000000
5 -11.700001 0.000000 -14.440002 0.000000 0.000000 0.000000
6 21.600000 -13.000000 -2.280003 0.000000 -0.145000 0.000000
7 -0.900000 0.000000 -16.719999 0.000000 -0.242487 0.000000
8 1.799999 0.000000 -11.400000 0.000000 0.277128 0.000000
9 0.900000 0.000000 -13.680000 0.000000 -0.103923 0.000000
10 -26.100000 -13.000000 -0.760002 0.000000 -0.251147 0.000000
11 10.800000 0.000000 -15.959999 0.000000 -0.000000 0.000000
12 -12.599999 0.000000 -13.680000 0.000000 0.000000 0.000000
13 2.699999 0.000000 -13.680000 0.000000 -0.000000 0.000000
14 21.600000 13.000000 -2.280003 0.000000 0.145000 0.000000
15 -0.900000 0.000000 -16.719999 0.000000 -0.000000 0.000000
16 1.799999 0.000000 -11.400000 0.000000 0.000000 0.000000
17 0.900000 0.000000 -13.680000 0.000000 -0.000000 0.000000
18 -26.100000 13.000000 -0.760002 0.000000 0.251147 0.000000
19 10.800000 0.000000 -15.959999 0.000000 -0.140000 0.000000
20 -12.599999 0.000000 -13.680000 0.000000 0.160000 0.000000
21 2.699999 0.000000 -13.680000 0.000000 -0.060000 0.000000
time 23
0 0.000000 0.000000 0.000000 0.000000 0.000000 0.000000
1 0.000000 0.000000 50.430939 0.000000 0.000000 0.000000
2 24.299999 0.000000 6.840000 0.000000 -0.009059 0.000000
3 18.900002 0.000000 16.719997 0.000000 0.007247 0.000000
4 -35.099998 0.000000 5.320000 -0.010353 0.000000 0.000000
5 -11.700001 0.000000 -14.440002 0.000000 0.000000 0.000000
6 21.600000 -13.000000 -2.280003 0.000000 -0.075058 0.000000
7 -0.900000 0.000000 -16.719999 0.000000 -0.270459 0.000000
8 1.799999 0.000000 -11.400000 0.000000 0.309096 0.000000
9 0.900000 0.000000 -13.680000 0.000000 -0.115911 0.000000
10 -26.100000 -13.000000 -0.760002 0.000000 -0.280118 0.000000
11 10.800000 0.000000 -15.959999 0.000000 -0.000000 0.000000
12 -12.599999 0.000000 -13.680000 0.000000 0.000000 0.000000
13 2.699999 0.000000 -13.680000 0.000000 -0.000000 0.000000
14 21.600000 13.000000 -2.280003 0.000000 0.075058 0.000000
15 -0.900000 0.000000 -16.719999 0.000000 -0.000000 0.000000
16 1.799999 0.000000 -11.400000 0.000000 0.000000 0.000000
17 0.900000 0.000000 -13.680000 0.000000 -0.000000 0.000000
18 -26.100000 13.000000 -0.760002 0.000000 0.280118 0.000000
19 10.800000 0.000000 -15.959999 0.000000 -0.072469 0.000000
20 -12.599999 0.000000 -13.680000 0.000000 0.082822 0.000000
21 2.699999 0.000000 -13.680000 0.000000 -0.031058 0.000000
time 24
0 0.000000 0.000000 0.000000 0.000000 0.000000 0.000000
1 0.000000 0.000000 49.379562 0.000000 0.000000 0.000000
2 24.299999 0.000000 6.840000 0.000000 -0.000000 0.000000
3 18.900002 0.000000 16.719997 0.000000 0.000000 0.000000
4 -35.099998 0.000000 5.320000 -0.000000 0.000000 0.000000
5 -11.700001 0.000000 -14.440002 0.000000 0.000000 0.000000
6 21.600000 -13.000000 -2.280003 0.000000 -0.000000 0.000000
7 -0.900000 0.000000 -16.719999 0.000000 -0.280000 0.000000
8 1.799999 0.000000 -11.400000 0.000000 0.320000 0.000000
9 0.900000 0.000000 -13.680000 0.000000 -0.120000 0.000000
10 -26.100000 -13.000000 -0.760002 0.000000 -0.290000 0.000000
11 10.800000 0.000000 -15.959999 0.000000 -0.000000 0.000000
12 -12.599999 0.000000 -13.680000 0.000000 0.000000 0.000000
13 2.699999 0.000000 -13.680000 0.000000 -0.000000 0.000000
14 21.600000 13.000000 -2.280003 0.000000 0.000000 0.000000
15 -0.900000 0.000000 -16.719999 0.000000 -0.000000 0.000000
16 1.799999 0.000000 -11.400000 0.000000 0.000000 0.000000
17 0.900000 0.000000 -13.680000 0.000000 -0.000000 0.000000
18 -26.100000 13.000000 -0.760002 0.000000 0.290000 0.000000
19 10.800000 0.000000 -15.959999 0.000000 -0.000000 0.000000
20 -12.599999 0.000000 -13.680000 0.000000 0.000000 0.000000
21 2.699999 0.000000 -13.680000 0.000000 -0.000000 0.000000
end
