version 1
nodes
0 "root" -1
1 "body" 0
2 "neck" 1
3 "head" 2
4 "tail" 1
5 "tail_tip" 4
6 "front_L_upper" 1
7 "front_L_lower" 6
8 "front_L_cannon" 7
9 "front_L_hoof" 8
10 "hind_L_upper" 1
11 "hind_L_lower" 10
12 "hind_L_cannon" 11
13 "hind_L_hoof" 12
14 "front_R_upper" 1
15 "front_R_lower" 14
16 "front_R_cannon" 15
17 "front_R_hoof" 16
18 "hind_R_upper" 1
19 "hind_R_lower" 18
20 "hind_R_cannon" 19
21 "hind_R_hoof" 20
end
skeleton
time 0
0 0.000000 0.000000 0.000000 0.000000 0.000000 0.000000
1 0.000000 0.000000 49.400002 0.000000 0.000000 0.000000
2 24.299999 0.000000 6.840000 0.000000 0.000000 0.000000
3 18.900002 0.000000 16.719997 0.000000 0.011596 0.000000
4 -35.099998 0.000000 5.320000 0.000000 0.000000 0.000000
5 -11.700001 0.000000 -14.440002 0.064562 0.000000 0.000000
6 21.600000 -13.000000 -2.280003 0.000000 0.000000 0.000000
7 -0.900000 0.000000 -16.719999 0.000000 0.000000 0.000000
8 1.799999 0.000000 -11.400000 0.000000 0.000000 0.000000
9 0.900000 0.000000 -13.680000 0.000000 0.000000 0.000000
10 -26.100000 -13.000000 -0.760002 0.000000 0.000000 0.000000
11 10.800000 0.000000 -15.959999 0.000000 0.000000 0.000000
12 -12.599999 0.000000 -13.680000 0.000000 0.000000 0.000000
13 2.699999 0.000000 -13.680000 0.000000 0.000000 0.000000
14 21.600000 13.000000 -2.280003 0.000000 0.000000 0.000000
15 -0.900000 0.000000 -16.719999 0.000000 0.000000 0.000000
16 1.799999 0.000000 -11.400000 0.000000 0.000000 0.000000
17 0.900000 0.000000 -13.680000 0.000000 0.000000 0.000000
18 -26.100000 13.000000 -0.760002 0.000000 0.000000 0.000000
19 10.800000 0.000000 -15.959999 0.000000 0.000000 0.000000
20 -12.599999 0.000000 -13.680000 0.000000 0.000000 0.000000
21 2.699999 0.000000 -13.680000 0.000000 0.000000 0.000000
time 1
0 0.000000 0.000000 0.000000 0.000000 0.000000 0.000000
1 0.000000 0.000000 49.454754 0.000000 0.000000 0.000000
2 24.299999 0.000000 6.840000 0.000000 0.002190 0.000000
3 18.900002 0.000000 16.719997 0.000000 0.013607 0.000000
4 -35.099998 0.000000 5.320000 0.012515 0.000000 0.000000
5 -11.700001 0.000000 -14.440002 0.073576 0.000000 0.000000
6 21.600000 -13.000000 -2.280003 0.000000 0.000000 0.000000
7 -0.900000 0.000000 -16.719999 0.000000 0.000000 0.000000
8 1.799999 0.000000 -11.400000 0.000000 0.000000 0.000000
9 0.900000 0.000000 -13.680000 0.000000 0.000000 0.000000
10 -26.100000 -13.000000 -0.760002 0.000000 0.000000 0.000000
11 10.800000 0.000000 -15.959999 0.000000 0.000000 0.000000
12 -12.599999 0.000000 -13.680000 0.000000 0.000000 0.000000
13 2.699999 0.000000 -13.680000 0.000000 0.000000 0.000000
14 21.600000 13.000000 -2.280003 0.000000 0.000000 0.000000
15 -0.900000 0.000000 -16.719999 0.000000 0.000000 0.000000
16 1.799999 0.000000 -11.400000 0.000000 0.000000 0.000000
17 0.900000 0.000000 -13.680000 0.000000 0.000000 0.000000
18 -26.100000 13.000000 -0.760002 0.000000 0.000000 0.000000
19 10.800000 0.000000 -15.959999 0.000000 0.000000 0.000000
20 -12.599999 0.000000 -13.680000 0.000000 0.000000 0.000000
21 2.699999 0.000000 -13.680000 0.000000 0.000000 0.000000
time 2
0 0.000000 0.000000 0.000000 0.000000 0.000000 0.000000
1 0.000000 0.000000 49.508156 0.000000 0.000000 0.000000
2 24.299999 0.000000 6.840000 0.000000 0.004326 0.000000
3 18.900002 0.000000 16.719997 0.000000 0.015283 0.000000
4 -35.099998 0.000000 5.320000 0.024721 0.000000 0.000000
5 -11.700001 0.000000 -14.440002 0.080779 0.000000 0.000000
6 21.600000 -13.000000 -2.280003 0.000000 0.000000 0.000000
7 -0.900000 0.000000 -16.719999 0.000000 0.000000 0.000000
8 1.799999 0.000000 -11.400000 0.000000 0.000000 0.000000
9 0.900000 0.000000 -13.680000 0.000000 0.000000 0.000000
10 -26.100000 -13.000000 -0.760002 0.000000 0.000000 0.000000
11 10.800000 0.000000 -15.959999 0.000000 0.000000 0.000000
12 -12.599999 0.000000 -13.680000 0.000000 0.000000 0.000000
13 2.699999 0.000000 -13.680000 0.000000 0.000000 0.000000
14 21.600000 13.000000 -2.280003 0.000000 0.000000 0.000000
15 -0.900000 0.000000 -16.719999 0.000000 0.000000 0.000000
16 1.799999 0.000000 -11.400000 0.000000 0.000000 0.000000
17 0.900000 0.000000 -13.680000 0.000000 0.000000 0.000000
18 -26.100000 13.000000 -0.760002 0.000000 0.000000 0.000000
19 10.800000 0.000000 -15.959999 0.000000 0.000000 0.000000
20 -12.599999 0.000000 -13.680000 0.000000 0.000000 0.000000
21 2.699999 0.000000 -13.680000 0.000000 0.000000 0.000000
time 3
0 0.000000 0.000000 0.000000 0.000000 0.000000 0.000000
1 0.000000 0.000000 49.558899 0.000000 0.000000 0.000000
2 24.299999 0.000000 6.840000 0.000000 0.006356 0.000000
3 18.900002 0.000000 16.719997 0.000000 0.016582 0.000000
4 -35.099998 0.000000 5.320000 0.036319 0.000000 0.000000
5 -11.700001 0.000000 -14.440002 0.085992 0.000000 0.000000
6 21.600000 -13.000000 -2.280003 0.000000 0.000000 0.000000
7 -0.900000 0.000000 -16.719999 0.000000 0.000000 0.000000
8 1.799999 0.000000 -11.400000 0.000000 0.000000 0.000000
9 0.900000 0.000000 -13.680000 0.000000 0.000000 0.000000
10 -26.100000 -13.000000 -0.760002 0.000000 0.000000 0.000000
11 10.800000 0.000000 -15.959999 0.000000 0.000000 0.000000
12 -12.599999 0.000000 -13.680000 0.000000 0.000000 0.000000
13 2.699999 0.000000 -13.680000 0.000000 0.000000 0.000000
14 21.600000 13.000000 -2.280003 0.000000 0.000000 0.000000
15 -0.900000 0.000000 -16.719999 0.000000 0.000000 0.000000
16 1.799999 0.000000 -11.400000 0.000000 0.000000 0.000000
17 0.900000 0.000000 -13.680000 0.000000 0.000000 0.000000
18 -26.100000 13.000000 -0.760002 0.000000 0.000000 0.000000
19 10.800000 0.000000 -15.959999 0.000000 0.000000 0.000000
20 -12.599999 0.000000 -13.680000 0.000000 0.000000 0.000000
21 2.699999 0.000000 -13.680000 0.000000 0.000000 0.000000
time 4
0 0.000000 0.000000 0.000000 0.000000 0.000000 0.000000
1 0.000000 0.000000 49.605728 0.000000 0.000000 0.000000
2 24.299999 0.000000 6.840000 0.000000 0.008229 0.000000
3 18.900002 0.000000 16.719997 0.000000 0.017473 0.000000
4 -35.099998 0.000000 5.320000 0.047023 0.000000 0.000000
5 -11.700001 0.000000 -14.440002 0.089088 0.000000 0.000000
6 21.600000 -13.000000 -2.280003 0.000000 0.000000 0.000000
7 -0.900000 0.000000 -16.719999 0.000000 0.000000 0.000000
8 1.799999 0.000000 -11.400000 0.000000 0.000000 0.000000
9 0.900000 0.000000 -13.680000 0.000000 0.000000 0.000000
10 -26.100000 -13.000000 -0.760002 0.000000 0.000000 0.000000
11 10.800000 0.000000 -15.959999 0.000000 0.000000 0.000000
12 -12.599999 0.000000 -13.680000 0.000000 0.000000 0.000000
13 2.699999 0.000000 -13.680000 0.000000 0.000000 0.000000
14 21.600000 13.000000 -2.280003 0.000000 0.000000 0.000000
15 -0.900000 0.000000 -16.719999 0.000000 0.000000 0.000000
16 1.799999 0.000000 -11.400000 0.000000 0.000000 0.000000
17 0.900000 0.000000 -13.680000 0.000000 0.000000 0.000000
18 -26.100000 13.000000 -0.760002 0.000000 0.000000 0.000000
19 10.800000 0.000000 -15.959999 0.000000 0.000000 0.000000
20 -12.599999 0.000000 -13.680000 0.000000 0.000000 0.000000
21 2.699999 0.000000 -13.680000 0.000000 0.000000 0.000000
time 5
0 0.000000 0.000000 0.000000 0.000000 0.000000 0.000000
1 0.000000 0.000000 49.647488 0.000000 0.000000 0.000000
2 24.299999 0.000000 6.840000 0.000000 0.009899 0.000000
3 18.900002 0.000000 16.719997 0.000000 0.017934 0.000000
4 -35.099998 0.000000 5.320000 0.056569 0.000000 0.000000
5 -11.700001 0.000000 -14.440002 0.089990 0.000000 0.000000
6 21.600000 -13.000000 -2.280003 0.000000 0.000000 0.000000
7 -0.900000 0.000000 -16.719999 0.000000 0.000000 0.000000
8 1.799999 0.000000 -11.400000 0.000000 0.000000 0.000000
9 0.900000 0.000000 -13.680000 0.000000 0.000000 0.000000
10 -26.100000 -13.000000 -0.760002 0.000000 0.000000 0.000000
11 10.800000 0.000000 -15.959999 0.000000 0.000000 0.000000
12 -12.599999 0.000000 -13.680000 0.000000 0.000000 0.000000
13 2.699999 0.000000 -13.680000 0.000000 0.000000 0.000000
14 21.600000 13.000000 -2.280003 0.000000 0.000000 0.000000
15 -0.900000 0.000000 -16.719999 0.000000 0.000000 0.000000
16 1.799999 0.000000 -11.400000 0.000000 0.000000 0.000000
17 0.900000 0.000000 -13.680000 0.000000 0.000000 0.000000
18 -26.100000 13.000000 -0.760002 0.000000 0.000000 0.000000
19 10.800000 0.000000 -15.959999 0.000000 0.000000 0.000000
20 -12.599999 0.000000 -13.680000 0.000000 0.000000 0.000000
21 2.699999 0.000000 -13.680000 0.000000 0.000000 0.000000
time 6
0 0.000000 0.000000 0.000000 0.000000 0.000000 0.000000
1 0.000000 0.000000 49.683159 0.000000 0.000000 0.000000
2 24.299999 0.000000 6.840000 0.000000 0.011326 0.000000
3 18.900002 0.000000 16.719997 0.000000 0.017954 0.000000
4 -35.099998 0.000000 5.320000 0.064721 0.000000 0.000000
5 -11.700001 0.000000 -14.440002 0.088677 0.000000 0.000000
6 21.600000 -13.000000 -2.280003 0.000000 0.000000 0.000000
7 -0.900000 0.000000 -16.719999 0.000000 0.000000 0.000000
8 1.799999 0.000000 -11.400000 0.000000 0.000000 0.000000
9 0.900000 0.000000 -13.680000 0.000000 0.000000 0.000000
10 -26.100000 -13.000000 -0.760002 0.000000 0.000000 0.000000
11 10.800000 0.000000 -15.959999 0.000000 0.000000 0.000000
12 -12.599999 0.000000 -13.680000 0.000000 0.000000 0.000000
13 2.699999 0.000000 -13.680000 0.000000 0.000000 0.000000
14 21.600000 13.000000 -2.280003 0.000000 0.000000 0.000000
15 -0.900000 0.000000 -16.719999 0.000000 0.000000 0.000000
16 1.799999 0.000000 -11.400000 0.000000 0.000000 0.000000
17 0.900000 0.000000 -13.680000 0.000000 0.000000 0.000000
18 -26.100000 13.000000 -0.760002 0.000000 0.000000 0.000000
19 10.800000 0.000000 -15.959999 0.000000 0.000000 0.000000
20 -12.599999 0.000000 -13.680000 0.000000 0.000000 0.000000
21 2.699999 0.000000 -13.680000 0.000000 0.000000 0.000000
time 7
0 0.000000 0.000000 0.000000 0.000000 0.000000 0.000000
1 0.000000 0.000000 49.711853 0.000000 0.000000 0.000000
2 24.299999 0.000000 6.840000 0.000000 0.012474 0.000000
3 18.900002 0.000000 16.719997 0.000000 0.017531 0.000000
4 -35.099998 0.000000 5.320000 0.071281 0.000000 0.000000
5 -11.700001 0.000000 -14.440002 0.085180 0.000000 0.000000
6 21.600000 -13.000000 -2.280003 0.000000 0.000000 0.000000
7 -0.900000 0.000000 -16.719999 0.000000 0.000000 0.000000
8 1.799999 0.000000 -11.400000 0.000000 0.000000 0.000000
9 0.900000 0.000000 -13.680000 0.000000 0.000000 0.000000
10 -26.100000 -13.000000 -0.760002 0.000000 0.000000 0.000000
11 10.800000 0.000000 -15.959999 0.000000 0.000000 0.000000
12 -12.599999 0.000000 -13.680000 0.000000 0.000000 0.000000
13 2.699999 0.000000 -13.680000 0.000000 0.000000 0.000000
14 21.600000 13.000000 -2.280003 0.000000 0.000000 0.000000
15 -0.900000 0.000000 -16.719999 0.000000 0.000000 0.000000
16 1.799999 0.000000 -11.400000 0.000000 0.000000 0.000000
17 0.900000 0.000000 -13.680000 0.000000 0.000000 0.000000
18 -26.100000 13.000000 -0.760002 0.000000 0.000000 0.000000
19 10.800000 0.000000 -15.959999 0.000000 0.000000 0.000000
20 -12.599999 0.000000 -13.680000 0.000000 0.000000 0.000000
21 2.699999 0.000000 -13.680000 0.000000 0.000000 0.000000
time 8
0 0.000000 0.000000 0.000000 0.000000 0.000000 0.000000
1 0.000000 0.000000 49.732872 0.000000 0.000000 0.000000
2 24.299999 0.000000 6.840000 0.000000 0.013315 0.000000
3 18.900002 0.000000 16.719997 0.000000 0.016677 0.000000
4 -35.099998 0.000000 5.320000 0.076085 0.000000 0.000000
5 -11.700001 0.000000 -14.440002 0.079585 0.000000 0.000000
6 21.600000 -13.000000 -2.280003 0.000000 0.000000 0.000000
7 -0.900000 0.000000 -16.719999 0.000000 0.000000 0.000000
8 1.799999 0.000000 -11.400000 0.000000 0.000000 0.000000
9 0.900000 0.000000 -13.680000 0.000000 0.000000 0.000000
10 -26.100000 -13.000000 -0.760002 0.000000 0.000000 0.000000
11 10.800000 0.000000 -15.959999 0.000000 0.000000 0.000000
12 -12.599999 0.000000 -13.680000 0.000000 0.000000 0.000000
13 2.699999 0.000000 -13.680000 0.000000 0.000000 0.000000
14 21.600000 13.000000 -2.280003 0.000000 0.000000 0.000000
15 -0.900000 0.000000 -16.719999 0.000000 0.000000 0.000000
16 1.799999 0.000000 -11.400000 0.000000 0.000000 0.000000
17 0.900000 0.000000 -13.680000 0.000000 0.000000 0.000000
18 -26.100000 13.000000 -0.760002 0.000000 0.000000 0.000000
19 10.800000 0.000000 -15.959999 0.000000 0.000000 0.000000
20 -12.599999 0.000000 -13.680000 0.000000 0.000000 0.000000
21 2.699999 0.000000 -13.680000 0.000000 0.000000 0.000000
time 9
0 0.000000 0.000000 0.000000 0.000000 0.000000 0.000000
1 0.000000 0.000000 49.745693 0.000000 0.000000 0.000000
2 24.299999 0.000000 6.840000 0.000000 0.013828 0.000000
3 18.900002 0.000000 16.719997 0.000000 0.015412 0.000000
4 -35.099998 0.000000 5.320000 0.079015 0.000000 0.000000
5 -11.700001 0.000000 -14.440002 0.072031 0.000000 0.000000
6 21.600000 -13.000000 -2.280003 0.000000 0.000000 0.000000
7 -0.900000 0.000000 -16.719999 0.000000 0.000000 0.000000
8 1.799999 0.000000 -11.400000 0.000000 0.000000 0.000000
9 0.900000 0.000000 -13.680000 0.000000 0.000000 0.000000
10 -26.100000 -13.000000 -0.760002 0.000000 0.000000 0.000000
11 10.800000 0.000000 -15.959999 0.000000 0.000000 0.000000
12 -12.599999 0.000000 -13.680000 0.000000 0.000000 0.000000
13 2.699999 0.000000 -13.680000 0.000000 0.000000 0.000000
14 21.600000 13.000000 -2.280003 0.000000 0.000000 0.000000
15 -0.900000 0.000000 -16.719999 0.000000 0.000000 0.000000
16 1.799999 0.000000 -11.400000 0.000000 0.000000 0.000000
17 0.900000 0.000000 -13.680000 0.000000 0.000000 0.000000
18 -26.100000 13.000000 -0.760002 0.000000 0.000000 0.000000
19 10.800000 0.000000 -15.959999 0.000000 0.000000 0.000000
20 -12.599999 0.000000 -13.680000 0.000000 0.000000 0.000000
21 2.699999 0.000000 -13.680000 0.000000 0.000000 0.000000
time 10
0 0.000000 0.000000 0.000000 0.000000 0.000000 0.000000
1 0.000000 0.000000 49.750000 0.000000 0.000000 0.000000
2 24.299999 0.000000 6.840000 0.000000 0.014000 0.000000
3 18.900002 0.000000 16.719997 0.000000 0.013767 0.000000
4 -35.099998 0.000000 5.320000 0.080000 0.000000 0.000000
5 -11.700001 0.000000 -14.440002 0.062704 0.000000 0.000000
6 21.600000 -13.000000 -2.280003 0.000000 0.000000 0.000000
7 -0.900000 0.000000 -16.719999 0.000000 0.000000 0.000000
8 1.799999 0.000000 -11.400000 0.000000 0.000000 0.000000
9 0.900000 0.000000 -13.680000 0.000000 0.000000 0.000000
10 -26.100000 -13.000000 -0.760002 0.000000 0.000000 0.000000
11 10.800000 0.000000 -15.959999 0.000000 0.000000 0.000000
12 -12.599999 0.000000 -13.680000 0.000000 0.000000 0.000000
13 2.699999 0.000000 -13.680000 0.000000 0.000000 0.000000
14 21.600000 13.000000 -2.280003 0.000000 0.000000 0.000000
15 -0.900000 0.000000 -16.719999 0.000000 0.000000 0.000000
16 1.799999 0.000000 -11.400000 0.000000 0.000000 0.000000
17 0.900000 0.000000 -13.680000 0.000000 0.000000 0.000000
18 -26.100000 13.000000 -0.760002 0.000000 0.000000 0.000000
19 10.800000 0.000000 -15.959999 0.000000 0.000000 0.000000
20 -12.599999 0.000000 -13.680000 0.000000 0.000000 0.000000
21 2.699999 0.000000 -13.680000 0.000000 0.000000 0.000000
time 11
0 0.000000 0.000000 0.000000 0.000000 0.000000 0.000000
1 0.000000 0.000000 49.745693 0.000000 0.000000 0.000000
2 24.299999 0.000000 6.840000 0.000000 0.013828 0.000000
3 18.900002 0.000000 16.719997 0.000000 0.011784 0.000000
4 -35.099998 0.000000 5.320000 0.079015 0.000000 0.000000
5 -11.700001 0.000000 -14.440002 0.051832 0.000000 0.000000
6 21.600000 -13.000000 -2.280003 0.000000 0.000000 0.000000
7 -0.900000 0.000000 -16.719999 0.000000 0.000000 0.000000
8 1.799999 0.000000 -11.400000 0.000000 0.000000 0.000000
9 0.900000 0.000000 -13.680000 0.000000 0.000000 0.000000
10 -26.100000 -13.000000 -0.760002 0.000000 0.000000 0.000000
11 10.800000 0.000000 -15.959999 0.000000 0.000000 0.000000
12 -12.599999 0.000000 -13.680000 0.000000 0.000000 0.000000
13 2.699999 0.000000 -13.680000 0.000000 0.000000 0.000000
14 21.600000 13.000000 -2.280003 0.000000 0.000000 0.000000
15 -0.900000 0.000000 -16.719999 0.000000 0.000000 0.000000
16 1.799999 0.000000 -11.400000 0.000000 0.000000 0.000000
17 0.900000 0.000000 -13.680000 0.000000 0.000000 0.000000
18 -26.100000 13.000000 -0.760002 0.000000 0.000000 0.000000
19 10.800000 0.000000 -15.959999 0.000000 0.000000 0.000000
20 -12.599999 0.000000 -13.680000 0.000000 0.000000 0.000000
21 2.699999 0.000000 -13.680000 0.000000 0.000000 0.000000
time 12
0 0.000000 0.000000 0.000000 0.000000 0.000000 0.000000
1 0.000000 0.000000 49.732872 0.000000 0.000000 0.000000
2 24.299999 0.000000 6.840000 0.000000 0.013315 0.000000
3 18.900002 0.000000 16.719997 0.000000 0.009510 0.000000
4 -35.099998 0.000000 5.320000 0.076085 0.000000 0.000000
5 -11.700001 0.000000 -14.440002 0.039684 0.000000 0.000000
6 21.600000 -13.000000 -2.280003 0.000000 0.000000 0.000000
7 -0.900000 0.000000 -16.719999 0.000000 0.000000 0.000000
8 1.799999 0.000000 -11.400000 0.000000 0.000000 0.000000
9 0.900000 0.000000 -13.680000 0.000000 0.000000 0.000000
10 -26.100000 -13.000000 -0.760002 0.000000 0.000000 0.000000
11 10.800000 0.000000 -15.959999 0.000000 0.000000 0.000000
12 -12.599999 0.000000 -13.680000 0.000000 0.000000 0.000000
13 2.699999 0.000000 -13.680000 0.000000 0.000000 0.000000
14 21.600000 13.000000 -2.280003 0.000000 0.000000 0.000000
15 -0.900000 0.000000 -16.719999 0.000000 0.000000 0.000000
16 1.799999 0.000000 -11.400000 0.000000 0.000000 0.000000
17 0.900000 0.000000 -13.680000 0.000000 0.000000 0.000000
18 -26.100000 13.000000 -0.760002 0.000000 0.000000 0.000000
19 10.800000 0.000000 -15.959999 0.000000 0.000000 0.000000
20 -12.599999 0.000000 -13.680000 0.000000 0.000000 0.000000
21 2.699999 0.000000 -13.680000 0.000000 0.000000 0.000000
time 13
0 0.000000 0.000000 0.000000 0.000000 0.000000 0.000000
1 0.000000 0.000000 49.711853 0.000000 0.000000 0.000000
2 24.299999 0.000000 6.840000 0.000000 0.012474 0.000000
3 18.900002 0.000000 16.719997 0.000000 0.007002 0.000000
4 -35.099998 0.000000 5.320000 0.071281 0.000000 0.000000
5 -11.700001 0.000000 -14.440002 0.026559 0.000000 0.000000
6 21.600000 -13.000000 -2.280003 0.000000 0.000000 0.000000
7 -0.900000 0.000000 -16.719999 0.000000 0.000000 0.000000
8 1.799999 0.000000 -11.400000 0.000000 0.000000 0.000000
9 0.900000 0.000000 -13.680000 0.000000 0.000000 0.000000
10 -26.100000 -13.000000 -0.760002 0.000000 0.000000 0.000000
11 10.800000 0.000000 -15.959999 0.000000 0.000000 0.000000
12 -12.599999 0.000000 -13.680000 0.000000 0.000000 0.000000
13 2.699999 0.000000 -13.680000 0.000000 0.000000 0.000000
14 21.600000 13.000000 -2.280003 0.000000 0.000000 0.000000
15 -0.900000 0.000000 -16.719999 0.000000 0.000000 0.000000
16 1.799999 0.000000 -11.400000 0.000000 0.000000 0.000000
17 0.900000 0.000000 -13.680000 0.000000 0.000000 0.000000
18 -26.100000 13.000000 -0.760002 0.000000 0.000000 0.000000
19 10.800000 0.000000 -15.959999 0.000000 0.000000 0.000000
20 -12.599999 0.000000 -13.680000 0.000000 0.000000 0.000000
21 2.699999 0.000000 -13.680000 0.000000 0.000000 0.000000
time 14
0 0.000000 0.000000 0.000000 0.000000 0.000000 0.000000
1 0.000000 0.000000 49.683159 0.000000 0.000000 0.000000
2 24.299999 0.000000 6.840000 0.000000 0.011326 0.000000
3 18.900002 0.000000 16.719997 0.000000 0.004322 0.000000
4 -35.099998 0.000000 5.320000 0.064721 0.000000 0.000000
5 -11.700001 0.000000 -14.440002 0.012780 0.000000 0.000000
6 21.600000 -13.000000 -2.280003 0.000000 0.000000 0.000000
7 -0.900000 0.000000 -16.719999 0.000000 0.000000 0.000000
8 1.799999 0.000000 -11.400000 0.000000 0.000000 0.000000
9 0.900000 0.000000 -13.680000 0.000000 0.000000 0.000000
10 -26.100000 -13.000000 -0.760002 0.000000 0.000000 0.000000
11 10.800000 0.000000 -15.959999 0.000000 0.000000 0.000000
12 -12.599999 0.000000 -13.680000 0.000000 0.000000 0.000000
13 2.699999 0.000000 -13.680000 0.000000 0.000000 0.000000
14 21.600000 13.000000 -2.280003 0.000000 0.000000 0.000000
15 -0.900000 0.000000 -16.719999 0.000000 0.000000 0.000000
16 1.799999 0.000000 -11.400000 0.000000 0.000000 0.000000
17 0.900000 0.000000 -13.680000 0.000000 0.000000 0.000000
18 -26.100000 13.000000 -0.760002 0.000000 0.000000 0.000000
19 10.800000 0.000000 -15.959999 0.000000 0.000000 0.000000
20 -12.599999 0.000000 -13.680000 0.000000 0.000000 0.000000
21 2.699999 0.000000 -13.680000 0.000000 0.000000 0.000000
time 15
0 0.000000 0.000000 0.000000 0.000000 0.000000 0.000000
1 0.000000 0.000000 49.647488 0.000000 0.000000 0.000000
2 24.299999 0.000000 6.840000 0.000000 0.009899 0.000000
3 18.900002 0.000000 16.719997 0.000000 0.001535 0.000000
4 -35.099998 0.000000 5.320000 0.056569 0.000000 0.000000
5 -11.700001 0.000000 -14.440002 -0.001314 0.000000 0.000000
6 21.600000 -13.000000 -2.280003 0.000000 0.000000 0.000000
7 -0.900000 0.000000 -16.719999 0.000000 0.000000 0.000000
8 1.799999 0.000000 -11.400000 0.000000 0.000000 0.000000
9 0.900000 0.000000 -13.680000 0.000000 0.000000 0.000000
10 -26.100000 -13.000000 -0.760002 0.000000 0.000000 0.000000
11 10.800000 0.000000 -15.959999 0.000000 0.000000 0.000000
12 -12.599999 0.000000 -13.680000 0.000000 0.000000 0.000000
13 2.699999 0.000000 -13.680000 0.000000 0.000000 0.000000
14 21.600000 13.000000 -2.280003 0.000000 0.000000 0.000000
15 -0.900000 0.000000 -16.719999 0.000000 0.000000 0.000000
16 1.799999 0.000000 -11.400000 0.000000 0.000000 0.000000
17 0.900000 0.000000 -13.680000 0.000000 0.000000 0.000000
18 -26.100000 13.000000 -0.760002 0.000000 0.000000 0.000000
19 10.800000 0.000000 -15.959999 0.000000 0.000000 0.000000
20 -12.599999 0.000000 -13.680000 0.000000 0.000000 0.000000
21 2.699999 0.000000 -13.680000 0.000000 0.000000 0.000000
time 16
0 0.000000 0.000000 0.000000 0.000000 0.000000 0.000000
1 0.000000 0.000000 49.605728 0.000000 0.000000 0.000000
2 24.299999 0.000000 6.840000 0.000000 0.008229 0.000000
3 18.900002 0.000000 16.719997 0.000000 -0.001289 0.000000
4 -35.099998 0.000000 5.320000 0.047023 0.000000 0.000000
5 -11.700001 0.000000 -14.440002 -0.015376 0.000000 0.000000
6 21.600000 -13.000000 -2.280003 0.000000 0.000000 0.000000
7 -0.900000 0.000000 -16.719999 0.000000 0.000000 0.000000
8 1.799999 0.000000 -11.400000 0.000000 0.000000 0.000000
9 0.900000 0.000000 -13.680000 0.000000 0.000000 0.000000
10 -26.100000 -13.000000 -0.760002 0.000000 0.000000 0.000000
11 10.800000 0.000000 -15.959999 0.000000 0.000000 0.000000
12 -12.599999 0.000000 -13.680000 0.000000 0.000000 0.000000
13 2.699999 0.000000 -13.680000 0.000000 0.000000 0.000000
14 21.600000 13.000000 -2.280003 0.000000 0.000000 0.000000
15 -0.900000 0.000000 -16.719999 0.000000 0.000000 0.000000
16 1.799999 0.000000 -11.400000 0.000000 0.000000 0.000000
17 0.900000 0.000000 -13.680000 0.000000 0.000000 0.000000
18 -26.100000 13.000000 -0.760002 0.000000 0.000000 0.000000
19 10.800000 0.000000 -15.959999 0.000000 0.000000 0.000000
20 -12.599999 0.000000 -13.680000 0.000000 0.000000 0.000000
21 2.699999 0.000000 -13.680000 0.000000 0.000000 0.000000
time 17
0 0.000000 0.000000 0.000000 0.000000 0.000000 0.000000
1 0.000000 0.000000 49.558899 0.000000 0.000000 0.000000
2 24.299999 0.000000 6.840000 0.000000 0.006356 0.000000
3 18.900002 0.000000 16.719997 0.000000 -0.004082 0.000000
4 -35.099998 0.000000 5.320000 0.036319 0.000000 0.000000
5 -11.700001 0.000000 -14.440002 -0.029058 0.000000 0.000000
6 21.600000 -13.000000 -2.280003 0.000000 0.000000 0.000000
7 -0.900000 0.000000 -16.719999 0.000000 0.000000 0.000000
8 1.799999 0.000000 -11.400000 0.000000 0.000000 0.000000
9 0.900000 0.000000 -13.680000 0.000000 0.000000 0.000000
10 -26.100000 -13.000000 -0.760002 0.000000 0.000000 0.000000
11 10.800000 0.000000 -15.959999 0.000000 0.000000 0.000000
12 -12.599999 0.000000 -13.680000 0.000000 0.000000 0.000000
13 2.699999 0.000000 -13.680000 0.000000 0.000000 0.000000
14 21.600000 13.000000 -2.280003 0.000000 0.000000 0.000000
15 -0.900000 0.000000 -16.719999 0.000000 0.000000 0.000000
16 1.799999 0.000000 -11.400000 0.000000 0.000000 0.000000
17 0.900000 0.000000 -13.680000 0.000000 0.000000 0.000000
18 -26.100000 13.000000 -0.760002 0.000000 0.000000 0.000000
19 10.800000 0.000000 -15.959999 0.000000 0.000000 0.000000
20 -12.599999 0.000000 -13.680000 0.000000 0.000000 0.000000
21 2.699999 0.000000 -13.680000 0.000000 0.000000 0.000000
time 18
0 0.000000 0.000000 0.000000 0.000000 0.000000 0.000000
1 0.000000 0.000000 49.508156 0.000000 0.000000 0.000000
2 24.299999 0.000000 6.840000 0.000000 0.004326 0.000000
3 18.900002 0.000000 16.719997 0.000000 -0.006774 0.000000
4 -35.099998 0.000000 5.320000 0.024721 0.000000 0.000000
5 -11.700001 0.000000 -14.440002 -0.042026 0.000000 0.000000
6 21.600000 -13.000000 -2.280003 0.000000 0.000000 0.000000
7 -0.900000 0.000000 -16.719999 0.000000 0.000000 0.000000
8 1.799999 0.000000 -11.400000 0.000000 0.000000 0.000000
9 0.900000 0.000000 -13.680000 0.000000 0.000000 0.000000
10 -26.100000 -13.000000 -0.760002 0.000000 0.000000 0.000000
11 10.800000 0.000000 -15.959999 0.000000 0.000000 0.000000
12 -12.599999 0.000000 -13.680000 0.000000 0.000000 0.000000
13 2.699999 0.000000 -13.680000 0.000000 0.000000 0.000000
14 21.600000 13.000000 -2.280003 0.000000 0.000000 0.000000
15 -0.900000 0.000000 -16.719999 0.000000 0.000000 0.000000
16 1.799999 0.000000 -11.400000 0.000000 0.000000 0.000000
17 0.900000 0.000000 -13.680000 0.000000 0.000000 0.000000
18 -26.100000 13.000000 -0.760002 0.000000 0.000000 0.000000
19 10.800000 0.000000 -15.959999 0.000000 0.000000 0.000000
20 -12.599999 0.000000 -13.680000 0.000000 0.000000 0.000000
21 2.699999 0.000000 -13.680000 0.000000 0.000000 0.000000
time 19
0 0.000000 0.000000 0.000000 0.000000 0.000000 0.000000
1 0.000000 0.000000 49.454754 0.000000 0.000000 0.000000
2 24.299999 0.000000 6.840000 0.000000 0.002190 0.000000
3 18.900002 0.000000 16.719997 0.000000 -0.009299 0.000000
4 -35.099998 0.000000 5.320000 0.012515 0.000000 0.000000
5 -11.700001 0.000000 -14.440002 -0.053958 0.000000 0.000000
6 21.600000 -13.000000 -2.280003 0.000000 0.000000 0.000000
7 -0.900000 0.000000 -16.719999 0.000000 0.000000 0.000000
8 1.799999 0.000000 -11.400000 0.000000 0.000000 0.000000
9 0.900000 0.000000 -13.680000 0.000000 0.000000 0.000000
10 -26.100000 -13.000000 -0.760002 0.000000 0.000000 0.000000
11 10.800000 0.000000 -15.959999 0.000000 0.000000 0.000000
12 -12.599999 0.000000 -13.680000 0.000000 0.000000 0.000000
13 2.699999 0.000000 -13.680000 0.000000 0.000000 0.000000
14 21.600000 13.000000 -2.280003 0.000000 0.000000 0.000000
15 -0.900000 0.000000 -16.719999 0.000000 0.000000 0.000000
16 1.799999 0.000000 -11.400000 0.000000 0.000000 0.000000
17 0.900000 0.000000 -13.680000 0.000000 0.000000 0.000000
18 -26.100000 13.000000 -0.760002 0.000000 0.000000 0.000000
19 10.800000 0.000000 -15.959999 0.000000 0.000000 0.000000
20 -12.599999 0.000000 -13.680000 0.000000 0.000000 0.000000
21 2.699999 0.000000 -13.680000 0.000000 0.000000 0.000000
time 20
0 0.000000 0.000000 0.000000 0.000000 0.000000 0.000000
1 0.000000 0.000000 49.400002 0.000000 0.000000 0.000000
2 24.299999 0.000000 6.840000 0.000000 0.000000 0.000000
3 18.900002 0.000000 16.719997 0.000000 -0.011596 0.000000
4 -35.099998 0.000000 5.320000 0.000000 0.000000 0.000000
5 -11.700001 0.000000 -14.440002 -0.064562 0.000000 0.000000
6 21.600000 -13.000000 -2.280003 0.000000 0.000000 0.000000
7 -0.900000 0.000000 -16.719999 0.000000 0.000000 0.000000
8 1.799999 0.000000 -11.400000 0.000000 0.000000 0.000000
9 0.900000 0.000000 -13.680000 0.000000 0.000000 0.000000
10 -26.100000 -13.000000 -0.760002 0.000000 0.000000 0.000000
11 10.800000 0.000000 -15.959999 0.000000 0.000000 0.000000
12 -12.599999 0.000000 -13.680000 0.000000 0.000000 0.000000
13 2.699999 0.000000 -13.680000 0.000000 0.000000 0.000000
14 21.600000 13.000000 -2.280003 0.000000 0.000000 0.000000
15 -0.900000 0.000000 -16.719999 0.000000 0.000000 0.000000
16 1.799999 0.000000 -11.400000 0.000000 0.000000 0.000000
17 0.900000 0.000000 -13.680000 0.000000 0.000000 0.000000
18 -26.100000 13.000000 -0.760002 0.000000 0.000000 0.000000
19 10.800000 0.000000 -15.959999 0.000000 0.000000 0.000000
20 -12.599999 0.000000 -13.680000 0.000000 0.000000 0.000000
21 2.699999 0.000000 -13.680000 0.000000 0.000000 0.000000
time 21
0 0.000000 0.000000 0.000000 0.000000 0.000000 0.000000
1 0.000000 0.000000 49.345249 0.000000 0.000000 0.000000
2 24.299999 0.000000 6.840000 0.000000 -0.002190 0.000000
3 18.900002 0.000000 16.719997 0.000000 -0.013607 0.000000
4 -35.099998 0.000000 5.320000 -0.012515 0.000000 0.000000
5 -11.700001 0.000000 -14.440002 -0.073576 0.000000 0.000000
6 21.600000 -13.000000 -2.280003 0.000000 0.000000 0.000000
7 -0.900000 0.000000 -16.719999 0.000000 0.000000 0.000000
8 1.799999 0.000000 -11.400000 0.000000 0.000000 0.000000
9 0.900000 0.000000 -13.680000 0.000000 0.000000 0.000000
10 -26.100000 -13.000000 -0.760002 0.000000 0.000000 0.000000
11 10.800000 0.000000 -15.959999 0.000000 0.000000 0.000000
12 -12.599999 0.000000 -13.680000 0.000000 0.000000 0.000000
13 2.699999 0.000000 -13.680000 0.000000 0.000000 0.000000
14 21.600000 13.000000 -2.280003 0.000000 0.000000 0.000000
15 -0.900000 0.000000 -16.719999 0.000000 0.000000 0.000000
16 1.799999 0.000000 -11.400000 0.000000 0.000000 0.000000
17 0.900000 0.000000 -13.680000 0.000000 0.000000 0.000000
18 -26.100000 13.000000 -0.760002 0.000000 0.000000 0.000000
19 10.800000 0.000000 -15.959999 0.000000 0.000000 0.000000
20 -12.599999 0.000000 -13.680000 0.000000 0.000000 0.000000
21 2.699999 0.000000 -13.680000 0.000000 0.000000 0.000000
time 22
0 0.000000 0.000000 0.000000 0.000000 0.000000 0.000000
1 0.000000 0.000000 49.291847 0.000000 0.000000 0.000000
2 24.299999 0.000000 6.840000 0.000000 -0.004326 0.000000
3 18.900002 0.000000 16.719997 0.000000 -0.015283 0.000000
4 -35.099998 0.000000 5.320000 -0.024721 0.000000 0.000000
5 -11.700001 0.000000 -14.440002 -0.080779 0.000000 0.000000
6 21.600000 -13.000000 -2.280003 0.000000 0.000000 0.000000
7 -0.900000 0.000000 -16.719999 0.000000 0.000000 0.000000
8 1.799999 0.000000 -11.400000 0.000000 0.000000 0.000000
9 0.900000 0.000000 -13.680000 0.000000 0.000000 0.000000
10 -26.100000 -13.000000 -0.760002 0.000000 0.000000 0.000000
11 10.800000 0.000000 -15.959999 0.000000 0.000000 0.000000
12 -12.599999 0.000000 -13.680000 0.000000 0.000000 0.000000
13 2.699999 0.000000 -13.680000 0.000000 0.000000 0.000000
14 21.600000 13.000000 -2.280003 0.000000 0.000000 0.000000
15 -0.900000 0.000000 -16.719999 0.000000 0.000000 0.000000
16 1.799999 0.000000 -11.400000 0.000000 0.000000 0.000000
17 0.900000 0.000000 -13.680000 0.000000 0.000000 0.000000
18 -26.100000 13.000000 -0.760002 0.000000 0.000000 0.000000
19 10.800000 0.000000 -15.959999 0.000000 0.000000 0.000000
20 -12.599999 0.000000 -13.680000 0.000000 0.000000 0.000000
21 2.699999 0.000000 -13.680000 0.000000 0.000000 0.000000
time 23
0 0.000000 0.000000 0.000000 0.000000 0.000000 0.000000
1 0.000000 0.000000 49.241104 0.000000 0.000000 0.000000
2 24.299999 0.000000 6.840000 0.000000 -0.006356 0.000000
3 18.900002 0.000000 16.719997 0.000000 -0.016582 0.000000
4 -35.099998 0.000000 5.320000 -0.036319 0.000000 0.000000
5 -11.700001 0.000000 -14.440002 -0.085992 0.000000 0.000000
6 21.600000 -13.000000 -2.280003 0.000000 0.000000 0.000000
7 -0.900000 0.000000 -16.719999 0.000000 0.000000 0.000000
8 1.799999 0.000000 -11.400000 0.000000 0.000000 0.000000
9 0.900000 0.000000 -13.680000 0.000000 0.000000 0.000000
10 -26.100000 -13.000000 -0.760002 0.000000 0.000000 0.000000
11 10.800000 0.000000 -15.959999 0.000000 0.000000 0.000000
12 -12.599999 0.000000 -13.680000 0.000000 0.000000 0.000000
13 2.699999 0.000000 -13.680000 0.000000 0.000000 0.000000
14 21.600000 13.000000 -2.280003 0.000000 0.000000 0.000000
15 -0.900000 0.000000 -16.719999 0.000000 0.000000 0.000000
16 1.799999 0.000000 -11.400000 0.000000 0.000000 0.000000
17 0.900000 0.000000 -13.680000 0.000000 0.000000 0.000000
18 -26.100000 13.000000 -0.760002 0.000000 0.000000 0.000000
19 10.800000 0.000000 -15.959999 0.000000 0.000000 0.000000
20 -12.599999 0.000000 -13.680000 0.000000 0.000000 0.000000
21 2.699999 0.000000 -13.680000 0.000000 0.000000 0.000000
time 24
0 0.000000 0.000000 0.000000 0.000000 0.000000 0.000000
1 0.000000 0.000000 49.194275 0.000000 0.000000 0.000000
2 24.299999 0.000000 6.840000 0.000000 -0.008229 0.000000
3 18.900002 0.000000 16.719997 0.000000 -0.017473 0.000000
4 -35.099998 0.000000 5.320000 -0.047023 0.000000 0.000000
5 -11.700001 0.000000 -14.440002 -0.089088 0.000000 0.000000
6 21.600000 -13.000000 -2.280003 0.000000 0.000000 0.000000
7 -0.900000 0.000000 -16.719999 0.000000 0.000000 0.000000
8 1.799999 0.000000 -11.400000 0.000000 0.000000 0.000000
9 0.900000 0.000000 -13.680000 0.000000 0.000000 0.000000
10 -26.100000 -13.000000 -0.760002 0.000000 0.000000 0.000000
11 10.800000 0.000000 -15.959999 0.000000 0.000000 0.000000
12 -12.599999 0.000000 -13.680000 0.000000 0.000000 0.000000
13 2.699999 0.000000 -13.680000 0.000000 0.000000 0.000000
14 21.600000 13.000000 -2.280003 0.000000 0.000000 0.000000
15 -0.900000 0.000000 -16.719999 0.000000 0.000000 0.000000
16 1.799999 0.000000 -11.400000 0.000000 0.000000 0.000000
17 0.900000 0.000000 -13.680000 0.000000 0.000000 0.000000
18 -26.100000 13.000000 -0.760002 0.000000 0.000000 0.000000
19 10.800000 0.000000 -15.959999 0.000000 0.000000 0.000000
20 -12.599999 0.000000 -13.680000 0.000000 0.000000 0.000000
21 2.699999 0.000000 -13.680000 0.000000 0.000000 0.000000
time 25
0 0.000000 0.000000 0.000000 0.000000 0.000000 0.000000
1 0.000000 0.000000 49.152515 0.000000 0.000000 0.000000
2 24.299999 0.000000 6.840000 0.000000 -0.009899 0.000000
3 18.900002 0.000000 16.719997 0.000000 -0.017934 0.000000
4 -35.099998 0.000000 5.320000 -0.056569 0.000000 0.000000
5 -11.700001 0.000000 -14.440002 -0.089990 0.000000 0.000000
6 21.600000 -13.000000 -2.280003 0.000000 0.000000 0.000000
7 -0.900000 0.000000 -16.719999 0.000000 0.000000 0.000000
8 1.799999 0.000000 -11.400000 0.000000 0.000000 0.000000
9 0.900000 0.000000 -13.680000 0.000000 0.000000 0.000000
10 -26.100000 -13.000000 -0.760002 0.000000 0.000000 0.000000
11 10.800000 0.000000 -15.959999 0.000000 0.000000 0.000000
12 -12.599999 0.000000 -13.680000 0.000000 0.000000 0.000000
13 2.699999 0.000000 -13.680000 0.000000 0.000000 0.000000
14 21.600000 13.000000 -2.280003 0.000000 0.000000 0.000000
15 -0.900000 0.000000 -16.719999 0.000000 0.000000 0.000000
16 1.799999 0.000000 -11.400000 0.000000 0.000000 0.000000
17 0.900000 0.000000 -13.680000 0.000000 0.000000 0.000000
18 -26.100000 13.000000 -0.760002 0.000000 0.000000 0.000000
19 10.800000 0.000000 -15.959999 0.000000 0.000000 0.000000
20 -12.599999 0.000000 -13.680000 0.000000 0.000000 0.000000
21 2.699999 0.000000 -13.680000 0.000000 0.000000 0.000000
time 26
0 0.000000 0.000000 0.000000 0.000000 0.000000 0.000000
1 0.000000 0.000000 49.116844 0.000000 0.000000 0.000000
2 24.299999 0.000000 6.840000 0.000000 -0.011326 0.000000
3 18.900002 0.000000 16.719997 0.000000 -0.017954 0.000000
4 -35.099998 0.000000 5.320000 -0.064721 0.000000 0.000000
5 -11.700001 0.000000 -14.440002 -0.088677 0.000000 0.000000
6 21.600000 -13.000000 -2.280003 0.000000 0.000000 0.000000
7 -0.900000 0.000000 -16.719999 0.000000 0.000000 0.000000
8 1.799999 0.000000 -11.400000 0.000000 0.000000 0.000000
9 0.900000 0.000000 -13.680000 0.000000 0.000000 0.000000
10 -26.100000 -13.000000 -0.760002 0.000000 0.000000 0.000000
11 10.800000 0.000000 -15.959999 0.000000 0.000000 0.000000
12 -12.599999 0.000000 -13.680000 0.000000 0.000000 0.000000
13 2.699999 0.000000 -13.680000 0.000000 0.000000 0.000000
14 21.600000 13.000000 -2.280003 0.000000 0.000000 0.000000
15 -0.900000 0.000000 -16.719999 0.000000 0.000000 0.000000
16 1.799999 0.000000 -11.400000 0.000000 0.000000 0.000000
17 0.900000 0.000000 -13.680000 0.000000 0.000000 0.000000
18 -26.100000 13.000000 -0.760002 0.000000 0.000000 0.000000
19 10.800000 0.000000 -15.959999 0.000000 0.000000 0.000000
20 -12.599999 0.000000 -13.680000 0.000000 0.000000 0.000000
21 2.699999 0.000000 -13.680000 0.000000 0.000000 0.000000
time 27
0 0.000000 0.000000 0.000000 0.000000 0.000000 0.000000
1 0.000000 0.000000 49.088150 0.000000 0.000000 0.000000
2 24.299999 0.000000 6.840000 0.000000 -0.012474 0.000000
3 18.900002 0.000000 16.719997 0.000000 -0.017531 0.000000
4 -35.099998 0.000000 5.320000 -0.071281 0.000000 0.000000
5 -11.700001 0.000000 -14.440002 -0.085180 0.000000 0.000000
6 21.600000 -13.000000 -2.280003 0.000000 0.000000 0.000000
7 -0.900000 0.000000 -16.719999 0.000000 0.000000 0.000000
8 1.799999 0.000000 -11.400000 0.000000 0.000000 0.000000
9 0.900000 0.000000 -13.680000 0.000000 0.000000 0.000000
10 -26.100000 -13.000000 -0.760002 0.000000 0.000000 0.000000
11 10.800000 0.000000 -15.959999 0.000000 0.000000 0.000000
12 -12.599999 0.000000 -13.680000 0.000000 0.000000 0.000000
13 2.699999 0.000000 -13.680000 0.000000 0.000000 0.000000
14 21.600000 13.000000 -2.280003 0.000000 0.000000 0.000000
15 -0.900000 0.000000 -16.719999 0.000000 0.000000 0.000000
16 1.799999 0.000000 -11.400000 0.000000 0.000000 0.000000
17 0.900000 0.000000 -13.680000 0.000000 0.000000 0.000000
18 -26.100000 13.000000 -0.760002 0.000000 0.000000 0.000000
19 10.800000 0.000000 -15.959999 0.000000 0.000000 0.000000
20 -12.599999 0.000000 -13.680000 0.000000 0.000000 0.000000
21 2.699999 0.000000 -13.680000 0.000000 0.000000 0.000000
time 28
0 0.000000 0.000000 0.000000 0.000000 0.000000 0.000000
1 0.000000 0.000000 49.068001 0.000000 0.000000 0.000000
2 24.299999 0.000000 6.840000 0.000000 -0.013315 0.000000
3 18.900002 0.000000 16.719997 0.000000 -0.016677 0.000000
4 -35.099998 0.000000 5.320000 -0.076085 0.000000 0.000000
5 -11.700001 0.000000 -14.440002 -0.079585 0.000000 0.000000
6 21.600000 -13.000000 -2.280003 0.000000 0.000000 0.000000
7 -0.900000 0.000000 -16.719999 0.000000 0.000000 0.000000
8 1.799999 0.000000 -11.400000 0.000000 0.000000 0.000000
9 0.900000 0.000000 -13.680000 0.000000 0.000000 0.000000
10 -26.100000 -13.000000 -0.760002 0.000000 0.000000 0.000000
11 10.800000 0.000000 -15.959999 0.000000 0.000000 0.000000
12 -12.599999 0.000000 -13.680000 0.000000 0.000000 0.000000
13 2.699999 0.000000 -13.680000 0.000000 0.000000 0.000000
14 21.600000 13.000000 -2.280003 0.000000 0.000000 0.000000
15 -0.900000 0.000000 -16.719999 0.000000 0.000000 0.000000
16 1.799999 0.000000 -11.400000 0.000000 0.000000 0.000000
17 0.900000 0.000000 -13.680000 0.000000 0.000000 0.000000
18 -26.100000 13.000000 -0.760002 0.000000 0.000000 0.000000
19 10.800000 0.000000 -15.959999 0.000000 0.000000 0.000000
20 -12.599999 0.000000 -13.680000 0.000000 0.000000 0.000000
21 2.699999 0.000000 -13.680000 0.000000 0.000000 0.000000
time 29
0 0.000000 0.000000 0.000000 0.000000 0.000000 0.000000
1 0.000000 0.000000 49.068001 0.000000 0.000000 0.000000
2 24.299999 0.000000 6.840000 0.000000 -0.013828 0.000000
3 18.900002 0.000000 16.719997 0.000000 -0.015412 0.000000
4 -35.099998 0.000000 5.320000 -0.079015 0.000000 0.000000
5 -11.700001 0.000000 -14.440002 -0.072031 0.000000 0.000000
6 21.600000 -13.000000 -2.280003 0.000000 0.000000 0.000000
7 -0.900000 0.000000 -16.719999 0.000000 0.000000 0.000000
8 1.799999 0.000000 -11.400000 0.000000 0.000000 0.000000
9 0.900000 0.000000 -13.680000 0.000000 0.000000 0.000000
10 -26.100000 -13.000000 -0.760002 0.000000 0.000000 0.000000
11 10.800000 0.000000 -15.959999 0.000000 0.000000 0.000000
12 -12.599999 0.000000 -13.680000 0.000000 0.000000 0.000000
13 2.699999 0.000000 -13.680000 0.000000 0.000000 0.000000
14 21.600000 13.000000 -2.280003 0.000000 0.000000 0.000000
15 -0.900000 0.000000 -16.719999 0.000000 0.000000 0.000000
16 1.799999 0.000000 -11.400000 0.000000 0.000000 0.000000
17 0.900000 0.000000 -13.680000 0.000000 0.000000 0.000000
18 -26.100000 13.000000 -0.760002 0.000000 0.000000 0.000000
19 10.800000 0.000000 -15.959999 0.000000 0.000000 0.000000
20 -12.599999 0.000000 -13.680000 0.000000 0.000000 0.000000
21 2.699999 0.000000 -13.680000 0.000000 0.000000 0.000000
time 30
0 0.000000 0.000000 0.000000 0.000000 0.000000 0.000000
1 0.000000 0.000000 49.068001 0.000000 0.000000 0.000000
2 24.299999 0.000000 6.840000 0.000000 -0.014000 0.000000
3 18.900002 0.000000 16.719997 0.000000 -0.013767 0.000000
4 -35.099998 0.000000 5.320000 -0.080000 0.000000 0.000000
5 -11.700001 0.000000 -14.440002 -0.062704 0.000000 0.000000
6 21.600000 -13.000000 -2.280003 0.000000 0.000000 0.000000
7 -0.900000 0.000000 -16.719999 0.000000 0.000000 0.000000
8 1.799999 0.000000 -11.400000 0.000000 0.000000 0.000000
9 0.900000 0.000000 -13.680000 0.000000 0.000000 0.000000
10 -26.100000 -13.000000 -0.760002 0.000000 0.000000 0.000000
11 10.800000 0.000000 -15.959999 0.000000 0.000000 0.000000
12 -12.599999 0.000000 -13.680000 0.000000 0.000000 0.000000
13 2.699999 0.000000 -13.680000 0.000000 0.000000 0.000000
14 21.600000 13.000000 -2.280003 0.000000 0.000000 0.000000
15 -0.900000 0.000000 -16.719999 0.000000 0.000000 0.000000
16 1.799999 0.000000 -11.400000 0.000000 0.000000 0.000000
17 0.900000 0.000000 -13.680000 0.000000 0.000000 0.000000
18 -26.100000 13.000000 -0.760002 0.000000 0.000000 0.000000
19 10.800000 0.000000 -15.959999 0.000000 0.000000 0.000000
20 -12.599999 0.000000 -13.680000 0.000000 0.000000 0.000000
21 2.699999 0.000000 -13.680000 0.000000 0.000000 0.000000
time 31
0 0.000000 0.000000 0.000000 0.000000 0.000000 0.000000
1 0.000000 0.000000 49.068001 0.000000 0.000000 0.000000
2 24.299999 0.000000 6.840000 0.000000 -0.013828 0.000000
3 18.900002 0.000000 16.719997 0.000000 -0.011784 0.000000
4 -35.099998 0.000000 5.320000 -0.079015 0.000000 0.000000
5 -11.700001 0.000000 -14.440002 -0.051832 0.000000 0.000000
6 21.600000 -13.000000 -2.280003 0.000000 0.000000 0.000000
7 -0.900000 0.000000 -16.719999 0.000000 0.000000 0.000000
8 1.799999 0.000000 -11.400000 0.000000 0.000000 0.000000
9 0.900000 0.000000 -13.680000 0.000000 0.000000 0.000000
10 -26.100000 -13.000000 -0.760002 0.000000 0.000000 0.000000
11 10.800000 0.000000 -15.959999 0.000000 0.000000 0.000000
12 -12.599999 0.000000 -13.680000 0.000000 0.000000 0.000000
13 2.699999 0.000000 -13.680000 0.000000 0.000000 0.000000
14 21.600000 13.000000 -2.280003 0.000000 0.000000 0.000000
15 -0.900000 0.000000 -16.719999 0.000000 0.000000 0.000000
16 1.799999 0.000000 -11.400000 0.000000 0.000000 0.000000
17 0.900000 0.000000 -13.680000 0.000000 0.000000 0.000000
18 -26.100000 13.000000 -0.760002 0.000000 0.000000 0.000000
19 10.800000 0.000000 -15.959999 0.000000 0.000000 0.000000
20 -12.599999 0.000000 -13.680000 0.000000 0.000000 0.000000
21 2.699999 0.000000 -13.680000 0.000000 0.000000 0.000000
time 32
0 0.000000 0.000000 0.000000 0.000000 0.000000 0.000000
1 0.000000 0.000000 49.068001 0.000000 0.000000 0.000000
2 24.299999 0.000000 6.840000 0.000000 -0.013315 0.000000
3 18.900002 0.000000 16.719997 0.000000 -0.009510 0.000000
4 -35.099998 0.000000 5.320000 -0.076085 0.000000 0.000000
5 -11.700001 0.000000 -14.440002 -0.039684 0.000000 0.000000
6 21.600000 -13.000000 -2.280003 0.000000 0.000000 0.000000
7 -0.900000 0.000000 -16.719999 0.000000 0.000000 0.000000
8 1.799999 0.000000 -11.400000 0.000000 0.000000 0.000000
9 0.900000 0.000000 -13.680000 0.000000 0.000000 0.000000
10 -26.100000 -13.000000 -0.760002 0.000000 0.000000 0.000000
11 10.800000 0.000000 -15.959999 0.000000 0.000000 0.000000
12 -12.599999 0.000000 -13.680000 0.000000 0.000000 0.000000
13 2.699999 0.000000 -13.680000 0.000000 0.000000 0.000000
14 21.600000 13.000000 -2.280003 0.000000 0.000000 0.000000
15 -0.900000 0.000000 -16.719999 0.000000 0.000000 0.000000
16 1.799999 0.000000 -11.400000 0.000000 0.000000 0.000000
17 0.900000 0.000000 -13.680000 0.000000 0.000000 0.000000
18 -26.100000 13.000000 -0.760002 0.000000 0.000000 0.000000
19 10.800000 0.000000 -15.959999 0.000000 0.000000 0.000000
20 -12.599999 0.000000 -13.680000 0.000000 0.000000 0.000000
21 2.699999 0.000000 -13.680000 0.000000 0.000000 0.000000
time 33
0 0.000000 0.000000 0.000000 0.000000 0.000000 0.000000
1 0.000000 0.000000 49.088150 0.000000 0.000000 0.000000
2 24.299999 0.000000 6.840000 0.000000 -0.012474 0.000000
3 18.900002 0.000000 16.719997 0.000000 -0.007002 0.000000
4 -35.099998 0.000000 5.320000 -0.071281 0.000000 0.000000
5 -11.700001 0.000000 -14.440002 -0.026559 0.000000 0.000000
6 21.600000 -13.000000 -2.280003 0.000000 0.000000 0.000000
7 -0.900000 0.000000 -16.719999 0.000000 0.000000 0.000000
8 1.799999 0.000000 -11.400000 0.000000 0.000000 0.000000
9 0.900000 0.000000 -13.680000 0.000000 0.000000 0.000000
10 -26.100000 -13.000000 -0.760002 0.000000 0.000000 0.000000
11 10.800000 0.000000 -15.959999 0.000000 0.000000 0.000000
12 -12.599999 0.000000 -13.680000 0.000000 0.000000 0.000000
13 2.699999 0.000000 -13.680000 0.000000 0.000000 0.000000
14 21.600000 13.000000 -2.280003 0.000000 0.000000 0.000000
15 -0.900000 0.000000 -16.719999 0.000000 0.000000 0.000000
16 1.799999 0.000000 -11.400000 0.000000 0.000000 0.000000
17 0.900000 0.000000 -13.680000 0.000000 0.000000 0.000000
18 -26.100000 13.000000 -0.760002 0.000000 0.000000 0.000000
19 10.800000 0.000000 -15.959999 0.000000 0.000000 0.000000
20 -12.599999 0.000000 -13.680000 0.000000 0.000000 0.000000
21 2.699999 0.000000 -13.680000 0.000000 0.000000 0.000000
time 34
0 0.000000 0.000000 0.000000 0.000000 0.000000 0.000000
1 0.000000 0.000000 49.116844 0.000000 0.000000 0.000000
2 24.299999 0.000000 6.840000 0.000000 -0.011326 0.000000
3 18.900002 0.000000 16.719997 0.000000 -0.004322 0.000000
4 -35.099998 0.000000 5.320000 -0.064721 0.000000 0.000000
5 -11.700001 0.000000 -14.440002 -0.012780 0.000000 0.000000
6 21.600000 -13.000000 -2.280003 0.000000 0.000000 0.000000
7 -0.900000 0.000000 -16.719999 0.000000 0.000000 0.000000
8 1.799999 0.000000 -11.400000 0.000000 0.000000 0.000000
9 0.900000 0.000000 -13.680000 0.000000 0.000000 0.000000
10 -26.100000 -13.000000 -0.760002 0.000000 0.000000 0.000000
11 10.800000 0.000000 -15.959999 0.000000 0.000000 0.000000
12 -12.599999 0.000000 -13.680000 0.000000 0.000000 0.000000
13 2.699999 0.000000 -13.680000 0.000000 0.000000 0.000000
14 21.600000 13.000000 -2.280003 0.000000 0.000000 0.000000
15 -0.900000 0.000000 -16.719999 0.000000 0.000000 0.000000
16 1.799999 0.000000 -11.400000 0.000000 0.000000 0.000000
17 0.900000 0.000000 -13.680000 0.000000 0.000000 0.000000
18 -26.100000 13.000000 -0.760002 0.000000 0.000000 0.000000
19 10.800000 0.000000 -15.959999 0.000000 0.000000 0.000000
20 -12.599999 0.000000 -13.680000 0.000000 0.000000 0.000000
21 2.699999 0.000000 -13.680000 0.000000 0.000000 0.000000
time 35
0 0.000000 0.000000 0.000000 0.000000 0.000000 0.000000
1 0.000000 0.000000 49.152515 0.000000 0.000000 0.000000
2 24.299999 0.000000 6.840000 0.000000 -0.009899 0.000000
3 18.900002 0.000000 16.719997 0.000000 -0.001535 0.000000
4 -35.099998 0.000000 5.320000 -0.056569 0.000000 0.000000
5 -11.700001 0.000000 -14.440002 0.001314 0.000000 0.000000
6 21.600000 -13.000000 -2.280003 0.000000 0.000000 0.000000
7 -0.900000 0.000000 -16.719999 0.000000 0.000000 0.000000
8 1.799999 0.000000 -11.400000 0.000000 0.000000 0.000000
9 0.900000 0.000000 -13.680000 0.000000 0.000000 0.000000
10 -26.100000 -13.000000 -0.760002 0.000000 0.000000 0.000000
11 10.800000 0.000000 -15.959999 0.000000 0.000000 0.000000
12 -12.599999 0.000000 -13.680000 0.000000 0.000000 0.000000
13 2.699999 0.000000 -13.680000 0.000000 0.000000 0.000000
14 21.600000 13.000000 -2.280003 0.000000 0.000000 0.000000
15 -0.900000 0.000000 -16.719999 0.000000 0.000000 0.000000
16 1.799999 0.000000 -11.400000 0.000000 0.000000 0.000000
17 0.900000 0.000000 -13.680000 0.000000 0.000000 0.000000
18 -26.100000 13.000000 -0.760002 0.000000 0.000000 0.000000
19 10.800000 0.000000 -15.959999 0.000000 0.000000 0.000000
20 -12.599999 0.000000 -13.680000 0.000000 0.000000 0.000000
21 2.699999 0.000000 -13.680000 0.000000 0.000000 0.000000
time 36
0 0.000000 0.000000 0.000000 0.000000 0.000000 0.000000
1 0.000000 0.000000 49.194275 0.000000 0.000000 0.000000
2 24.299999 0.000000 6.840000 0.000000 -0.008229 0.000000
3 18.900002 0.000000 16.719997 0.000000 0.001289 0.000000
4 -35.099998 0.000000 5.320000 -0.047023 0.000000 0.000000
5 -11.700001 0.000000 -14.440002 0.015376 0.000000 0.000000
6 21.600000 -13.000000 -2.280003 0.000000 0.000000 0.000000
7 -0.900000 0.000000 -16.719999 0.000000 0.000000 0.000000
8 1.799999 0.000000 -11.400000 0.000000 0.000000 0.000000
9 0.900000 0.000000 -13.680000 0.000000 0.000000 0.000000
10 -26.100000 -13.000000 -0.760002 0.000000 0.000000 0.000000
11 10.800000 0.000000 -15.959999 0.000000 0.000000 0.000000
12 -12.599999 0.000000 -13.680000 0.000000 0.000000 0.000000
13 2.699999 0.000000 -13.680000 0.000000 0.000000 0.000000
14 21.600000 13.000000 -2.280003 0.000000 0.000000 0.000000
15 -0.900000 0.000000 -16.719999 0.000000 0.000000 0.000000
16 1.799999 0.000000 -11.400000 0.000000 0.000000 0.000000
17 0.900000 0.000000 -13.680000 0.000000 0.000000 0.000000
18 -26.100000 13.000000 -0.760002 0.000000 0.000000 0.000000
19 10.800000 0.000000 -15.959999 0.000000 0.000000 0.000000
20 -12.599999 0.000000 -13.680000 0.000000 0.000000 0.000000
21 2.699999 0.000000 -13.680000 0.000000 0.000000 0.000000
time 37
0 0.000000 0.000000 0.000000 0.000000 0.000000 0.000000
1 0.000000 0.000000 49.241104 0.000000 0.000000 0.000000
2 24.299999 0.000000 6.840000 0.000000 -0.006356 0.000000
3 18.900002 0.000000 16.719997 0.000000 0.004082 0.000000
4 -35.099998 0.000000 5.320000 -0.036319 0.000000 0.000000
5 -11.700001 0.000000 -14.440002 0.029058 0.000000 0.000000
6 21.600000 -13.000000 -2.280003 0.000000 0.000000 0.000000
7 -0.900000 0.000000 -16.719999 0.000000 0.000000 0.000000
8 1.799999 0.000000 -11.400000 0.000000 0.000000 0.000000
9 0.900000 0.000000 -13.680000 0.000000 0.000000 0.000000
10 -26.100000 -13.000000 -0.760002 0.000000 0.000000 0.000000
11 10.800000 0.000000 -15.959999 0.000000 0.000000 0.000000
12 -12.599999 0.000000 -13.680000 0.000000 0.000000 0.000000
13 2.699999 0.000000 -13.680000 0.000000 0.000000 0.000000
14 21.600000 13.000000 -2.280003 0.000000 0.000000 0.000000
15 -0.900000 0.000000 -16.719999 0.000000 0.000000 0.000000
16 1.799999 0.000000 -11.400000 0.000000 0.000000 0.000000
17 0.900000 0.000000 -13.680000 0.000000 0.000000 0.000000
18 -26.100000 13.000000 -0.760002 0.000000 0.000000 0.000000
19 10.800000 0.000000 -15.959999 0.000000 0.000000 0.000000
20 -12.599999 0.000000 -13.680000 0.000000 0.000000 0.000000
21 2.699999 0.000000 -13.680000 0.000000 0.000000 0.000000
time 38
0 0.000000 0.000000 0.000000 0.000000 0.000000 0.000000
1 0.000000 0.000000 49.291847 0.000000 0.000000 0.000000
2 24.299999 0.000000 6.840000 0.000000 -0.004326 0.000000
3 18.900002 0.000000 16.719997 0.000000 0.006774 0.000000
4 -35.099998 0.000000 5.320000 -0.024721 0.000000 0.000000
5 -11.700001 0.000000 -14.440002 0.042026 0.000000 0.000000
6 21.600000 -13.000000 -2.280003 0.000000 0.000000 0.000000
7 -0.900000 0.000000 -16.719999 0.000000 0.000000 0.000000
8 1.799999 0.000000 -11.400000 0.000000 0.000000 0.000000
9 0.900000 0.000000 -13.680000 0.000000 0.000000 0.000000
10 -26.100000 -13.000000 -0.760002 0.000000 0.000000 0.000000
11 10.800000 0.000000 -15.959999 0.000000 0.000000 0.000000
12 -12.599999 0.000000 -13.680000 0.000000 0.000000 0.000000
13 2.699999 0.000000 -13.680000 0.000000 0.000000 0.000000
14 21.600000 13.000000 -2.280003 0.000000 0.000000 0.000000
15 -0.900000 0.000000 -16.719999 0.000000 0.000000 0.000000
16 1.799999 0.000000 -11.400000 0.000000 0.000000 0.000000
17 0.900000 0.000000 -13.680000 0.000000 0.000000 0.000000
18 -26.100000 13.000000 -0.760002 0.000000 0.000000 0.000000
19 10.800000 0.000000 -15.959999 0.000000 0.000000 0.000000
20 -12.599999 0.000000 -13.680000 0.000000 0.000000 0.000000
21 2.699999 0.000000 -13.680000 0.000000 0.000000 0.000000
time 39
0 0.000000 0.000000 0.000000 0.000000 0.000000 0.000000
1 0.000000 0.000000 49.345249 0.000000 0.000000 0.000000
2 24.299999 0.000000 6.840000 0.000000 -0.002190 0.000000
3 18.900002 0.000000 16.719997 0.000000 0.009299 0.000000
4 -35.099998 0.000000 5.320000 -0.012515 0.000000 0.000000
5 -11.700001 0.000000 -14.440002 0.053958 0.000000 0.000000
6 21.600000 -13.000000 -2.280003 0.000000 0.000000 0.000000
7 -0.900000 0.000000 -16.719999 0.000000 0.000000 0.000000
8 1.799999 0.000000 -11.400000 0.000000 0.000000 0.000000
9 0.900000 0.000000 -13.680000 0.000000 0.000000 0.000000
10 -26.100000 -13.000000 -0.760002 0.000000 0.000000 0.000000
11 10.800000 0.000000 -15.959999 0.000000 0.000000 0.000000
12 -12.599999 0.000000 -13.680000 0.000000 0.000000 0.000000
13 2.699999 0.000000 -13.680000 0.000000 0.000000 0.000000
14 21.600000 13.000000 -2.280003 0.000000 0.000000 0.000000
15 -0.900000 0.000000 -16.719999 0.000000 0.000000 0.000000
16 1.799999 0.000000 -11.400000 0.000000 0.000000 0.000000
17 0.900000 0.000000 -13.680000 0.000000 0.000000 0.000000
18 -26.100000 13.000000 -0.760002 0.000000 0.000000 0.000000
19 10.800000 0.000000 -15.959999 0.000000 0.000000 0.000000
20 -12.599999 0.000000 -13.680000 0.000000 0.000000 0.000000
21 2.699999 0.000000 -13.680000 0.000000 0.000000 0.000000
time 40
0 0.000000 0.000000 0.000000 0.000000 0.000000 0.000000
1 0.000000 0.000000 49.400002 0.000000 0.000000 0.000000
2 24.299999 0.000000 6.840000 0.000000 -0.000000 0.000000
3 18.900002 0.000000 16.719997 0.000000 0.011596 0.000000
4 -35.099998 0.000000 5.320000 -0.000000 0.000000 0.000000
5 -11.700001 0.000000 -14.440002 0.064562 0.000000 0.000000
6 21.600000 -13.000000 -2.280003 0.000000 0.000000 0.000000
7 -0.900000 0.000000 -16.719999 0.000000 0.000000 0.000000
8 1.799999 0.000000 -11.400000 0.000000 0.000000 0.000000
9 0.900000 0.000000 -13.680000 0.000000 0.000000 0.000000
10 -26.100000 -13.000000 -0.760002 0.000000 0.000000 0.000000
11 10.800000 0.000000 -15.959999 0.000000 0.000000 0.000000
12 -12.599999 0.000000 -13.680000 0.000000 0.000000 0.000000
13 2.699999 0.000000 -13.680000 0.000000 0.000000 0.000000
14 21.600000 13.000000 -2.280003 0.000000 0.000000 0.000000
15 -0.900000 0.000000 -16.719999 0.000000 0.000000 0.000000
16 1.799999 0.000000 -11.400000 0.000000 0.000000 0.000000
17 0.900000 0.000000 -13.680000 0.000000 0.000000 0.000000
18 -26.100000 13.000000 -0.760002 0.000000 0.000000 0.000000
19 10.800000 0.000000 -15.959999 0.000000 0.000000 0.000000
20 -12.599999 0.000000 -13.680000 0.000000 0.000000 0.000000
21 2.699999 0.000000 -13.680000 0.000000 0.000000 0.000000
end
