version 1
nodes
0 "root" -1
1 "body" 0
2 "neck" 1
3 "head" 2
4 "tail" 1
5 "tail_tip" 4
6 "front_L_upper" 1
7 "front_L_lower" 6
8 "front_L_cannon" 7
9 "front_L_hoof" 8
10 "hind_L_upper" 1
11 "hind_L_lower" 10
12 "hind_L_cannon" 11
13 "hind_L_hoof" 12
14 "front_R_upper" 1
15 "front_R_lower" 14
16 "front_R_cannon" 15
17 "front_R_hoof" 16
18 "hind_R_upper" 1
19 "hind_R_lower" 18
20 "hind_R_cannon" 19
21 "hind_R_hoof" 20
end
skeleton
time 0
0 0.000000 0.000000 0.000000 0.000000 0.000000 0.000000
1 0.000000 0.000000 49.400002 0.000000 0.000000 0.000000
2 24.299999 0.000000 6.840000 0.000000 0.036995 0.000000
3 18.900002 0.000000 16.719997 0.000000 -0.021418 0.000000
4 -35.099998 0.000000 5.320000 0.000000 -0.180000 0.000000
5 -11.700001 0.000000 -14.440002 0.000000 -0.100000 0.000000
6 21.600000 -13.000000 -2.280003 0.000000 0.000000 0.000000
7 -0.900000 0.000000 -16.719999 0.000000 -0.680000 0.000000
8 1.799999 0.000000 -11.400000 0.000000 0.680000 0.000000
9 0.900000 0.000000 -13.680000 0.000000 -0.300000 0.000000
10 -26.100000 -13.000000 -0.760002 0.000000 0.000000 0.000000
11 10.800000 0.000000 -15.959999 0.000000 -0.000000 0.000000
12 -12.599999 0.000000 -13.680000 0.000000 0.000000 0.000000
13 2.699999 0.000000 -13.680000 0.000000 -0.000000 0.000000
14 21.600000 13.000000 -2.280003 0.000000 0.361371 0.000000
15 -0.900000 0.000000 -16.719999 0.000000 -0.561228 0.000000
16 1.799999 0.000000 -11.400000 0.000000 0.561228 0.000000
17 0.900000 0.000000 -13.680000 0.000000 -0.247601 0.000000
18 -26.100000 13.000000 -0.760002 0.000000 -0.361371 0.000000
19 10.800000 0.000000 -15.959999 0.000000 -0.000000 0.000000
20 -12.599999 0.000000 -13.680000 0.000000 0.000000 0.000000
21 2.699999 0.000000 -13.680000 0.000000 -0.000000 0.000000
time 1
0 0.000000 0.000000 0.000000 0.000000 0.000000 0.000000
1 0.000000 0.000000 50.110741 0.000000 0.013906 0.000000
2 24.299999 0.000000 6.840000 0.000000 0.062223 0.000000
3 18.900002 0.000000 16.719997 0.000000 -0.036024 0.000000
4 -35.099998 0.000000 5.320000 0.000000 -0.155279 0.000000
5 -11.700001 0.000000 -14.440002 0.015451 -0.100000 0.000000
6 21.600000 -13.000000 -2.280003 0.000000 0.197771 0.000000
7 -0.900000 0.000000 -16.719999 0.000000 -0.646718 0.000000
8 1.799999 0.000000 -11.400000 0.000000 0.646718 0.000000
9 0.900000 0.000000 -13.680000 0.000000 -0.285317 0.000000
10 -26.100000 -13.000000 -0.760002 0.000000 -0.197771 0.000000
11 10.800000 0.000000 -15.959999 0.000000 -0.000000 0.000000
12 -12.599999 0.000000 -13.680000 0.000000 0.000000 0.000000
13 2.699999 0.000000 -13.680000 0.000000 -0.000000 0.000000
14 21.600000 13.000000 -2.280003 0.000000 0.506912 0.000000
15 -0.900000 0.000000 -16.719999 0.000000 -0.415111 0.000000
16 1.799999 0.000000 -11.400000 0.000000 0.415111 0.000000
17 0.900000 0.000000 -13.680000 0.000000 -0.183137 0.000000
18 -26.100000 13.000000 -0.760002 0.000000 -0.506912 0.000000
19 10.800000 0.000000 -15.959999 0.000000 -0.000000 0.000000
20 -12.599999 0.000000 -13.680000 0.000000 0.000000 0.000000
21 2.699999 0.000000 -13.680000 0.000000 -0.000000 0.000000
time 2
0 0.000000 0.000000 0.000000 0.000000 0.000000 0.000000
1 0.000000 0.000000 50.751907 0.000000 0.026450 0.000000
2 24.299999 0.000000 6.840000 0.000000 0.081361 0.000000
3 18.900002 0.000000 16.719997 0.000000 -0.047104 0.000000
4 -35.099998 0.000000 5.320000 0.000000 -0.132977 0.000000
5 -11.700001 0.000000 -14.440002 0.029389 -0.100000 0.000000
6 21.600000 -13.000000 -2.280003 0.000000 0.376183 0.000000
7 -0.900000 0.000000 -16.719999 0.000000 -0.550132 0.000000
8 1.799999 0.000000 -11.400000 0.000000 0.550132 0.000000
9 0.900000 0.000000 -13.680000 0.000000 -0.242705 0.000000
10 -26.100000 -13.000000 -0.760002 0.000000 -0.376183 0.000000
11 10.800000 0.000000 -15.959999 0.000000 -0.000000 0.000000
12 -12.599999 0.000000 -13.680000 0.000000 0.000000 0.000000
13 2.699999 0.000000 -13.680000 0.000000 -0.000000 0.000000
14 21.600000 13.000000 -2.280003 0.000000 0.602832 0.000000
15 -0.900000 0.000000 -16.719999 0.000000 -0.228359 0.000000
16 1.799999 0.000000 -11.400000 0.000000 0.228359 0.000000
17 0.900000 0.000000 -13.680000 0.000000 -0.100747 0.000000
18 -26.100000 13.000000 -0.760002 0.000000 -0.602832 0.000000
19 10.800000 0.000000 -15.959999 0.000000 -0.000000 0.000000
20 -12.599999 0.000000 -13.680000 0.000000 0.000000 0.000000
21 2.699999 0.000000 -13.680000 0.000000 -0.000000 0.000000
time 3
0 0.000000 0.000000 0.000000 0.000000 0.000000 0.000000
1 0.000000 0.000000 51.260742 0.000000 0.036406 0.000000
2 24.299999 0.000000 6.840000 0.000000 0.092535 0.000000
3 18.900002 0.000000 16.719997 0.000000 -0.053573 0.000000
4 -35.099998 0.000000 5.320000 0.000000 -0.115279 0.000000
5 -11.700001 0.000000 -14.440002 0.040451 -0.100000 0.000000
6 21.600000 -13.000000 -2.280003 0.000000 0.517771 0.000000
7 -0.900000 0.000000 -16.719999 0.000000 -0.399694 0.000000
8 1.799999 0.000000 -11.400000 0.000000 0.399694 0.000000
9 0.900000 0.000000 -13.680000 0.000000 -0.176336 0.000000
10 -26.100000 -13.000000 -0.760002 0.000000 -0.517771 0.000000
11 10.800000 0.000000 -15.959999 0.000000 -0.000000 0.000000
12 -12.599999 0.000000 -13.680000 0.000000 0.000000 0.000000
13 2.699999 0.000000 -13.680000 0.000000 -0.000000 0.000000
14 21.600000 13.000000 -2.280003 0.000000 0.639743 0.000000
15 -0.900000 0.000000 -16.719999 0.000000 -0.019254 0.000000
16 1.799999 0.000000 -11.400000 0.000000 0.019254 0.000000
17 0.900000 0.000000 -13.680000 0.000000 -0.008494 0.000000
18 -26.100000 13.000000 -0.760002 0.000000 -0.639743 0.000000
19 10.800000 0.000000 -15.959999 0.000000 -0.000000 0.000000
20 -12.599999 0.000000 -13.680000 0.000000 0.000000 0.000000
21 2.699999 0.000000 -13.680000 0.000000 -0.000000 0.000000
time 4
0 0.000000 0.000000 0.000000 0.000000 0.000000 0.000000
1 0.000000 0.000000 51.587433 0.000000 0.042798 0.000000
2 24.299999 0.000000 6.840000 0.000000 0.094650 0.000000
3 18.900002 0.000000 16.719997 0.000000 -0.054797 0.000000
4 -35.099998 0.000000 5.320000 0.000000 -0.103915 0.000000
5 -11.700001 0.000000 -14.440002 0.047553 -0.100000 0.000000
6 21.600000 -13.000000 -2.280003 0.000000 0.608676 0.000000
7 -0.900000 0.000000 -16.719999 0.000000 -0.210132 0.000000
8 1.799999 0.000000 -11.400000 0.000000 0.210132 0.000000
9 0.900000 0.000000 -13.680000 0.000000 -0.092705 0.000000
10 -26.100000 -13.000000 -0.760002 0.000000 -0.608676 0.000000
11 10.800000 0.000000 -15.959999 0.000000 -0.000000 0.000000
12 -12.599999 0.000000 -13.680000 0.000000 0.000000 0.000000
13 2.699999 0.000000 -13.680000 0.000000 -0.000000 0.000000
14 21.600000 13.000000 -2.280003 0.000000 0.614032 0.000000
15 -0.900000 0.000000 -16.719999 0.000000 -0.000000 0.000000
16 1.799999 0.000000 -11.400000 0.000000 0.000000 0.000000
17 0.900000 0.000000 -13.680000 0.000000 -0.000000 0.000000
18 -26.100000 13.000000 -0.760002 0.000000 -0.614032 0.000000
19 10.800000 0.000000 -15.959999 0.000000 -0.191736 0.000000
20 -12.599999 0.000000 -13.680000 0.000000 0.191736 0.000000
21 2.699999 0.000000 -13.680000 0.000000 -0.084589 0.000000
time 5
0 0.000000 0.000000 0.000000 0.000000 0.000000 0.000000
1 0.000000 0.000000 51.700001 0.000000 0.045000 0.000000
2 24.299999 0.000000 6.840000 0.000000 0.087501 0.000000
3 18.900002 0.000000 16.719997 0.000000 -0.050658 0.000000
4 -35.099998 0.000000 5.320000 0.000000 -0.100000 0.000000
5 -11.700001 0.000000 -14.440002 0.050000 -0.100000 0.000000
6 21.600000 -13.000000 -2.280003 0.000000 0.640000 0.000000
7 -0.900000 0.000000 -16.719999 0.000000 -0.000000 0.000000
8 1.799999 0.000000 -11.400000 0.000000 0.000000 0.000000
9 0.900000 0.000000 -13.680000 0.000000 -0.000000 0.000000
10 -26.100000 -13.000000 -0.760002 0.000000 -0.640000 0.000000
11 10.800000 0.000000 -15.959999 0.000000 -0.000000 0.000000
12 -12.599999 0.000000 -13.680000 0.000000 0.000000 0.000000
13 2.699999 0.000000 -13.680000 0.000000 -0.000000 0.000000
14 21.600000 13.000000 -2.280003 0.000000 0.528215 0.000000
15 -0.900000 0.000000 -16.719999 0.000000 -0.000000 0.000000
16 1.799999 0.000000 -11.400000 0.000000 0.000000 0.000000
17 0.900000 0.000000 -13.680000 0.000000 -0.000000 0.000000
18 -26.100000 13.000000 -0.760002 0.000000 -0.528215 0.000000
19 10.800000 0.000000 -15.959999 0.000000 -0.383957 0.000000
20 -12.599999 0.000000 -13.680000 0.000000 0.383957 0.000000
21 2.699999 0.000000 -13.680000 0.000000 -0.169393 0.000000
time 6
0 0.000000 0.000000 0.000000 0.000000 0.000000 0.000000
1 0.000000 0.000000 51.587433 0.000000 0.042798 0.000000
2 24.299999 0.000000 6.840000 0.000000 0.071786 0.000000
3 18.900002 0.000000 16.719997 0.000000 -0.041560 0.000000
4 -35.099998 0.000000 5.320000 0.000000 -0.103915 0.000000
5 -11.700001 0.000000 -14.440002 0.047553 -0.100000 0.000000
6 21.600000 -13.000000 -2.280003 0.000000 0.608676 0.000000
7 -0.900000 0.000000 -16.719999 0.000000 -0.000000 0.000000
8 1.799999 0.000000 -11.400000 0.000000 0.000000 0.000000
9 0.900000 0.000000 -13.680000 0.000000 -0.000000 0.000000
10 -26.100000 -13.000000 -0.760002 0.000000 -0.608676 0.000000
11 10.800000 0.000000 -15.959999 0.000000 -0.210132 0.000000
12 -12.599999 0.000000 -13.680000 0.000000 0.210132 0.000000
13 2.699999 0.000000 -13.680000 0.000000 -0.092705 0.000000
14 21.600000 13.000000 -2.280003 0.000000 0.390692 0.000000
15 -0.900000 0.000000 -16.719999 0.000000 -0.000000 0.000000
16 1.799999 0.000000 -11.400000 0.000000 0.000000 0.000000
17 0.900000 0.000000 -13.680000 0.000000 -0.000000 0.000000
18 -26.100000 13.000000 -0.760002 0.000000 -0.390692 0.000000
19 10.800000 0.000000 -15.959999 0.000000 -0.538594 0.000000
20 -12.599999 0.000000 -13.680000 0.000000 0.538594 0.000000
21 2.699999 0.000000 -13.680000 0.000000 -0.237615 0.000000
time 7
0 0.000000 0.000000 0.000000 0.000000 0.000000 0.000000
1 0.000000 0.000000 51.260742 0.000000 0.036406 0.000000
2 24.299999 0.000000 6.840000 0.000000 0.049045 0.000000
3 18.900002 0.000000 16.719997 0.000000 -0.028394 0.000000
4 -35.099998 0.000000 5.320000 0.000000 -0.115279 0.000000
5 -11.700001 0.000000 -14.440002 0.040451 -0.100000 0.000000
6 21.600000 -13.000000 -2.280003 0.000000 0.517771 0.000000
7 -0.900000 0.000000 -16.719999 0.000000 -0.000000 0.000000
8 1.799999 0.000000 -11.400000 0.000000 0.000000 0.000000
9 0.900000 0.000000 -13.680000 0.000000 -0.000000 0.000000
10 -26.100000 -13.000000 -0.760002 0.000000 -0.517771 0.000000
11 10.800000 0.000000 -15.959999 0.000000 -0.399694 0.000000
12 -12.599999 0.000000 -13.680000 0.000000 0.399694 0.000000
13 2.699999 0.000000 -13.680000 0.000000 -0.176336 0.000000
14 21.600000 13.000000 -2.280003 0.000000 0.214926 0.000000
15 -0.900000 0.000000 -16.719999 0.000000 -0.000000 0.000000
16 1.799999 0.000000 -11.400000 0.000000 0.000000 0.000000
17 0.900000 0.000000 -13.680000 0.000000 -0.000000 0.000000
18 -26.100000 13.000000 -0.760002 0.000000 -0.214926 0.000000
19 10.800000 0.000000 -15.959999 0.000000 -0.640509 0.000000
20 -12.599999 0.000000 -13.680000 0.000000 0.640509 0.000000
21 2.699999 0.000000 -13.680000 0.000000 -0.282578 0.000000
time 8
0 0.000000 0.000000 0.000000 0.000000 0.000000 0.000000
1 0.000000 0.000000 53.936085 0.000000 0.026450 0.000000
2 24.299999 0.000000 6.840000 0.000000 0.021502 0.000000
3 18.900002 0.000000 16.719997 0.000000 -0.012449 0.000000
4 -35.099998 0.000000 5.320000 0.000000 -0.132977 0.000000
5 -11.700001 0.000000 -14.440002 0.029389 -0.100000 0.000000
6 21.600000 -13.000000 -2.280003 0.000000 0.376183 0.000000
7 -0.900000 0.000000 -16.719999 0.000000 -0.000000 0.000000
8 1.799999 0.000000 -11.400000 0.000000 0.000000 0.000000
9 0.900000 0.000000 -13.680000 0.000000 -0.000000 0.000000
10 -26.100000 -13.000000 -0.760002 0.000000 -0.376183 0.000000
11 10.800000 0.000000 -15.959999 0.000000 -0.550132 0.000000
12 -12.599999 0.000000 -13.680000 0.000000 0.550132 0.000000
13 2.699999 0.000000 -13.680000 0.000000 -0.242705 0.000000
14 21.600000 13.000000 -2.280003 0.000000 0.018121 0.000000
15 -0.900000 0.000000 -16.719999 0.000000 -0.000000 0.000000
16 1.799999 0.000000 -11.400000 0.000000 0.000000 0.000000
17 0.900000 0.000000 -13.680000 0.000000 -0.000000 0.000000
18 -26.100000 13.000000 -0.760002 0.000000 -0.018121 0.000000
19 10.800000 0.000000 -15.959999 0.000000 -0.679727 0.000000
20 -12.599999 0.000000 -13.680000 0.000000 0.679727 0.000000
21 2.699999 0.000000 -13.680000 0.000000 -0.299880 0.000000
time 9
0 0.000000 0.000000 0.000000 0.000000 0.000000 0.000000
1 0.000000 0.000000 55.148270 0.000000 0.013906 0.000000
2 24.299999 0.000000 6.840000 0.000000 -0.008145 0.000000
3 18.900002 0.000000 16.719997 0.000000 0.004715 0.000000
4 -35.099998 0.000000 5.320000 0.000000 -0.155279 0.000000
5 -11.700001 0.000000 -14.440002 0.015451 -0.100000 0.000000
6 21.600000 -13.000000 -2.280003 0.000000 0.197771 0.000000
7 -0.900000 0.000000 -16.719999 0.000000 -0.000000 0.000000
8 1.799999 0.000000 -11.400000 0.000000 0.000000 0.000000
9 0.900000 0.000000 -13.680000 0.000000 -0.000000 0.000000
10 -26.100000 -13.000000 -0.760002 0.000000 -0.197771 0.000000
11 10.800000 0.000000 -15.959999 0.000000 -0.646718 0.000000
12 -12.599999 0.000000 -13.680000 0.000000 0.646718 0.000000
13 2.699999 0.000000 -13.680000 0.000000 -0.285317 0.000000
14 21.600000 13.000000 -2.280003 0.000000 -0.180457 0.000000
15 -0.900000 0.000000 -16.719999 0.000000 -0.000000 0.000000
16 1.799999 0.000000 -11.400000 0.000000 0.000000 0.000000
17 0.900000 0.000000 -13.680000 0.000000 -0.000000 0.000000
18 -26.100000 13.000000 -0.760002 0.000000 0.180457 0.000000
19 10.800000 0.000000 -15.959999 0.000000 -0.652409 0.000000
20 -12.599999 0.000000 -13.680000 0.000000 0.652409 0.000000
21 2.699999 0.000000 -13.680000 0.000000 -0.287827 0.000000
time 10
0 0.000000 0.000000 0.000000 0.000000 0.000000 0.000000
1 0.000000 0.000000 54.943905 0.000000 0.000000 0.000000
2 24.299999 0.000000 6.840000 0.000000 -0.036995 0.000000
3 18.900002 0.000000 16.719997 0.000000 0.021418 0.000000
4 -35.099998 0.000000 5.320000 0.000000 -0.180000 0.000000
5 -11.700001 0.000000 -14.440002 0.000000 -0.100000 0.000000
6 21.600000 -13.000000 -2.280003 0.000000 0.000000 0.000000
7 -0.900000 0.000000 -16.719999 0.000000 -0.000000 0.000000
8 1.799999 0.000000 -11.400000 0.000000 0.000000 0.000000
9 0.900000 0.000000 -13.680000 0.000000 -0.000000 0.000000
10 -26.100000 -13.000000 -0.760002 0.000000 -0.000000 0.000000
11 10.800000 0.000000 -15.959999 0.000000 -0.680000 0.000000
12 -12.599999 0.000000 -13.680000 0.000000 0.680000 0.000000
13 2.699999 0.000000 -13.680000 0.000000 -0.300000 0.000000
14 21.600000 13.000000 -2.280003 0.000000 -0.361371 0.000000
15 -0.900000 0.000000 -16.719999 0.000000 -0.000000 0.000000
16 1.799999 0.000000 -11.400000 0.000000 0.000000 0.000000
17 0.900000 0.000000 -13.680000 0.000000 -0.000000 0.000000
18 -26.100000 13.000000 -0.760002 0.000000 0.361371 0.000000
19 10.800000 0.000000 -15.959999 0.000000 -0.561228 0.000000
20 -12.599999 0.000000 -13.680000 0.000000 0.561228 0.000000
21 2.699999 0.000000 -13.680000 0.000000 -0.247601 0.000000
time 11
0 0.000000 0.000000 0.000000 0.000000 0.000000 0.000000
1 0.000000 0.000000 55.836334 0.000000 -0.013906 0.000000
2 24.299999 0.000000 6.840000 0.000000 -0.062223 0.000000
3 18.900002 0.000000 16.719997 0.000000 0.036024 0.000000
4 -35.099998 0.000000 5.320000 0.000000 -0.204721 0.000000
5 -11.700001 0.000000 -14.440002 -0.015451 -0.100000 0.000000
6 21.600000 -13.000000 -2.280003 0.000000 -0.197771 0.000000
7 -0.900000 0.000000 -16.719999 0.000000 -0.000000 0.000000
8 1.799999 0.000000 -11.400000 0.000000 0.000000 0.000000
9 0.900000 0.000000 -13.680000 0.000000 -0.000000 0.000000
10 -26.100000 -13.000000 -0.760002 0.000000 0.197771 0.000000
11 10.800000 0.000000 -15.959999 0.000000 -0.646718 0.000000
12 -12.599999 0.000000 -13.680000 0.000000 0.646718 0.000000
13 2.699999 0.000000 -13.680000 0.000000 -0.285317 0.000000
14 21.600000 13.000000 -2.280003 0.000000 -0.506912 0.000000
15 -0.900000 0.000000 -16.719999 0.000000 -0.000000 0.000000
16 1.799999 0.000000 -11.400000 0.000000 0.000000 0.000000
17 0.900000 0.000000 -13.680000 0.000000 -0.000000 0.000000
18 -26.100000 13.000000 -0.760002 0.000000 0.506912 0.000000
19 10.800000 0.000000 -15.959999 0.000000 -0.415111 0.000000
20 -12.599999 0.000000 -13.680000 0.000000 0.415111 0.000000
21 2.699999 0.000000 -13.680000 0.000000 -0.183137 0.000000
time 12
0 0.000000 0.000000 0.000000 0.000000 0.000000 0.000000
1 0.000000 0.000000 55.567127 0.000000 -0.026450 0.000000
2 24.299999 0.000000 6.840000 0.000000 -0.081361 0.000000
3 18.900002 0.000000 16.719997 0.000000 0.047104 0.000000
4 -35.099998 0.000000 5.320000 0.000000 -0.227023 0.000000
5 -11.700001 0.000000 -14.440002 -0.029389 -0.100000 0.000000
6 21.600000 -13.000000 -2.280003 0.000000 -0.376183 0.000000
7 -0.900000 0.000000 -16.719999 0.000000 -0.000000 0.000000
8 1.799999 0.000000 -11.400000 0.000000 0.000000 0.000000
9 0.900000 0.000000 -13.680000 0.000000 -0.000000 0.000000
10 -26.100000 -13.000000 -0.760002 0.000000 0.376183 0.000000
11 10.800000 0.000000 -15.959999 0.000000 -0.550132 0.000000
12 -12.599999 0.000000 -13.680000 0.000000 0.550132 0.000000
13 2.699999 0.000000 -13.680000 0.000000 -0.242705 0.000000
14 21.600000 13.000000 -2.280003 0.000000 -0.602832 0.000000
15 -0.900000 0.000000 -16.719999 0.000000 -0.000000 0.000000
16 1.799999 0.000000 -11.400000 0.000000 0.000000 0.000000
17 0.900000 0.000000 -13.680000 0.000000 -0.000000 0.000000
18 -26.100000 13.000000 -0.760002 0.000000 0.602832 0.000000
19 10.800000 0.000000 -15.959999 0.000000 -0.228359 0.000000
20 -12.599999 0.000000 -13.680000 0.000000 0.228359 0.000000
21 2.699999 0.000000 -13.680000 0.000000 -0.100747 0.000000
time 13
0 0.000000 0.000000 0.000000 0.000000 0.000000 0.000000
1 0.000000 0.000000 53.771797 0.000000 -0.036406 0.000000
2 24.299999 0.000000 6.840000 0.000000 -0.092535 0.000000
3 18.900002 0.000000 16.719997 0.000000 0.053573 0.000000
4 -35.099998 0.000000 5.320000 0.000000 -0.244721 0.000000
5 -11.700001 0.000000 -14.440002 -0.040451 -0.100000 0.000000
6 21.600000 -13.000000 -2.280003 0.000000 -0.517771 0.000000
7 -0.900000 0.000000 -16.719999 0.000000 -0.000000 0.000000
8 1.799999 0.000000 -11.400000 0.000000 0.000000 0.000000
9 0.900000 0.000000 -13.680000 0.000000 -0.000000 0.000000
10 -26.100000 -13.000000 -0.760002 0.000000 0.517771 0.000000
11 10.800000 0.000000 -15.959999 0.000000 -0.399694 0.000000
12 -12.599999 0.000000 -13.680000 0.000000 0.399694 0.000000
13 2.699999 0.000000 -13.680000 0.000000 -0.176336 0.000000
14 21.600000 13.000000 -2.280003 0.000000 -0.639743 0.000000
15 -0.900000 0.000000 -16.719999 0.000000 -0.000000 0.000000
16 1.799999 0.000000 -11.400000 0.000000 0.000000 0.000000
17 0.900000 0.000000 -13.680000 0.000000 -0.000000 0.000000
18 -26.100000 13.000000 -0.760002 0.000000 0.639743 0.000000
19 10.800000 0.000000 -15.959999 0.000000 -0.019254 0.000000
20 -12.599999 0.000000 -13.680000 0.000000 0.019254 0.000000
21 2.699999 0.000000 -13.680000 0.000000 -0.008494 0.000000
time 14
0 0.000000 0.000000 0.000000 0.000000 0.000000 0.000000
1 0.000000 0.000000 50.318428 0.000000 -0.042798 0.000000
2 24.299999 0.000000 6.840000 0.000000 -0.094650 0.000000
3 18.900002 0.000000 16.719997 0.000000 0.054797 0.000000
4 -35.099998 0.000000 5.320000 0.000000 -0.256085 0.000000
5 -11.700001 0.000000 -14.440002 -0.047553 -0.100000 0.000000
6 21.600000 -13.000000 -2.280003 0.000000 -0.608676 0.000000
7 -0.900000 0.000000 -16.719999 0.000000 -0.000000 0.000000
8 1.799999 0.000000 -11.400000 0.000000 0.000000 0.000000
9 0.900000 0.000000 -13.680000 0.000000 -0.000000 0.000000
10 -26.100000 -13.000000 -0.760002 0.000000 0.608676 0.000000
11 10.800000 0.000000 -15.959999 0.000000 -0.210132 0.000000
12 -12.599999 0.000000 -13.680000 0.000000 0.210132 0.000000
13 2.699999 0.000000 -13.680000 0.000000 -0.092705 0.000000
14 21.600000 13.000000 -2.280003 0.000000 -0.614032 0.000000
15 -0.900000 0.000000 -16.719999 0.000000 -0.191736 0.000000
16 1.799999 0.000000 -11.400000 0.000000 0.191736 0.000000
17 0.900000 0.000000 -13.680000 0.000000 -0.084589 0.000000
18 -26.100000 13.000000 -0.760002 0.000000 0.614032 0.000000
19 10.800000 0.000000 -15.959999 0.000000 -0.000000 0.000000
20 -12.599999 0.000000 -13.680000 0.000000 0.000000 0.000000
21 2.699999 0.000000 -13.680000 0.000000 -0.000000 0.000000
time 15
0 0.000000 0.000000 0.000000 0.000000 0.000000 0.000000
1 0.000000 0.000000 48.503487 0.000000 -0.045000 0.000000
2 24.299999 0.000000 6.840000 0.000000 -0.087501 0.000000
3 18.900002 0.000000 16.719997 0.000000 0.050658 0.000000
4 -35.099998 0.000000 5.320000 0.000000 -0.260000 0.000000
5 -11.700001 0.000000 -14.440002 -0.050000 -0.100000 0.000000
6 21.600000 -13.000000 -2.280003 0.000000 -0.640000 0.000000
7 -0.900000 0.000000 -16.719999 0.000000 -0.000000 0.000000
8 1.799999 0.000000 -11.400000 0.000000 0.000000 0.000000
9 0.900000 0.000000 -13.680000 0.000000 -0.000000 0.000000
10 -26.100000 -13.000000 -0.760002 0.000000 0.640000 0.000000
11 10.800000 0.000000 -15.959999 0.000000 -0.000000 0.000000
12 -12.599999 0.000000 -13.680000 0.000000 0.000000 0.000000
13 2.699999 0.000000 -13.680000 0.000000 -0.000000 0.000000
14 21.600000 13.000000 -2.280003 0.000000 -0.528215 0.000000
15 -0.900000 0.000000 -16.719999 0.000000 -0.383957 0.000000
16 1.799999 0.000000 -11.400000 0.000000 0.383957 0.000000
17 0.900000 0.000000 -13.680000 0.000000 -0.169393 0.000000
18 -26.100000 13.000000 -0.760002 0.000000 0.528215 0.000000
19 10.800000 0.000000 -15.959999 0.000000 -0.000000 0.000000
20 -12.599999 0.000000 -13.680000 0.000000 0.000000 0.000000
21 2.699999 0.000000 -13.680000 0.000000 -0.000000 0.000000
time 16
0 0.000000 0.000000 0.000000 0.000000 0.000000 0.000000
1 0.000000 0.000000 50.068352 0.000000 -0.042798 0.000000
2 24.299999 0.000000 6.840000 0.000000 -0.071786 0.000000
3 18.900002 0.000000 16.719997 0.000000 0.041560 0.000000
4 -35.099998 0.000000 5.320000 0.000000 -0.256085 0.000000
5 -11.700001 0.000000 -14.440002 -0.047553 -0.100000 0.000000
6 21.600000 -13.000000 -2.280003 0.000000 -0.608676 0.000000
7 -0.900000 0.000000 -16.719999 0.000000 -0.210132 0.000000
8 1.799999 0.000000 -11.400000 0.000000 0.210132 0.000000
9 0.900000 0.000000 -13.680000 0.000000 -0.092705 0.000000
10 -26.100000 -13.000000 -0.760002 0.000000 0.608676 0.000000
11 10.800000 0.000000 -15.959999 0.000000 -0.000000 0.000000
12 -12.599999 0.000000 -13.680000 0.000000 0.000000 0.000000
13 2.699999 0.000000 -13.680000 0.000000 -0.000000 0.000000
14 21.600000 13.000000 -2.280003 0.000000 -0.390692 0.000000
15 -0.900000 0.000000 -16.719999 0.000000 -0.538594 0.000000
16 1.799999 0.000000 -11.400000 0.000000 0.538594 0.000000
17 0.900000 0.000000 -13.680000 0.000000 -0.237615 0.000000
18 -26.100000 13.000000 -0.760002 0.000000 0.390692 0.000000
19 10.800000 0.000000 -15.959999 0.000000 -0.000000 0.000000
20 -12.599999 0.000000 -13.680000 0.000000 0.000000 0.000000
21 2.699999 0.000000 -13.680000 0.000000 -0.000000 0.000000
time 17
0 0.000000 0.000000 0.000000 0.000000 0.000000 0.000000
1 0.000000 0.000000 50.693851 0.000000 -0.036406 0.000000
2 24.299999 0.000000 6.840000 0.000000 -0.049045 0.000000
3 18.900002 0.000000 16.719997 0.000000 0.028394 0.000000
4 -35.099998 0.000000 5.320000 0.000000 -0.244721 0.000000
5 -11.700001 0.000000 -14.440002 -0.040451 -0.100000 0.000000
6 21.600000 -13.000000 -2.280003 0.000000 -0.517771 0.000000
7 -0.900000 0.000000 -16.719999 0.000000 -0.399694 0.000000
8 1.799999 0.000000 -11.400000 0.000000 0.399694 0.000000
9 0.900000 0.000000 -13.680000 0.000000 -0.176336 0.000000
10 -26.100000 -13.000000 -0.760002 0.000000 0.517771 0.000000
11 10.800000 0.000000 -15.959999 0.000000 -0.000000 0.000000
12 -12.599999 0.000000 -13.680000 0.000000 0.000000 0.000000
13 2.699999 0.000000 -13.680000 0.000000 -0.000000 0.000000
14 21.600000 13.000000 -2.280003 0.000000 -0.214926 0.000000
15 -0.900000 0.000000 -16.719999 0.000000 -0.640509 0.000000
16 1.799999 0.000000 -11.400000 0.000000 0.640509 0.000000
17 0.900000 0.000000 -13.680000 0.000000 -0.282578 0.000000
18 -26.100000 13.000000 -0.760002 0.000000 0.214926 0.000000
19 10.800000 0.000000 -15.959999 0.000000 -0.000000 0.000000
20 -12.599999 0.000000 -13.680000 0.000000 0.000000 0.000000
21 2.699999 0.000000 -13.680000 0.000000 -0.000000 0.000000
time 18
0 0.000000 0.000000 0.000000 0.000000 0.000000 0.000000
1 0.000000 0.000000 49.771454 0.000000 -0.026450 0.000000
2 24.299999 0.000000 6.840000 0.000000 -0.021502 0.000000
3 18.900002 0.000000 16.719997 0.000000 0.012449 0.000000
4 -35.099998 0.000000 5.320000 0.000000 -0.227023 0.000000
5 -11.700001 0.000000 -14.440002 -0.029389 -0.100000 0.000000
6 21.600000 -13.000000 -2.280003 0.000000 -0.376183 0.000000
7 -0.900000 0.000000 -16.719999 0.000000 -0.550132 0.000000
8 1.799999 0.000000 -11.400000 0.000000 0.550132 0.000000
9 0.900000 0.000000 -13.680000 0.000000 -0.242705 0.000000
10 -26.100000 -13.000000 -0.760002 0.000000 0.376183 0.000000
11 10.800000 0.000000 -15.959999 0.000000 -0.000000 0.000000
12 -12.599999 0.000000 -13.680000 0.000000 0.000000 0.000000
13 2.699999 0.000000 -13.680000 0.000000 -0.000000 0.000000
14 21.600000 13.000000 -2.280003 0.000000 -0.018121 0.000000
15 -0.900000 0.000000 -16.719999 0.000000 -0.679727 0.000000
16 1.799999 0.000000 -11.400000 0.000000 0.679727 0.000000
17 0.900000 0.000000 -13.680000 0.000000 -0.299880 0.000000
18 -26.100000 13.000000 -0.760002 0.000000 0.018121 0.000000
19 10.800000 0.000000 -15.959999 0.000000 -0.000000 0.000000
20 -12.599999 0.000000 -13.680000 0.000000 0.000000 0.000000
21 2.699999 0.000000 -13.680000 0.000000 -0.000000 0.000000
time 19
0 0.000000 0.000000 0.000000 0.000000 0.000000 0.000000
1 0.000000 0.000000 50.103554 0.000000 -0.013906 0.000000
2 24.299999 0.000000 6.840000 0.000000 0.008145 0.000000
3 18.900002 0.000000 16.719997 0.000000 -0.004715 0.000000
4 -35.099998 0.000000 5.320000 0.000000 -0.204721 0.000000
5 -11.700001 0.000000 -14.440002 -0.015451 -0.100000 0.000000
6 21.600000 -13.000000 -2.280003 0.000000 -0.197771 0.000000
7 -0.900000 0.000000 -16.719999 0.000000 -0.646718 0.000000
8 1.799999 0.000000 -11.400000 0.000000 0.646718 0.000000
9 0.900000 0.000000 -13.680000 0.000000 -0.285317 0.000000
10 -26.100000 -13.000000 -0.760002 0.000000 0.197771 0.000000
11 10.800000 0.000000 -15.959999 0.000000 -0.000000 0.000000
12 -12.599999 0.000000 -13.680000 0.000000 0.000000 0.000000
13 2.699999 0.000000 -13.680000 0.000000 -0.000000 0.000000
14 21.600000 13.000000 -2.280003 0.000000 0.180457 0.000000
15 -0.900000 0.000000 -16.719999 0.000000 -0.652409 0.000000
16 1.799999 0.000000 -11.400000 0.000000 0.652409 0.000000
17 0.900000 0.000000 -13.680000 0.000000 -0.287827 0.000000
18 -26.100000 13.000000 -0.760002 0.000000 -0.180457 0.000000
19 10.800000 0.000000 -15.959999 0.000000 -0.000000 0.000000
20 -12.599999 0.000000 -13.680000 0.000000 0.000000 0.000000
21 2.699999 0.000000 -13.680000 0.000000 -0.000000 0.000000
time 20
0 0.000000 0.000000 0.000000 0.000000 0.000000 0.000000
1 0.000000 0.000000 49.400002 0.000000 -0.000000 0.000000
2 24.299999 0.000000 6.840000 0.000000 0.036995 0.000000
3 18.900002 0.000000 16.719997 0.000000 -0.021418 0.000000
4 -35.099998 0.000000 5.320000 0.000000 -0.180000 0.000000
5 -11.700001 0.000000 -14.440002 -0.000000 -0.100000 0.000000
6 21.600000 -13.000000 -2.280003 0.000000 -0.000000 0.000000
7 -0.900000 0.000000 -16.719999 0.000000 -0.680000 0.000000
8 1.799999 0.000000 -11.400000 0.000000 0.680000 0.000000
9 0.900000 0.000000 -13.680000 0.000000 -0.300000 0.000000
10 -26.100000 -13.000000 -0.760002 0.000000 0.000000 0.000000
11 10.800000 0.000000 -15.959999 0.000000 -0.000000 0.000000
12 -12.599999 0.000000 -13.680000 0.000000 0.000000 0.000000
13 2.699999 0.000000 -13.680000 0.000000 -0.000000 0.000000
14 21.600000 13.000000 -2.280003 0.000000 0.361371 0.000000
15 -0.900000 0.000000 -16.719999 0.000000 -0.561228 0.000000
16 1.799999 0.000000 -11.400000 0.000000 0.561228 0.000000
17 0.900000 0.000000 -13.680000 0.000000 -0.247601 0.000000
18 -26.100000 13.000000 -0.760002 0.000000 -0.361371 0.000000
19 10.800000 0.000000 -15.959999 0.000000 -0.000000 0.000000
20 -12.599999 0.000000 -13.680000 0.000000 0.000000 0.000000
21 2.699999 0.000000 -13.680000 0.000000 -0.000000 0.000000
end
